<?xml version="1.0" encoding="utf-8"?><!DOCTYPE svg PUBLIC "-//W3C//DTD SVG 1.1//EN" "http://www.w3.org/Graphics/SVG/1.1/DTD/svg11.dtd"><svg version="1.1" id="Contours" xmlns="http://www.w3.org/2000/svg" xmlns:xlink="http://www.w3.org/1999/xlink" x="0px" y="0px" width="1599.982666px" height="1599.982666px" viewBox="-0.000003 -0.000000 1599.982666 1157.756714" enable-background="new 0 0 1599.982666 1599.982666" xml:space="preserve" stroke="black" fill="none" stroke-linecap='round' stroke-linejoin='round'><path class="selected"  fill="#000000" opacity="1.000000" stroke="none" 
 	d="
M1396.920091 235.351598 C1208.939118 243.044732 1020.958146 250.737865 832.977173 258.430999 C635.508418 266.512420 437.876919 274.605498 241.334514 295.349215 C361.205988 271.664265 483.826626 266.189309 605.895754 260.778669 C869.463549 249.096216 1133.101559 237.411860 1396.920091 235.351597 z"/><path class="selected"  fill="#000000" opacity="1.000000" stroke="none" 
 	d="
M283.627318 1114.253665 C273.654841 1080.411546 270.947364 1044.906687 268.862681 1009.687468 C262.489718 902.020835 261.412091 794.042110 252.448218 686.560170 C241.496079 555.237788 218.768314 423.859986 228.955289 292.476034 C239.281563 303.834276 238.787116 320.996327 238.111733 336.332085 C234.079173 427.896518 245.320043 519.340401 253.925476 610.588706 C269.718055 778.046418 276.675786 946.196630 283.627318 1114.253665 M266.091816 918.533107 C266.111840 919.520179 267.360273 920.245826 268.227878 919.774684 C269.095483 919.303543 269.166670 917.861295 268.349678 917.307005 C267.448797 917.528135 266.547912 917.749266 265.647027 917.970398 z"/><path class="selected"  fill="#000000" opacity="1.000000" stroke="none" 
 	d="
M1513.875435 1051.303727 C1504.035921 1045.104765 1501.379366 1032.177987 1499.774049 1020.659909 C1495.065792 986.878130 1491.722287 952.906167 1489.754435 918.854680 C1486.229987 857.868049 1487.117775 796.667851 1482.682086 735.740718 C1478.522644 678.608015 1469.698311 621.930286 1460.882820 565.328750 C1444.282565 458.743651 1427.682309 352.158552 1411.082054 245.573453 C1419.313548 250.866930 1421.526069 261.711299 1423.011551 271.384548 C1437.711463 367.108863 1452.411386 462.833174 1467.111308 558.557486 C1476.480292 619.567297 1485.857114 680.643631 1490.710456 742.177524 C1498.842344 845.279006 1494.298326 949.751868 1513.875435 1051.303727 z"/><path class="selected"  fill="#000000" opacity="1.000000" stroke="none" 
 	d="
M1029.861057 400.397627 C857.754401 395.796031 685.347770 402.445124 514.106730 420.288384 C500.702768 421.685073 485.951869 422.822987 474.953232 415.035373 C668.068693 400.662762 861.742477 386.280609 1055.188891 395.148389 C1048.297080 400.640385 1038.670349 400.633160 1029.861057 400.397627 z"/><path class="selected"  fill="#000000" opacity="1.000000" stroke="none" 
 	d="
M302.397777 1152.450600 C519.798686 1138.399564 737.497779 1128.962280 955.299071 1124.147242 C950.818154 1124.761731 946.337237 1125.376220 941.856321 1125.990709 C1107.801512 1119.114410 1273.919721 1116.413964 1440.000735 1117.892790 C1386.568280 1127.857990 1331.821332 1127.436566 1277.467594 1127.375638 C982.390297 1127.044870 687.382614 1138.326491 392.841931 1156.117122 C362.598881 1157.943841 331.793217 1159.791392 302.397775 1152.450618 M837.726137 1131.245623 C839.107848 1132.681930 841.825879 1132.412708 842.898971 1130.733250 C839.664125 1130.486521 836.429278 1130.239794 833.194431 1129.993066 C833.024784 1130.929913 832.855138 1131.866760 832.685491 1132.803607 C834.508398 1132.868429 836.347182 1132.207801 837.712042 1130.997697 M1104.857903 1123.565774 C1109.327100 1127.758272 1116.746365 1128.356833 1121.829858 1124.935012 C1122.381607 1124.563617 1122.966425 1124.009078 1122.849676 1123.354302 C1116.863323 1122.863617 1110.831065 1122.934520 1104.857903 1123.565774 M1032.396749 1124.130801 C1031.206105 1125.444237 1032.898504 1127.613268 1034.665678 1127.754136 C1036.432852 1127.895004 1038.096833 1126.957049 1039.849261 1126.689200 C1044.041345 1126.048460 1049.755190 1128.648768 1051.722377 1124.891868 C1045.280501 1124.638179 1038.838625 1124.384490 1032.396749 1124.130801 M856.137920 1128.355085 C854.094908 1127.208491 851.120275 1128.518159 850.586418 1130.799293 C855.031968 1133.128427 860.779076 1132.717023 864.847538 1129.778423 C862.265579 1128.348395 859.230843 1127.750862 856.299489 1128.095330 M903.097917 1128.226855 C896.939066 1126.568378 890.335404 1126.594528 884.189881 1128.301729 C890.385069 1129.738086 896.914298 1129.712231 903.097917 1128.226856 M1245.689589 1124.408242 C1246.054165 1123.852597 1246.418741 1123.296953 1246.783317 1122.741308 C1244.934194 1120.041085 1240.782063 1119.283047 1238.098093 1121.155682 C1238.106512 1122.074692 1238.114932 1122.993705 1238.123352 1123.912717 C1240.514149 1123.994781 1242.904945 1124.076845 1245.295741 1124.158908 M1059.155392 1123.694036 C1058.148928 1124.166298 1057.142464 1124.638561 1056.136000 1125.110823 C1056.131465 1125.964921 1056.126932 1126.819021 1056.122400 1127.673121 C1059.070865 1128.755426 1062.628708 1127.911556 1064.777026 1125.620366 C1063.262487 1124.395996 1061.229602 1123.835611 1059.301633 1124.111017 M995.289237 1128.085030 C996.082448 1127.500445 996.627676 1126.589959 996.768534 1125.614725 C994.285007 1123.557840 990.315583 1123.589060 987.864719 1125.684754 C989.773233 1127.595933 992.634335 1128.504761 995.295893 1128.045267 M1177.349175 1122.242859 C1176.210517 1122.571126 1175.637548 1124.121533 1176.289081 1125.111384 C1179.656800 1124.977533 1183.024520 1124.843680 1186.392241 1124.709828 C1184.436096 1122.006633 1180.470880 1120.988347 1177.454294 1122.414520 M1163.785424 1124.902213 C1165.957305 1124.987105 1168.129186 1125.071996 1170.301067 1125.156888 C1170.766726 1124.354564 1170.948863 1123.391382 1170.808320 1122.474424 C1167.995205 1122.012900 1165.126714 1121.889857 1162.284408 1122.108795 C1162.267978 1123.115698 1162.913477 1124.101751 1163.842877 1124.489485 M1223.347864 1125.241012 C1224.775005 1124.779265 1226.024301 1123.788572 1226.799088 1122.504187 C1224.294885 1122.030391 1221.731166 1121.872052 1219.187691 1122.034096 C1217.960686 1123.931394 1221.369997 1126.412576 1222.798079 1124.661613 M1088.733341 1126.111415 C1087.093576 1123.435771 1082.639000 1123.212453 1080.739857 1125.710685 C1082.648050 1127.329598 1085.541993 1127.673173 1087.776204 1126.546055 M917.065378 1127.440513 C915.088755 1125.658344 911.915152 1125.371815 909.651288 1126.771132 C910.606976 1129.275112 914.437193 1130.016162 916.257872 1128.049340 M1023.688781 1124.707266 C1021.741291 1123.151802 1018.350992 1124.202848 1017.624897 1126.587166 C1019.774388 1128.344606 1023.523652 1127.392935 1024.574755 1124.823096 M1252.299895 1120.088659 C1251.345278 1120.158736 1250.390660 1120.228812 1249.436043 1120.298889 C1247.734715 1121.430195 1248.704170 1124.692898 1250.747212 1124.711630 C1252.790254 1124.730363 1253.819372 1121.485984 1252.139074 1120.323672 M1187.971734 1121.882207 C1187.294123 1123.540896 1189.301300 1125.279230 1191.081858 1125.079171 C1192.862415 1124.879113 1194.258178 1123.514323 1195.503860 1122.226424 C1193.102234 1122.162080 1190.700606 1122.097733 1188.298978 1122.033386 M873.454389 1128.856654 C871.475375 1127.666967 868.713533 1127.981893 867.053154 1129.586571 C868.690311 1131.602643 872.277496 1131.494585 873.790335 1129.383626 M1002.326775 1126.955879 C1003.802476 1128.636856 1007.122304 1127.717417 1007.522976 1125.516772 C1007.085011 1124.709522 1006.213646 1124.154922 1005.296889 1124.099930 C1004.464005 1124.929506 1003.631120 1125.759083 1002.798236 1126.588660 M929.351843 1127.047191 C928.197156 1125.869971 926.191191 1125.653458 924.811899 1126.557173 C924.566803 1128.997140 929.175945 1129.557592 929.522729 1127.129990 M1287.544270 1123.160103 C1287.928047 1121.952312 1287.184439 1120.504254 1285.979230 1120.112442 C1284.774021 1119.720629 1283.321043 1120.454577 1282.921212 1121.657149 C1283.874268 1122.971442 1285.742834 1123.533079 1287.262571 1122.962036 M1291.872233 1123.484389 C1293.436563 1124.594963 1295.557604 1121.607314 1293.993274 1120.496740 C1292.428945 1119.386165 1290.307904 1122.373814 1291.872233 1123.484389 M1012.236601 1127.970419 C1013.645109 1127.375782 1014.231640 1125.386390 1013.371007 1124.122745 C1011.241747 1123.726747 1010.165392 1127.559261 1012.189485 1128.329730 M1129.087882 1125.424491 C1129.956039 1127.088136 1132.712900 1127.239363 1133.757818 1125.680659 C1132.927016 1123.818259 1129.760233 1123.771539 1128.874851 1125.608620 M658.726217 1140.057623 C660.588274 1140.197623 661.688476 1137.264238 660.193623 1136.145188 C658.428067 1136.127597 657.154620 1139.059621 658.858760 1139.521583 M1138.481635 1126.671399 C1138.631410 1125.604090 1138.781185 1124.536781 1138.930960 1123.469472 C1138.028214 1123.296857 1137.125469 1123.124243 1136.222725 1122.951630 C1135.640773 1124.260555 1136.466077 1125.994553 1137.848915 1126.368327 M1319.808878 1122.577126 C1318.267682 1121.862337 1316.414252 1121.856710 1314.868744 1122.562127 C1315.819019 1124.452644 1318.989425 1124.563403 1320.069316 1122.743809 M1203.808878 1122.577126 C1202.267682 1121.862337 1200.414252 1121.856710 1198.868744 1122.562127 C1199.819019 1124.452644 1202.989425 1124.563403 1204.069316 1122.743809 M1261.830015 1123.579802 C1262.688744 1124.310224 1264.082970 1124.304731 1264.935917 1123.567567 C1264.502148 1122.139434 1263.534459 1120.880316 1262.266051 1120.093641 C1261.738460 1121.164118 1261.584331 1122.414273 1261.836121 1123.580840 M739.367208 1137.077985 C739.189893 1135.517953 737.841513 1134.170012 736.281424 1133.993204 C734.826332 1135.419643 737.538126 1138.203707 739.002333 1136.786629 M764.217958 1134.300501 C762.542986 1133.819203 760.086534 1133.775442 759.758097 1135.486964 C761.222360 1136.815255 763.978298 1136.072871 764.577231 1134.188805 M798.389279 1135.136649 C799.108483 1133.796162 797.794481 1131.892421 796.286063 1132.089485 C795.821883 1132.826220 795.647153 1133.740134 795.806817 1134.596143 C796.529352 1135.074488 797.449192 1135.244163 798.294839 1135.055088 M1071.834968 1125.553269 C1072.558657 1126.501822 1074.005459 1127.489688 1074.748035 1126.555846 C1075.012388 1125.631888 1074.796531 1124.584286 1074.188457 1123.840089 C1073.357668 1124.367288 1072.526880 1124.894488 1071.696091 1125.421688 M1099.345796 1124.127420 C1097.731420 1123.804371 1096.648784 1126.861272 1098.294809 1126.895540 C1099.407495 1126.554213 1099.958865 1125.038360 1099.325497 1124.061931 M847.654163 1131.616879 C847.261733 1130.472382 845.694114 1129.926664 844.675804 1130.580055 C844.740559 1131.977039 846.900926 1132.660707 847.757586 1131.555312 z"/><path class="selected"  fill="#000000" opacity="1.000000" stroke="none" 
 	d="
M921.469443 724.244486 C915.663248 727.688938 908.634649 728.184733 901.896115 728.594980 C774.264918 736.365086 646.633723 744.135202 519.002529 751.905318 C516.695720 745.978592 525.344911 742.168712 531.686427 741.686401 C650.092102 732.680939 768.622881 725.320401 887.233025 719.607629 C898.890931 719.046134 911.227585 718.647486 921.469442 724.244485 z"/><path class="selected"  fill="#000000" opacity="1.000000" stroke="none" 
 	d="
M595.953480 868.737180 C597.766848 859.936516 584.928434 856.445055 575.982943 857.292510 C561.743088 858.641531 547.576542 860.764030 533.566590 863.647531 C542.118880 910.823344 550.671171 957.999157 559.223461 1005.174970 C568.805208 997.688577 582.868239 997.247947 593.681244 1002.809860 C604.494249 1008.371773 612.055589 1019.219607 615.150276 1030.978810 C617.789519 1041.007408 616.924140 1052.908704 609.403043 1060.048133 C601.881946 1067.187562 586.812106 1065.553315 583.766668 1055.640513 C592.854897 1059.164587 604.267511 1051.204022 604.099470 1041.457900 C603.908335 1030.372325 591.724679 1021.359119 593.789097 1010.465786 C582.769922 1011.476585 571.750746 1012.487384 560.731571 1013.498184 C564.537513 1038.553386 568.343454 1063.608589 572.149396 1088.663791 C572.715127 1092.388100 573.178677 1096.560666 570.939177 1099.589719 C568.699678 1102.618773 562.681927 1102.422019 562.145935 1098.693315 C550.232648 1015.816789 536.182822 933.247395 520.015115 851.094792 C503.205771 765.681849 484.106693 680.714224 468.802976 595.018711 C457.467737 531.545296 448.233670 466.262377 460.076628 402.881730 C468.897605 409.645768 468.310199 422.830021 467.355605 433.904794 C461.167050 505.701518 475.383198 577.524234 489.775059 648.135438 C502.765797 711.872276 515.959445 775.567758 529.355734 839.220592 C530.709061 845.650959 534.640126 853.859786 541.035973 852.351724 C555.742549 848.884091 570.781560 846.827818 585.879202 846.220343 C591.340069 846.000617 597.769110 846.450428 600.763778 851.022224 C602.243404 853.281087 602.520677 856.094497 602.756776 858.784480 C604.842896 882.552675 606.929018 906.320868 609.015140 930.089062 C609.204284 932.244068 609.358212 934.563600 608.247483 936.419970 C607.097378 938.342148 604.875632 939.297549 602.797647 940.133904 C585.865619 946.948771 566.434028 953.726507 550.017347 945.749756 C565.569766 937.879729 582.463801 932.669361 599.747340 930.412295 C593.071787 910.670785 591.747845 889.148031 595.953480 868.737180 M532.542367 886.006921 C532.133425 885.109668 531.724484 884.212416 531.315543 883.315164 C529.673536 882.915519 528.040544 884.974874 528.803892 886.482589 C529.567240 887.990305 532.193676 887.893134 532.843527 886.333134 M601.245942 917.935011 C602.373776 917.613966 602.952157 916.088881 602.320843 915.100688 C600.633752 914.780574 598.523130 916.002119 598.766297 917.702008 C599.599965 917.879135 600.433633 918.056262 601.267301 918.233388 M603.401491 1025.217030 C602.266906 1025.903614 602.902457 1028.065343 604.228102 1028.028615 C605.336832 1027.240997 604.665531 1025.096423 603.305603 1025.081549 z"/><path class="selected"  fill="#000000" opacity="1.000000" stroke="none" 
 	d="
M486.289938 520.508065 C638.735182 507.915306 791.606605 500.482416 944.554441 498.226400 C980.988461 497.688990 1017.568916 497.434396 1053.603473 492.027241 C1056.600991 491.577449 1058.355654 495.964589 1056.781945 498.555124 C1055.208237 501.145658 1051.983356 502.126430 1049.026611 502.793578 C1030.521489 506.968981 1011.363813 506.946039 992.393550 506.995978 C821.304178 507.446376 650.234835 515.440104 479.848984 530.946162 C476.600384 531.241803 475.227108 526.212764 477.328997 523.718196 C479.430886 521.223627 483.038986 520.776611 486.289938 520.508065 z"/><path class="selected"  fill="#000000" opacity="1.000000" stroke="none" 
 	d="
M966.185258 702.620962 C966.303831 709.825147 966.176755 717.744618 961.464176 723.194934 C955.812108 721.292724 954.815081 713.854496 954.812519 707.890920 C954.798783 675.895970 954.785045 643.901020 954.771307 611.906070 C805.404675 620.256357 656.038044 628.606644 506.671413 636.956931 C504.157260 637.097484 501.475707 637.200011 499.303806 635.925820 C497.131905 634.651628 495.921343 631.437974 497.579808 629.543188 C498.700405 628.262914 500.589390 628.073053 502.287816 627.972121 C649.952304 619.196869 797.616793 610.421618 945.281282 601.646366 C949.593574 601.390100 954.215129 601.206484 957.898166 603.464088 C963.970055 607.185994 964.751987 615.539412 964.869193 622.660275 C965.307876 649.313839 965.746567 675.967401 966.185258 702.620962 M765.117275 618.356840 C764.523153 617.591112 763.929030 616.825384 763.334907 616.059656 C762.487214 616.906140 761.639524 617.752623 760.791833 618.599106 C761.988649 619.339706 763.605803 619.336826 764.799974 618.591968 M708.400575 619.211952 C707.270713 619.906299 707.907481 622.061350 709.233275 622.030107 C710.332133 621.233947 709.661143 619.103528 708.304366 619.080784 z"/><path class="selected"  fill="#000000" opacity="1.000000" stroke="none" 
 	d="
M436.480003 705.078817 C439.571047 702.440438 443.854443 699.662378 447.354733 701.727218 C450.462462 703.560484 450.547551 708.340021 448.471908 711.291385 C446.396266 714.242750 442.913736 715.807683 439.601198 717.238045 C442.608182 719.863986 446.571175 721.370198 450.563211 721.404371 C453.234353 721.427236 454.333143 725.373681 452.728963 727.509595 C451.124783 729.645509 448.170879 730.204633 445.500097 730.254082 C439.293474 730.368998 433.064603 728.561759 427.883306 725.142764 C428.483110 729.804582 427.696408 736.314634 423.010083 736.676112 C418.839910 736.997778 416.705373 731.864829 415.855469 727.769531 C414.477518 721.129811 413.099566 714.490092 411.721614 707.850373 C408.374046 706.281810 404.145274 706.814246 401.291012 709.163669 C398.436750 711.513092 397.101378 715.560658 397.997213 719.147311 C398.918663 722.836523 401.889998 725.734161 402.910948 729.397086 C403.931897 733.060010 400.958940 738.194328 397.448284 736.733283 C393.657334 735.155587 389.456966 737.214357 385.599332 738.621156 C381.741698 740.027955 376.494083 740.323562 374.449612 736.762584 C373.344461 734.837675 370.670984 734.452533 368.511385 734.965139 C366.351786 735.477745 364.379144 736.646756 362.196057 737.047714 C356.396336 738.112928 350.769864 733.169564 349.301760 727.458511 C347.833656 721.747459 349.577930 715.691434 352.055007 710.340216 C353.815025 706.538056 356.628964 702.463307 360.811510 702.217564 C362.528513 702.116682 364.214638 702.708761 365.756093 703.471777 C372.555001 706.837220 377.378990 713.895242 378.045272 721.452187 C378.563679 727.331930 384.801944 732.027644 390.595621 730.899179 C391.570431 723.099471 383.319656 715.388816 386.571051 708.232413 C390.759695 699.013094 407.829022 703.689256 412.367470 694.637015 C413.272206 692.832458 416.065624 692.839695 417.599643 694.151852 C419.133663 695.464008 419.725932 697.540418 420.242230 699.491932 C421.641263 704.780023 423.040295 710.068115 424.439328 715.356206 C428.452886 711.930410 432.466445 708.504613 436.480003 705.078817 M366.600062 728.904130 C367.881570 727.656191 367.786466 725.606437 367.599983 723.827438 C367.210714 720.113909 366.555057 715.928424 363.486844 713.800538 C361.403239 716.241529 360.098263 719.337253 359.805655 722.533224 C359.620933 724.550801 359.889936 726.742218 361.212807 728.276738 C362.535678 729.811258 365.148566 730.317602 366.600060 728.904130 z"/><path class="selected"  fill="#000000" opacity="1.000000" stroke="none" 
 	d="
M256.977392 79.607924 C256.282224 83.063445 252.604041 84.946810 249.296936 86.166211 C238.033667 90.319221 226.062728 92.545403 214.059456 92.719166 C210.558351 92.769849 208.530267 96.767797 208.069406 100.238807 C207.185502 106.896037 210.692058 115.151727 217.396406 115.541217 C220.255342 115.707309 222.962997 114.384837 225.543913 113.143881 C228.124829 111.902924 230.909678 110.681098 233.747806 111.063369 C236.585933 111.445640 239.302062 114.121117 238.639575 116.907191 C238.252363 118.535604 236.879035 119.724802 235.510795 120.688947 C230.078969 124.516544 223.330932 126.652582 216.725313 125.930763 C210.119694 125.208943 203.765055 121.438111 200.544442 115.625807 C197.012456 109.251564 197.512429 101.486619 198.300223 94.241946 C199.486793 83.330072 201.103368 72.464964 203.144938 61.680302 C205.778631 64.045486 210.482952 63.428106 212.417174 60.463443 C213.576974 58.685768 215.925310 58.208619 218.023197 57.885911 C226.726890 56.547062 235.430584 55.208213 244.134277 53.869365 C247.432555 53.362006 251.104939 52.934584 253.839952 54.846587 C256.574965 56.758589 256.732087 61.990461 253.493268 62.794265 C244.621138 64.996133 235.749008 67.198001 226.876878 69.399869 C222.260648 70.545516 215.866308 70.799868 214.341702 66.294575 C213.378184 65.417329 211.951101 66.966892 212.017370 68.268251 C212.083638 69.569610 212.745513 70.930194 212.200198 72.113646 C210.510877 75.779840 214.060241 80.070660 218.009702 80.905247 C221.959163 81.739835 225.983620 80.326771 229.902885 79.360264 C238.758221 77.176501 248.163486 77.262534 256.977392 79.607924 z"/><path class="selected"  fill="#000000" opacity="1.000000" stroke="none" 
 	d="
M1077.764217 7.524568 C1080.692944 5.499580 1084.287355 8.907973 1086.174610 11.927292 C1090.774318 19.286117 1095.253500 26.916109 1097.200960 35.372881 C1099.148420 43.829654 1098.227698 53.356490 1092.836936 60.157173 C1089.513215 64.350193 1084.800258 67.185691 1080.085218 69.714907 C1069.833029 75.214329 1057.229720 79.688974 1046.916065 74.305709 C1036.416169 68.825238 1032.945600 55.449627 1032.775773 43.606715 C1032.605946 31.763804 1034.547555 19.477568 1030.425983 8.373692 C1029.565835 6.056379 1028.502972 3.276003 1029.999165 1.308468 C1032.185251 -1.566295 1036.873450 0.772100 1038.929952 3.740944 C1044.564783 11.875596 1043.833823 22.615909 1043.776060 32.511390 C1043.732155 40.033041 1044.209041 47.557686 1045.202175 55.013613 C1045.548295 57.612102 1046.003566 60.317583 1047.568991 62.420293 C1050.998944 67.027472 1057.951769 66.748586 1063.514372 65.317457 C1073.231238 62.817533 1083.173321 57.357249 1086.622312 47.935383 C1090.418044 37.566297 1085.158026 26.129823 1078.833254 17.078701 C1076.778473 14.138189 1074.813544 9.564731 1077.764218 7.524569 z"/><path class="selected"  fill="#000000" opacity="1.000000" stroke="none" 
 	d="
M295.909624 49.997005 C299.092453 50.740697 301.078398 53.889936 302.299504 56.921829 C304.146632 61.508073 305.048240 66.429091 306.864035 71.027831 C308.679829 75.626570 311.670301 80.091136 316.217588 82.032193 C314.145352 86.976942 313.593247 92.546720 314.654398 97.802067 C315.186269 100.436153 316.116917 103.046484 315.951041 105.728607 C315.785165 108.410729 314.086056 111.274161 311.420955 111.618453 C307.455115 112.130783 305.152880 107.305652 304.338944 103.390568 C303.525007 99.475484 301.938479 94.581910 297.950632 94.286183 C292.893979 93.911196 287.722165 93.546251 282.827429 94.869850 C277.932694 96.193449 273.281875 99.550616 271.820552 104.406014 C270.823766 107.717936 271.102764 111.889129 268.273938 113.879143 C265.050446 116.146797 260.268162 113.171541 259.297350 109.351766 C258.326538 105.531990 259.901403 101.571440 261.510667 97.973742 C269.291801 80.578095 278.622725 63.876023 289.356762 48.130072 C290.673030 50.075267 293.622537 49.462611 295.909623 49.997009 M290.903268 68.870889 C289.542802 71.532955 288.182337 74.195020 286.821871 76.857085 C285.881316 78.697499 285.075192 81.269686 286.696902 82.551022 C287.334175 83.054541 288.187987 83.177149 288.999365 83.213395 C292.225336 83.357503 295.490653 82.387043 298.114274 80.504420 C297.109126 76.962428 296.103978 73.420437 295.098830 69.878445 C294.721801 68.549851 293.839782 66.896425 292.493393 67.203910 C291.718778 67.380818 291.264849 68.163372 290.903267 68.870888 z"/><path class="selected"  fill="#000000" opacity="1.000000" stroke="none" 
 	d="
M672.660757 12.319643 C672.244044 11.039822 671.826978 9.645897 672.275657 8.376929 C673.101665 6.040784 676.500902 5.613103 678.573523 6.971082 C680.646144 8.329060 681.689511 10.767270 682.605350 13.069683 C690.084601 31.872473 696.579800 51.066649 702.055488 70.547432 C703.352387 71.795371 705.688510 71.047249 706.673969 69.541206 C707.659428 68.035162 707.675078 66.115022 707.639583 64.315567 C707.348033 49.535238 705.843357 34.779016 703.145657 20.244040 C702.795760 18.358823 702.485108 16.207948 703.667756 14.698705 C705.298295 12.617881 708.859868 13.274170 710.564663 15.294606 C712.269457 17.315043 712.626589 20.112787 712.913772 22.740716 C713.753106 30.421205 714.592439 38.101694 715.431772 45.782183 C716.795540 58.261624 717.850419 72.016215 710.567011 82.241100 C708.606430 84.993481 705.644773 87.528845 702.278252 87.235572 C697.608420 86.828763 695.210449 81.574900 693.759174 77.117701 C686.726368 55.518348 679.693562 33.918995 672.660757 12.319643 z"/><path class="selected"  fill="#000000" opacity="1.000000" stroke="none" 
 	d="
M154.570950 33.267769 C158.898795 43.669238 163.226640 54.070706 167.554485 64.472174 C168.506957 50.924190 169.459430 37.376205 170.411902 23.828221 C170.649154 20.453555 175.903947 19.690307 178.282843 22.095617 C180.661739 24.500926 180.844015 28.254339 180.828129 31.637298 C180.708423 57.129839 177.603331 82.517205 173.733368 107.714573 C173.131813 111.631298 171.444660 116.544044 167.483014 116.633330 C165.018409 116.688877 162.938600 114.553177 162.221455 112.194562 C161.504310 109.835947 161.836041 107.302335 162.174061 104.860388 C163.699301 93.841625 165.224542 82.822864 166.749783 71.804103 C159.380691 69.590774 155.486843 61.750678 152.431824 54.688866 C148.891695 46.505699 145.351566 38.322531 141.811436 30.139364 C140.421683 26.926888 145.102154 23.850678 148.342702 25.173656 C151.583249 26.496635 153.226333 30.036141 154.570950 33.267769 z"/><path class="selected"  fill="#000000" opacity="1.000000" stroke="none" 
 	d="
M1461.579428 52.781949 C1464.454160 51.922456 1467.042251 55.633463 1466.207623 58.515512 C1465.372994 61.397561 1462.512184 63.191324 1459.712179 64.269649 C1449.447757 68.222634 1435.870642 64.757408 1431.356347 54.727175 C1427.193397 45.477592 1431.638567 34.912847 1433.279670 24.903265 C1433.622116 22.814585 1433.954464 20.489029 1435.596000 19.152911 C1436.857341 18.126258 1438.587957 17.954323 1440.209110 17.824487 C1447.788069 17.217504 1455.367027 16.610520 1462.945985 16.003535 C1465.936369 15.764041 1469.116745 15.561408 1471.763150 16.974309 C1474.409555 18.387211 1476.065455 22.070934 1474.296752 24.494039 C1473.084105 26.155354 1470.839365 26.604783 1468.808249 26.928888 C1460.407212 28.269438 1452.006176 29.609988 1443.605140 30.950539 C1443.827891 32.456343 1444.050642 33.962147 1444.273394 35.467951 C1454.158938 34.433272 1465.153544 33.693847 1472.998062 39.797788 C1464.975204 46.723492 1453.762431 49.790420 1443.331519 47.912206 C1442.716990 49.495856 1442.499716 51.231909 1442.705002 52.918162 C1448.840111 54.656391 1455.470046 54.608544 1461.579428 52.781949 z"/><path class="selected"  fill="#000000" opacity="1.000000" stroke="none" 
 	d="
M53.175261 8.788311 C58.693169 7.752772 65.301465 7.238686 69.015660 11.448722 C72.433045 15.322325 71.616497 21.184489 71.089087 26.323084 C68.842329 48.213329 75.651966 70.020405 76.036814 92.022282 C76.109864 96.198555 74.941393 101.589094 70.802898 102.154293 C68.204906 102.509104 65.764045 100.474275 64.739622 98.060561 C63.715200 95.646847 63.768665 92.933574 63.784744 90.311515 C63.869252 76.530719 62.451864 62.741223 59.565753 49.265770 C52.654977 51.513790 44.635400 49.963877 39.059939 45.302691 C33.484479 40.641506 30.537916 33.023526 31.525668 25.823751 C31.939153 22.809832 33.016700 19.855403 34.865465 17.439468 C39.065696 11.950673 46.382349 10.063128 53.175260 8.788312 M59.860165 33.795307 C59.981610 29.315122 60.103055 24.834937 60.224500 20.354752 C60.237660 19.869280 60.236352 19.338408 59.931822 18.960099 C59.588096 18.533100 58.979878 18.448091 58.432560 18.417772 C52.848609 18.108437 46.912407 20.567171 44.100635 25.401436 C41.288863 30.235702 42.553121 37.350315 47.413640 40.116457 C52.274159 42.882599 59.708623 39.385765 59.860164 33.795307 z"/><path class="selected"  fill="#000000" opacity="1.000000" stroke="none" 
 	d="
M1042.502724 310.964176 C1040.933170 311.574149 1039.075425 312.872244 1039.593317 314.474541 C1040.602803 317.597767 1041.476416 320.965272 1040.579235 324.122591 C1039.682055 327.279910 1036.355005 329.966846 1033.216484 329.005971 C1030.183208 328.077318 1028.927154 324.539747 1028.198369 321.452349 C1025.275753 309.071076 1023.903699 296.324629 1024.124401 283.605004 C1027.466493 282.915987 1030.634538 285.537033 1032.391557 288.462303 C1034.148576 291.387573 1035.114113 294.793277 1037.276072 297.433402 C1039.438030 300.073526 1043.530141 301.692092 1046.269010 299.656676 C1048.501454 297.997614 1051.595276 299.536043 1054.049758 300.844405 C1056.504240 302.152767 1060.148904 302.916253 1061.566604 300.523259 C1063.582877 297.119909 1069.015378 296.486419 1071.760639 299.334521 C1074.505901 302.182623 1073.673141 307.588166 1070.197973 309.477969 C1067.593867 310.894087 1068.139585 315.180381 1070.532145 316.930357 C1072.924705 318.680332 1076.173439 318.567883 1079.110579 318.167924 C1083.115409 317.622571 1087.066330 316.682086 1090.887349 315.364555 C1092.224894 314.903354 1093.769471 314.112724 1093.859967 312.700796 C1093.949113 311.309925 1092.539873 310.316798 1091.238190 309.818713 C1087.729948 308.476297 1083.685213 308.503359 1080.539125 306.451051 C1077.393037 304.398742 1076.387579 298.679093 1079.914152 297.385599 C1081.460666 296.818361 1083.174523 297.392037 1084.688488 298.041166 C1091.776087 301.080053 1098.097291 305.887764 1102.918580 311.906406 C1103.776654 312.977581 1104.617941 314.160894 1104.750092 315.526999 C1105.011098 318.225124 1102.513875 320.319884 1100.196962 321.726980 C1092.787889 326.226619 1084.446072 329.182572 1075.856913 330.351964 C1071.668670 330.922184 1067.140012 331.004601 1063.519705 328.822880 C1056.731733 324.732214 1056.360568 315.195828 1056.858979 307.286233 C1051.949546 307.932720 1047.118246 309.170455 1042.502724 310.964176 z"/><path class="selected"  fill="#000000" opacity="1.000000" stroke="none" 
 	d="
M900.703789 308.080064 C896.528560 310.099264 893.066338 313.558006 891.042941 317.731203 C895.086907 317.696637 899.134651 318.125247 903.081699 319.005969 C905.771451 319.606146 909.058558 321.419741 908.441885 324.105759 C908.197764 325.169068 907.350824 325.990047 906.448199 326.602817 C898.493553 332.003026 885.166371 325.751046 879.287139 333.358495 C877.875872 335.184607 874.808772 334.779392 873.171313 333.153021 C871.533854 331.526649 870.952409 329.147604 870.440101 326.897294 C868.917867 320.210895 867.395634 313.524498 865.873400 306.838100 C865.488952 305.149415 863.085750 305.182165 861.409862 305.619036 C858.437113 306.393974 855.464364 307.168911 852.491615 307.943848 C851.649811 308.163290 850.773997 308.400399 850.123234 308.977718 C848.326425 310.571741 849.334439 313.666038 851.125660 315.266337 C852.916881 316.866637 855.307588 317.759294 856.861955 319.590517 C859.398812 322.579226 858.880044 327.276210 856.726392 330.551849 C854.572741 333.827489 851.149430 336.011403 847.829497 338.096126 C846.407365 338.989141 844.894132 339.910921 843.215408 339.953597 C840.007729 340.035144 837.492996 336.538299 837.889979 333.354236 C838.286963 330.170173 840.913294 327.605550 843.896272 326.423307 C844.720494 322.326199 841.216614 318.804538 838.410813 315.707267 C835.605012 312.609995 833.263846 307.638437 836.096073 304.565312 C844.202192 295.769716 858.196080 295.719646 869.683251 299.053796 C871.584035 299.605498 873.842300 300.732410 873.784807 302.710805 C873.686780 306.083984 877.833577 308.201051 881.145423 307.553273 C884.457270 306.905495 887.107515 304.529386 889.875545 302.599113 C892.643575 300.668840 896.144273 299.076736 899.311392 300.241768 C902.478511 301.406801 903.741775 306.610851 900.703789 308.080064 z"/><path class="selected"  fill="#000000" opacity="1.000000" stroke="none" 
 	d="
M1547.751082 51.209115 C1546.937415 55.697392 1540.700096 56.204977 1536.239127 55.252906 C1528.475270 53.595925 1520.932362 50.906772 1513.871310 47.278466 C1514.328560 50.819189 1514.761011 54.558243 1513.362325 57.842977 C1511.963640 61.127711 1508.025607 63.615346 1504.772689 62.144182 C1501.659787 52.578575 1500.421693 42.406782 1501.149081 32.373742 C1501.318351 30.038964 1501.623444 27.620964 1502.873530 25.641791 C1504.123615 23.662618 1506.573341 22.257221 1508.819584 22.916185 C1508.089704 19.400148 1511.178406 16.000496 1514.652123 15.090248 C1518.125839 14.180001 1521.790719 15.094856 1525.245329 16.075128 C1529.685400 17.335038 1534.299199 18.831012 1537.488284 22.167378 C1540.677369 25.503744 1541.818941 31.253672 1538.741343 34.693147 C1536.286089 37.437099 1531.701393 38.297739 1530.530977 41.788821 C1533.741651 43.467777 1537.590543 43.165322 1541.125481 43.960018 C1544.660418 44.754715 1548.397381 47.644059 1547.751082 51.209115 M1513.110228 27.074242 C1512.959499 28.635761 1512.808769 30.197281 1512.658040 31.758800 C1516.162786 33.056344 1520.413371 31.992446 1522.893634 29.196888 C1520.015025 27.532645 1516.609359 26.796366 1513.300359 27.122894 z"/><path class="selected"  fill="#000000" opacity="1.000000" stroke="none" 
 	d="
M928.162241 71.347061 C921.795563 74.079877 914.084605 73.421749 908.273129 69.649532 C906.675974 68.612822 904.359785 67.426915 903.148450 68.896045 C900.955652 71.660986 902.959735 76.130050 906.196994 77.534829 C909.434253 78.939608 913.192666 78.109245 916.493686 76.861642 C918.158139 76.232571 920.072601 75.512055 921.629291 76.373941 C924.101774 77.742869 923.273688 81.577026 921.544920 83.812757 C918.143766 88.211302 912.470754 90.748227 906.924852 90.350734 C901.378950 89.953241 896.125726 86.633197 893.386632 81.794562 C890.215187 76.192176 890.484793 69.240154 892.071363 63.000957 C893.657933 56.761760 896.442650 50.882365 898.112824 44.665026 C898.380178 43.669779 898.627548 42.645996 899.187320 41.780752 C900.634171 39.544343 903.628472 39.030003 906.274260 38.722258 C916.541182 37.528060 926.808104 36.333862 937.075025 35.139664 C939.045119 36.537697 939.007591 39.669990 937.604619 41.636569 C936.201646 43.603147 933.870122 44.657553 931.611281 45.513942 C927.253630 47.166047 922.741904 48.411493 918.153818 49.228827 C915.664937 49.672202 913.041133 50.034815 911.003483 51.531175 C908.965833 53.027534 907.828916 56.109182 909.330282 58.143146 C910.566914 59.818463 912.925571 60.081330 915.004462 60.200308 C920.106571 60.492309 925.208680 60.784310 930.310789 61.076311 C932.732113 61.214887 934.135960 64.277133 933.364151 66.576333 C932.592342 68.875533 930.390893 70.390441 928.162242 71.347061 z"/><path class="selected"  fill="#000000" opacity="1.000000" stroke="none" 
 	d="
M1286.553653 17.964662 C1287.588068 16.772353 1286.289059 14.755041 1284.721208 14.572127 C1283.153357 14.389214 1281.702180 15.359681 1280.467602 16.343261 C1273.566733 21.841141 1268.229593 29.280280 1265.232371 37.578794 C1263.138278 43.376779 1262.271556 50.151831 1265.378793 55.476016 C1267.971690 59.918890 1272.944472 62.555707 1277.997426 63.520025 C1283.050380 64.484343 1288.253928 63.994174 1293.374354 63.500723 C1299.760440 62.885302 1306.146526 62.269880 1312.532612 61.654458 C1314.757819 61.440017 1316.090104 64.506309 1315.138298 66.529079 C1314.186491 68.551849 1311.974356 69.615289 1309.901019 70.451238 C1300.617417 74.194295 1290.524209 76.520667 1280.591418 75.281556 C1270.658626 74.042445 1260.910960 68.844442 1255.799634 60.238044 C1251.765292 53.445062 1250.903695 45.055241 1252.451940 37.307761 C1254.000185 29.560280 1257.809373 22.405680 1262.531364 16.071384 C1265.780347 11.713048 1269.686882 7.545044 1274.789881 5.671444 C1279.892880 3.797843 1286.408069 4.869134 1289.470258 9.360679 C1291.596834 12.479886 1290.320239 18.218868 1286.553655 17.964663 z"/><path class="selected"  fill="#000000" opacity="1.000000" stroke="none" 
 	d="
M328.351327 343.417676 C325.362871 344.111974 322.234899 344.159638 319.306192 345.073742 C316.377484 345.987847 313.515280 348.083140 312.959142 351.100362 C312.285479 354.755198 315.391463 358.262062 318.954069 359.320117 C322.516674 360.378173 326.342611 359.601479 329.945343 358.689360 C333.470985 357.796758 336.964817 356.778524 340.417983 355.637241 C342.907327 354.814505 346.879707 354.937671 346.766071 357.556986 C342.100769 362.884538 336.533779 367.696041 329.822931 369.957094 C323.112082 372.218148 315.095820 371.520825 309.778408 366.843969 C303.343875 361.184567 302.381920 351.578224 302.841881 343.021326 C303.330026 333.940103 304.910033 324.918069 307.537035 316.211420 C308.115044 314.295728 308.794036 312.312542 310.239970 310.929340 C311.531713 309.693639 313.283635 309.084466 314.982833 308.529230 C322.152431 306.186470 329.433431 304.184666 336.792993 302.532847 C339.061058 302.023791 341.568541 301.578266 343.603492 302.701756 C345.638443 303.825246 346.384106 307.231317 344.366875 308.386321 C338.860824 311.538915 333.075582 314.203690 327.101060 316.339232 C323.939654 317.469250 320.668582 318.479868 317.939415 320.435138 C315.210248 322.390407 313.065325 325.537498 313.310323 328.885842 C313.555320 332.234186 316.922204 335.316948 320.159482 334.427307 C326.646882 332.644496 333.792401 333.381368 339.779440 336.450591 C336.841644 339.909501 332.771737 342.390697 328.351327 343.417676 z"/><path class="selected"  fill="#000000" opacity="1.000000" stroke="none" 
 	d="
M379.244731 91.521296 C378.023316 93.893886 374.812731 94.291646 372.155256 94.049016 C364.745243 93.372476 357.610627 90.000955 352.383270 84.705605 C351.311637 88.730912 352.088197 92.999890 351.747457 97.151443 C351.406716 101.302996 349.322286 105.911937 345.264747 106.854205 C340.219416 105.528609 339.574803 98.772790 339.566933 93.556229 C339.555020 85.653267 338.581019 77.752208 336.673275 70.082954 C335.961791 67.222743 335.355320 63.619855 337.694410 61.826625 C339.420471 60.503364 342.027718 60.999803 343.718166 62.368268 C345.408615 63.736732 346.397962 65.767268 347.334984 67.729997 C349.353863 68.789683 351.833991 66.612417 352.003084 64.338606 C352.172177 62.064794 350.883550 59.971813 349.703837 58.020637 C348.524125 56.069461 347.364718 53.852071 347.817812 51.617453 C348.311273 49.183745 350.683183 47.467316 353.130789 47.048191 C355.578394 46.629067 358.080540 47.264262 360.429473 48.069835 C365.197352 49.704992 370.360637 53.023743 370.483162 58.062730 C370.579633 62.030178 367.486970 65.240217 364.822743 68.181619 C362.158517 71.123021 359.571977 75.043816 360.878980 78.791040 C364.632551 80.103580 368.386121 81.416121 372.139692 82.728661 C374.169842 83.438560 376.267092 84.188673 377.820281 85.676312 C379.373470 87.163950 380.229126 89.609116 379.244731 91.521296 z"/><path class="selected"  fill="#000000" opacity="1.000000" stroke="none" 
 	d="
M1141.129049 67.329480 C1145.172421 67.003946 1150.546089 65.125917 1149.926913 61.116996 C1139.636382 55.175877 1129.345850 49.234758 1119.055319 43.293639 C1113.330221 39.988320 1107.432997 36.531307 1103.539859 31.188522 C1101.294498 28.107080 1099.819594 23.893272 1101.597881 20.520642 C1102.618477 18.585021 1104.527824 17.291919 1106.442789 16.233073 C1115.648924 11.142702 1126.821004 9.723927 1137.007276 12.351600 C1139.417700 12.973398 1142.266290 14.527940 1142.000027 17.002992 C1141.683258 19.947547 1137.653683 20.396977 1134.692871 20.331073 C1127.266820 20.165777 1119.805812 21.968492 1113.274463 25.506148 C1111.741049 28.349447 1114.990057 31.336195 1117.790886 32.945871 C1127.068390 38.277787 1136.345895 43.609702 1145.623400 48.941617 C1150.020508 51.468698 1154.541262 54.102743 1157.597842 58.149720 C1160.654422 62.196697 1161.892560 68.064841 1159.198377 72.361593 C1155.794512 77.790165 1148.242045 78.346229 1141.834682 78.308921 C1137.977508 78.286462 1134.026888 78.247668 1130.412907 76.899546 C1126.798926 75.551424 1123.530117 72.603797 1122.915223 68.795885 C1128.986498 68.307083 1135.057773 67.818282 1141.129049 67.329480 z"/><path class="selected"  fill="#000000" opacity="1.000000" stroke="none" 
 	d="
M553.262266 84.866187 C547.173131 88.887225 540.510522 92.245880 533.330734 93.548548 C526.150945 94.851216 518.382663 93.937249 512.258741 89.969392 C506.327990 86.126698 502.296864 79.489002 501.621797 72.454487 C500.946730 65.419973 503.641939 58.136784 508.733652 53.236318 C513.598276 48.554412 522.071277 46.429777 526.906410 51.142132 C528.573382 52.766775 531.078664 53.058459 533.371550 53.459627 C540.911802 54.778884 548.067077 58.230501 553.793086 63.310724 C558.090125 67.123135 561.778749 73.046038 559.598995 78.360893 C558.432230 81.205787 555.828143 83.171778 553.262267 84.866188 M546.364388 78.336531 C548.492922 77.164642 550.650535 75.386466 550.819862 72.962562 C550.949258 71.110278 549.858116 69.390746 548.603191 68.022222 C545.118030 64.221573 539.967600 62.005324 534.811585 62.087641 C532.065392 62.131485 529.327063 62.792064 526.595047 62.509961 C523.863031 62.227859 520.965318 60.635066 520.388497 57.949778 C517.055474 61.004785 514.550910 64.955113 513.209515 69.272842 C512.378387 71.948099 512.007915 74.923738 513.107149 77.500453 C515.651090 83.463706 523.864449 83.876180 530.281770 82.954220 C535.833617 82.156599 541.450991 81.041660 546.364388 78.336532 z"/><path class="selected"  fill="#000000" opacity="1.000000" stroke="none" 
 	d="
M1320.700836 44.930758 C1320.533478 38.742279 1325.185703 33.479971 1330.162602 29.798156 C1333.381312 27.417017 1337.059620 25.329747 1341.061925 25.222655 C1345.064229 25.115563 1349.361514 27.566875 1350.176218 31.486845 C1351.127782 36.065318 1356.395064 38.055180 1360.834292 39.525262 C1365.273520 40.995345 1370.421359 43.809327 1370.335204 48.484845 C1370.247136 53.264235 1364.780046 55.860659 1360.139082 57.005988 C1356.231727 57.970272 1352.267601 58.704457 1348.274076 59.203475 C1342.465874 59.929251 1336.387422 60.124349 1330.947819 57.962712 C1325.508215 55.801075 1320.859074 50.781992 1320.700837 44.930760 M1349.858139 42.977199 C1346.254242 41.862156 1342.821764 39.698881 1339.054952 39.905090 C1335.288140 40.111300 1331.629453 44.623983 1334.021449 47.541130 C1340.296207 49.847313 1347.374775 49.894433 1353.679679 47.671991 C1354.534511 46.794095 1354.126565 45.231236 1353.203982 44.424837 C1352.281400 43.618437 1351.028723 43.339376 1349.858140 42.977197 z"/><path class="selected"  fill="#000000" opacity="1.000000" stroke="none" 
 	d="
M1199.080686 314.437850 C1201.039069 314.535409 1203.096348 314.663025 1204.752525 315.712721 C1206.408702 316.762417 1207.443862 319.066989 1206.436566 320.749290 C1205.901131 321.643529 1204.930835 322.171406 1203.991651 322.623385 C1196.992063 325.991909 1188.785047 327.464797 1181.377894 325.124871 C1172.968926 322.468471 1166.799625 315.445254 1161.082628 308.730857 C1159.779205 307.200036 1158.421035 305.550771 1158.153814 303.558055 C1157.886594 301.565339 1159.249813 299.222586 1161.260221 299.246717 C1164.094822 299.280745 1165.099455 295.641896 1166.340481 293.093180 C1168.497540 288.663186 1173.661740 286.185885 1178.585914 286.359819 C1183.510089 286.533754 1188.133203 289.006386 1191.780608 292.319116 C1194.812290 295.072621 1197.392852 299.559267 1195.296619 303.077604 C1193.658315 305.827350 1190.059977 306.468264 1186.976530 307.327041 C1183.893084 308.185819 1180.421882 310.331109 1180.682209 313.521309 C1186.815034 313.826822 1192.947860 314.132336 1199.080686 314.437850 M1180.789528 296.349869 C1179.972745 296.491965 1180.081680 297.867304 1180.830090 298.223964 C1181.578501 298.580624 1182.458446 298.260642 1183.223073 297.940219 C1183.899102 296.962649 1184.093556 295.668058 1183.734552 294.535024 C1182.531392 294.757800 1181.447008 295.551949 1180.871505 296.631773 z"/><path class="selected"  fill="#000000" opacity="1.000000" stroke="none" 
 	d="
M600.471743 318.064396 C601.223163 315.454529 605.225252 316.311536 607.279498 318.088081 C613.109804 323.130220 615.837582 330.781523 618.326510 338.076786 C619.721058 342.164327 620.462866 347.910686 616.523331 349.680663 C613.603941 350.992303 610.176021 348.727522 608.678320 345.899072 C607.180619 343.070623 606.907068 339.764302 605.819044 336.754412 C603.005785 328.971869 594.165856 323.885944 586.023786 325.365496 C582.672123 325.974550 579.116497 328.103914 578.720914 331.487418 C578.163220 336.257491 584.013817 339.204230 588.816050 339.260579 C593.618282 339.316928 598.836153 338.092450 602.944965 340.578868 C603.452597 345.174655 598.954199 348.883076 594.486275 350.073286 C586.532427 352.192111 577.659862 349.090997 572.042364 343.074615 C566.558714 337.201586 564.422395 327.059158 570.106996 321.380407 C572.903789 318.586487 576.926400 317.476275 580.778562 316.588086 C587.404681 315.060308 594.984366 314.048399 600.471743 318.064396 z"/><path class="selected"  fill="#000000" opacity="1.000000" stroke="none" 
 	d="
M1348.129301 1015.031604 C1349.078076 1015.035296 1350.061181 1015.046275 1350.921617 1015.446072 C1353.407145 1016.600959 1353.399840 1020.449050 1351.567996 1022.487668 C1349.736152 1024.526287 1346.875841 1025.217290 1344.198885 1025.805104 C1341.216175 1026.460057 1338.233466 1027.115009 1335.250756 1027.769962 C1330.987539 1028.706092 1326.212306 1029.563023 1322.514681 1027.243771 C1318.180356 1024.525162 1317.232487 1018.323947 1318.940120 1013.500960 C1320.647753 1008.677974 1324.353513 1004.882539 1327.851526 1001.148758 C1331.349538 997.414977 1334.863239 993.354948 1336.014519 988.369794 C1332.574495 988.040460 1328.917124 987.625986 1326.228136 985.455370 C1323.539149 983.284753 1322.533924 978.690857 1325.151468 976.434600 C1326.233836 975.501626 1327.698946 975.144986 1329.121574 975.010490 C1335.592259 974.398748 1342.210353 978.137061 1345.191629 983.912523 C1348.172906 989.687986 1347.441935 997.134134 1343.543189 1002.334495 C1340.384814 1006.547312 1335.198872 1009.758911 1334.507436 1014.978592 C1339.048059 1014.996263 1343.588680 1015.013933 1348.129301 1015.031604 z"/><path class="selected"  fill="#000000" opacity="1.000000" stroke="none" 
 	d="
M300.747654 702.011513 C301.527093 707.782338 303.133602 713.440813 305.502829 718.760277 C306.719662 721.492350 308.165728 724.253596 308.202976 727.244167 C308.240224 730.234739 306.277339 733.518991 303.294086 733.731378 C299.018002 733.130235 297.219048 728.050034 296.296694 723.831559 C295.396510 719.714481 294.496326 715.597403 293.596142 711.480324 C293.153534 709.456016 292.712869 707.331678 293.280745 705.338880 C293.848621 703.346081 295.788138 701.579318 297.824757 701.961300 C295.139265 700.532893 295.803600 696.076104 298.348478 694.410028 C300.893356 692.743951 304.230716 693.102573 307.199498 693.764799 C315.285361 695.568459 322.961536 699.184866 329.500770 704.271396 C332.750741 706.799377 335.776408 709.757966 337.633074 713.432989 C340.346671 718.804193 340.228236 725.510705 337.326683 730.782746 C334.425130 736.054787 328.822630 739.743056 322.833007 740.324302 C319.716942 740.626692 316.149212 739.892608 314.454865 737.260027 C312.760517 734.627447 314.664311 730.129022 317.766907 730.547577 C323.388935 731.306016 328.155252 725.069657 327.453659 719.440252 C326.752066 713.810847 322.133842 709.355893 317.017794 706.904673 C311.901745 704.453453 306.206380 703.555773 300.747654 702.011513 z"/><path class="selected"  fill="#000000" opacity="1.000000" stroke="none" 
 	d="
M788.809205 68.574811 C789.523882 71.155495 792.077878 72.889898 794.701426 73.426260 C797.324974 73.962623 800.038188 73.524380 802.679783 73.085438 C804.434998 72.793781 806.552493 72.176864 806.932055 70.438538 C807.380150 68.386343 804.978759 66.789990 804.645432 64.716059 C804.218792 62.061536 807.182126 60.193760 809.757053 59.420288 C814.756075 57.918652 820.100085 57.578504 825.249152 58.434211 C827.573178 58.820433 830.278080 59.875341 830.684266 62.195960 C831.212830 65.215737 827.539025 67.090051 824.555806 67.796333 C821.572587 68.502616 817.837399 69.923320 817.861010 72.988915 C817.900376 78.099948 812.758457 81.693427 807.874521 83.200537 C799.866606 85.671661 790.548584 84.900910 783.944132 79.741999 C777.339679 74.583088 774.403079 64.628844 778.480384 57.307045 C780.320779 54.002168 783.310643 51.500377 786.386849 49.298963 C790.990144 46.004723 795.943981 43.200651 801.137656 40.949411 C804.532866 39.477728 808.536066 38.263974 811.814867 39.979422 C815.093669 41.694870 815.647594 47.630488 812.075136 48.595289 C803.747061 50.844420 795.116172 54.433687 790.446661 61.687034 C789.129829 63.732522 788.159944 66.230344 788.809205 68.574811 z"/><path class="selected"  fill="#000000" opacity="1.000000" stroke="none" 
 	d="
M1060.686152 1017.394608 C1052.333613 1021.146375 1042.071897 1024.532137 1034.550359 1019.310343 C1029.959945 1016.123471 1027.707995 1010.275903 1027.831181 1004.689053 C1027.954367 999.102204 1030.165609 993.749398 1033.008495 988.938362 C1034.397304 986.588070 1036.247460 984.127522 1038.943748 983.700097 C1041.137906 983.352272 1043.274966 984.463189 1045.195536 985.579756 C1049.965603 988.352946 1054.581391 991.391479 1059.014442 994.676625 C1062.217625 997.050368 1065.395514 999.631669 1067.428574 1003.061203 C1068.731473 1005.259041 1069.524629 1007.929471 1068.808671 1010.382110 C1067.772430 1013.931942 1064.059464 1015.879396 1060.686154 1017.394609 M1042.381574 998.323872 C1039.509774 999.556909 1039.392052 1003.522018 1039.739453 1006.627969 C1039.865953 1007.758944 1040.072543 1009.030822 1041.006825 1009.680610 C1041.677812 1010.147279 1042.555064 1010.161307 1043.371805 1010.130680 C1048.355523 1009.943801 1053.298232 1008.724693 1057.797252 1006.572676 C1057.790577 1005.594546 1057.783900 1004.616417 1057.777223 1003.638287 C1054.530113 1001.849158 1051.169979 1000.265191 1047.723511 998.898967 C1046.012893 998.220854 1044.072431 997.597885 1042.381575 998.323871 z"/><path class="selected"  fill="#000000" opacity="1.000000" stroke="none" 
 	d="
M402.567524 92.806040 C405.838783 91.549920 409.235707 90.621319 412.691056 90.038617 C413.107596 86.438727 409.206133 84.030062 405.920429 82.501383 C397.665090 78.660574 388.890850 73.510408 386.204918 64.810513 C385.783318 63.444924 385.531703 61.968873 385.915503 60.592182 C387.040300 56.557536 392.365510 55.833733 396.553424 55.903791 C403.157440 56.014268 410.945722 56.779511 414.274540 62.484263 C415.097596 63.894772 415.486394 65.849969 414.380143 67.051288 C411.410699 70.275920 405.888670 62.566696 402.380808 65.195527 C401.357336 66.322393 401.696350 68.205453 402.688620 69.359889 C403.680889 70.514326 405.141628 71.130992 406.528060 71.759586 C411.190467 73.873466 415.599124 76.546350 419.629487 79.702724 C424.427369 83.460181 429.027551 89.804979 426.114074 95.157530 C424.283921 98.519829 420.228449 99.863802 416.548440 100.918335 C414.130959 101.611081 411.713478 102.303828 409.295998 102.996575 C406.757876 103.723892 404.099683 104.457363 401.511765 103.934172 C398.923846 103.410981 396.471772 101.193583 396.641563 98.558773 C396.829038 95.649526 399.845985 93.851075 402.567523 92.806041 z"/><path class="selected"  fill="#000000" opacity="1.000000" stroke="none" 
 	d="
M1141.050453 986.887889 C1142.576923 988.489253 1143.372681 992.108736 1145.321044 991.060710 C1146.407301 989.252059 1145.640254 986.593151 1143.757555 985.640992 C1147.643253 982.409416 1153.563957 984.855937 1157.544852 987.969488 C1161.855165 991.340685 1165.616143 995.412650 1168.635007 999.976664 C1170.115203 1002.214470 1171.466188 1004.848462 1170.899426 1007.470967 C1170.062299 1011.344496 1165.670900 1013.128093 1161.881762 1014.288885 C1154.514504 1016.545825 1146.765958 1018.825463 1139.217683 1017.278266 C1131.669407 1015.731070 1124.596690 1008.938773 1125.593301 1001.298286 C1126.216721 996.518827 1129.684388 992.670531 1133.017626 989.188950 C1135.184975 986.925146 1138.888035 984.619378 1141.050453 986.887891 M1138.087800 1005.900369 C1143.753907 1007.858806 1149.967320 1006.481998 1155.798852 1005.091501 C1156.430187 1004.940962 1157.082414 1004.780713 1157.596606 1004.384668 C1159.255254 1003.107130 1158.467269 1000.414513 1157.158406 998.780471 C1154.166022 995.044654 1148.888425 993.063361 1144.341890 994.559923 C1139.795356 996.056486 1136.652145 1001.334236 1138.087801 1005.900368 z"/><path class="selected"  fill="#000000" opacity="1.000000" stroke="none" 
 	d="
M509.572434 311.807308 C509.266465 309.067790 513.285475 307.663729 515.648587 309.082981 C518.011700 310.502233 519.056713 313.310864 520.238447 315.801262 C521.420182 318.291660 523.299255 320.911328 526.047285 321.127922 C527.941217 321.277199 529.688386 320.224115 531.470579 319.566050 C538.305804 317.042179 546.192245 320.549199 550.944595 326.072367 C555.696945 331.595536 558.004577 338.752378 560.198584 345.700511 C560.932234 348.023882 561.572934 350.843307 559.955782 352.665699 C557.514186 355.417170 552.876507 352.932671 550.889538 349.836878 C548.801087 346.582971 547.747412 342.789963 546.160328 339.264243 C544.573245 335.738523 542.212671 332.269021 538.624440 330.828835 C535.036209 329.388648 530.114606 330.900772 529.073759 334.624503 C527.894732 338.842581 531.695922 344.226690 528.573860 347.298336 C526.988750 348.857853 524.275838 348.702678 522.400468 347.507831 C520.525099 346.312985 519.316093 344.328376 518.277870 342.361967 C513.304090 332.941550 510.754864 322.394307 509.572434 311.807308 z"/><path class="selected"  fill="#000000" opacity="1.000000" stroke="none" 
 	d="
M733.005325 79.075904 C728.595093 75.267600 726.908817 68.977421 727.540693 63.184835 C728.172569 57.392248 730.831721 52.011941 733.924398 47.073451 C734.767909 45.726502 735.710032 44.343672 737.127605 43.625156 C739.257704 42.545490 741.828447 43.249918 744.061492 44.096386 C751.623976 46.963066 758.631414 51.286046 764.586382 56.758465 C767.500331 59.436288 770.356009 62.925486 769.927139 66.859684 C769.524616 70.552192 766.372991 73.271331 763.336453 75.410508 C758.840789 78.577610 753.960444 81.407830 748.568032 82.486449 C743.175621 83.565069 737.167517 82.670022 733.005325 79.075903 M760.185809 64.921728 C760.717886 61.853641 757.440106 59.621004 754.641010 58.256701 C752.357197 57.143553 750.073385 56.030404 747.789573 54.917255 C746.289466 54.186091 744.104655 53.637153 743.268896 55.081601 C741.551923 58.049055 740.194249 61.224179 739.234940 64.515608 C738.629042 66.594461 738.266319 69.087045 739.697829 70.711705 C741.415978 72.661680 744.527828 72.138282 747.034353 71.451432 C749.348424 70.817318 751.662494 70.183206 753.976564 69.549093 C756.613091 68.826620 759.718690 67.615246 760.185809 64.921728 z"/><path class="selected"  fill="#000000" opacity="1.000000" stroke="none" 
 	d="
M596.681046 37.075665 C599.314309 36.429413 602.173192 35.798634 604.661378 36.875964 C607.155970 37.956068 608.754044 40.804713 608.375526 43.496615 C598.746987 48.609146 588.177173 51.942098 577.357577 53.277426 C575.717683 55.883051 577.235332 59.582185 579.864021 61.184847 C582.492710 62.787509 585.800576 62.755728 588.838783 62.257898 C590.828205 61.931919 592.878271 61.429912 594.828223 61.941531 C596.778175 62.453149 598.527697 64.443020 597.932895 66.369227 C597.654382 67.271157 596.935836 67.962518 596.203535 68.558149 C592.345673 71.696015 587.285586 73.316201 582.322623 73.002668 C579.819537 72.844537 578.844502 76.286272 579.277599 78.756670 C579.710696 81.227069 580.546030 84.157306 578.789590 85.947658 C577.155656 87.613141 574.154073 86.972183 572.577983 85.251857 C571.001894 83.531531 570.477638 81.123291 570.013407 78.836794 C569.174829 74.706502 568.336251 70.576211 567.497673 66.445920 C567.037203 64.177945 566.574763 61.854889 566.909836 59.565026 C567.730600 53.955996 573.161062 48.523215 570.560566 43.486123 C579.267393 41.349304 587.974220 39.212485 596.681046 37.075665 z"/><path class="selected"  fill="#000000" opacity="1.000000" stroke="none" 
 	d="
M1566.370307 18.148196 C1568.470109 16.898695 1571.053100 16.883432 1573.496458 16.903998 C1576.519190 16.929442 1579.541921 16.954884 1582.564653 16.980327 C1585.077757 17.001481 1587.755521 17.071404 1589.836095 18.481138 C1591.906586 19.884038 1593.016795 22.631574 1592.354861 25.043400 C1591.692927 27.455225 1589.219237 29.280309 1586.728232 29.056803 C1585.329739 28.931325 1584.029010 28.236790 1582.629835 28.119179 C1581.230659 28.001567 1579.539494 28.834461 1579.552816 30.238507 C1585.232571 33.910858 1590.497337 38.224510 1595.214933 43.071163 C1597.397900 45.313848 1599.562613 47.880158 1599.930438 50.988162 C1600.426994 55.183911 1597.319453 59.186062 1593.452801 60.888965 C1589.586149 62.591868 1585.158478 62.426974 1580.984289 61.773504 C1578.756998 61.424822 1576.448925 60.898451 1574.730363 59.439359 C1573.011801 57.980267 1572.113560 55.325117 1573.284281 53.398510 C1574.696721 51.074115 1577.975638 51.036959 1580.695454 51.056886 C1583.415270 51.076814 1586.817300 50.336773 1587.417294 47.683887 C1584.741212 43.717385 1580.238465 41.458279 1575.946724 39.342738 C1571.654984 37.227198 1567.168448 34.905705 1564.585179 30.878142 C1562.001910 26.850578 1562.258413 20.595005 1566.370307 18.148196 z"/><path class="selected"  fill="#000000" opacity="1.000000" stroke="none" 
 	d="
M1084.985508 1018.384163 C1076.066011 1015.677231 1071.734113 1003.415684 1076.973680 995.706479 C1079.871288 991.443100 1084.709220 988.995957 1089.337521 986.726295 C1091.134785 985.844938 1093.023612 984.942664 1095.024455 985.002484 C1097.317530 985.071042 1099.366399 986.388198 1101.230017 987.726041 C1106.471789 991.488974 1111.331525 995.783774 1115.710400 1000.523107 C1117.987674 1002.987839 1120.283947 1006.199644 1119.329909 1009.416893 C1118.471973 1012.310071 1115.362494 1013.830154 1112.519024 1014.840707 C1106.869023 1016.848685 1100.985432 1018.198534 1095.025187 1018.854249 C1091.671577 1019.223196 1088.213951 1019.363946 1084.985508 1018.384163 M1086.409655 1005.670974 C1087.322866 1005.899608 1087.531298 1007.385548 1086.716234 1007.856607 C1092.796500 1009.505816 1099.227367 1007.844327 1105.305568 1006.187525 C1106.353044 1005.902003 1107.650171 1005.262345 1107.491474 1004.188313 C1107.440018 1003.840080 1107.230078 1003.538314 1107.019073 1003.256551 C1104.252749 999.562582 1099.915846 996.753735 1095.304927 996.947054 C1090.694007 997.140372 1086.209184 1001.060359 1086.409655 1005.670973 M1083.566406 1008.661283 C1083.103672 1007.118912 1081.345412 1006.093412 1079.775105 1006.450017 C1079.490847 1009.370286 1080.906254 1012.395164 1083.330418 1014.048105 C1085.015227 1012.965052 1085.129672 1010.138938 1083.537953 1008.923200 z"/><path class="selected"  fill="#000000" opacity="1.000000" stroke="none" 
 	d="
M1443.895472 973.746136 C1447.137417 973.667242 1450.641536 974.680831 1452.532478 977.315366 C1453.631919 978.847151 1454.067024 980.743944 1454.462825 982.587440 C1456.322784 991.250445 1457.856867 999.983410 1459.060741 1008.761666 C1459.575420 1012.514534 1459.912409 1016.729487 1457.563143 1019.700995 C1455.213878 1022.672504 1449.188464 1022.294158 1448.730903 1018.533899 C1447.398841 1007.586948 1446.732560 996.559022 1446.736965 985.531324 C1443.415307 984.498815 1439.537842 987.561779 1439.773255 991.032235 C1443.446976 992.260371 1444.307833 997.825953 1441.602313 1000.598084 C1438.896793 1003.370214 1434.022388 1003.154658 1431.015911 1000.712191 C1428.009434 998.269724 1426.736813 994.156501 1426.929173 990.287710 C1427.360567 981.611398 1435.211014 973.957477 1443.895471 973.746137 z"/><path class="selected"  fill="#000000" opacity="1.000000" stroke="none" 
 	d="
M12.578239 35.573123 C13.952703 52.609864 15.327166 69.646604 16.701629 86.683345 C17.035958 90.827409 16.501032 96.272336 12.466894 97.277711 C9.867248 97.925590 7.176729 96.035384 5.991116 93.632837 C4.805504 91.230290 4.758890 88.446801 4.717468 85.767959 C4.379553 63.914394 2.803707 42.080033 0.000000 20.404434 C3.550705 18.867122 7.824440 21.118456 9.864034 24.406448 C11.903628 27.694441 12.267096 31.716437 12.578239 35.573123 z"/><path class="selected"  fill="#000000" opacity="1.000000" stroke="none" 
 	d="
M978.478258 984.840246 C978.261543 982.812964 979.900812 981.067518 981.603995 979.946801 C987.692504 975.940481 997.438001 977.037119 1000.507441 983.647646 C1002.627585 988.213709 1001.040432 993.590781 999.078961 998.227222 C996.668113 1003.925884 993.717730 1009.396152 990.280125 1014.541034 C989.115351 1016.284289 991.245122 1018.460519 993.276706 1018.978502 C997.613276 1020.084174 1002.072708 1018.217918 1006.468088 1017.375903 C1010.863467 1016.533887 1016.429266 1017.357815 1018.139990 1021.493244 C1014.153447 1026.832631 1007.033805 1028.623016 1000.436882 1029.562266 C993.608751 1030.534432 985.508676 1030.495362 981.225676 1025.089404 C977.595747 1020.507746 978.309599 1013.762532 980.720252 1008.437429 C983.130904 1003.112326 986.972771 998.539565 989.447582 993.243975 C990.509675 990.971310 991.172341 987.928408 989.325136 986.231092 C987.424038 987.288818 985.418787 988.370002 983.243413 988.396602 C981.068039 988.423203 978.709503 987.003457 978.478259 984.840246 M987.772122 1021.634769 C985.815411 1020.476963 983.858699 1019.319157 981.901988 1018.161350 C981.116738 1021.725381 984.991701 1024.411308 988.282182 1025.989807 C989.203070 1024.653941 989.007943 1022.664436 987.845062 1021.532942 M983.557723 1014.648807 C984.046630 1016.221737 986.470135 1016.707283 987.527254 1015.444098 C988.580987 1013.826528 988.179982 1011.186952 986.354152 1010.559880 C984.528322 1009.932808 982.633565 1012.876081 984.255859 1013.922522 M984.569729 986.113717 C984.671493 984.938363 984.773257 983.763008 984.875022 982.587654 C984.114579 982.125390 983.184725 981.949214 982.307889 982.101269 C981.115011 983.508287 982.455644 986.112247 984.293876 985.958720 M997.108145 993.398728 C996.569899 992.655671 996.031654 991.912614 995.493408 991.169556 C994.035204 991.806508 995.493700 994.574395 996.843500 993.731712 z"/><path class="selected"  fill="#000000" opacity="1.000000" stroke="none" 
 	d="
M1356.172646 1005.091223 C1353.688696 997.124969 1360.038046 988.449565 1367.963406 985.838078 C1371.751521 984.589855 1376.552035 984.673543 1378.998907 987.823255 C1381.931630 991.598376 1384.864353 995.373496 1387.797076 999.148616 C1390.558036 1002.702636 1393.295067 1007.973380 1390.205217 1011.245503 C1389.197617 1012.312540 1387.765715 1012.852899 1386.375294 1013.322530 C1380.847464 1015.189619 1374.935280 1016.486489 1369.191616 1015.460212 C1363.447951 1014.433935 1357.909464 1010.661358 1356.172646 1005.091224 M1372.351636 997.382200 C1369.853534 997.839619 1367.879330 1000.286725 1367.960608 1002.825060 C1370.613580 1002.988493 1373.266553 1003.151926 1375.919526 1003.315359 C1376.713732 1003.364287 1377.557801 1003.402635 1378.253512 1003.016444 C1379.889785 1002.108145 1379.492264 999.411776 1377.980070 998.309204 C1376.467875 997.206633 1374.438947 997.232590 1372.568849 997.304202 z"/><path class="selected"  fill="#000000" opacity="1.000000" stroke="none" 
 	d="
M360.787076 354.791282 C356.280054 346.495469 353.506705 337.262875 352.696270 327.856656 C355.687788 325.737671 360.112999 327.241901 362.428972 330.083650 C364.744946 332.925399 365.511743 336.682614 366.291916 340.264597 C367.072090 343.846580 368.040073 347.601054 370.615737 350.209737 C372.377975 351.994566 375.439967 350.506957 377.136215 348.659300 C381.510800 343.894234 383.265958 336.861878 381.643501 330.600051 C381.003627 328.130477 384.497038 326.222717 386.795872 327.328879 C389.094707 328.435042 390.118780 331.137690 390.588135 333.645267 C392.352352 343.070782 388.945048 353.301205 381.881601 359.786612 C378.922210 362.503824 375.010833 364.659629 371.041131 364.041000 C366.322473 363.305655 363.066879 358.987585 360.787075 354.791283 z"/><path class="selected"  fill="#000000" opacity="1.000000" stroke="none" 
 	d="
M876.072220 62.686973 C877.016334 64.927655 877.974560 67.229203 878.071167 69.658745 C878.322723 75.985089 872.522470 81.194063 866.384200 82.745690 C858.090321 84.842210 848.698207 81.617020 843.442004 74.867491 C838.185800 68.117962 837.359753 58.221938 841.424211 50.694388 C842.006296 49.616339 842.797055 48.498860 843.991767 48.227429 C845.951558 47.782176 847.544479 49.796257 848.395669 51.616835 C850.576602 56.281550 851.603026 61.480862 851.358397 66.624418 C851.223078 69.469629 853.947125 71.817065 856.764912 72.233728 C859.582699 72.650392 862.401063 71.623111 865.008484 70.476425 C867.198231 69.513423 869.748160 67.309035 868.544815 65.241591 C866.193641 61.202085 864.196102 56.956833 862.582517 52.570267 C862.003361 50.995820 861.491641 49.165745 862.328564 47.711831 C863.430215 45.798026 866.366598 45.738050 868.167807 47.015521 C869.969015 48.292993 870.909572 50.434378 871.767008 52.469344 C873.202079 55.875221 874.637149 59.281097 876.072220 62.686973 z"/><path class="selected"  fill="#000000" opacity="1.000000" stroke="none" 
 	d="
M721.763643 338.151407 C715.507034 334.746183 713.210295 326.708009 713.768375 319.606653 C713.952875 317.258957 714.453654 314.779841 716.090674 313.086949 C718.792855 310.292538 723.336393 310.733578 727.118167 311.632851 C731.852334 312.758596 736.492604 314.278936 740.975060 316.172931 C746.036673 318.311639 751.744924 322.716181 750.226620 327.997161 C749.460730 330.661092 747.024091 332.451443 744.690752 333.947653 C737.814698 338.356791 728.938128 342.056195 721.763643 338.151407 M725.226438 325.702811 C726.294862 327.373923 728.635984 327.586733 730.610615 327.399704 C733.995991 327.079056 737.477683 326.005311 739.807762 323.528557 C736.644074 322.552642 733.909090 320.247323 730.619520 319.873063 C727.329951 319.498804 723.443033 322.913402 725.226440 325.702810 z"/><path class="selected"  fill="#000000" opacity="1.000000" stroke="none" 
 	d="
M403.072947 354.364216 C399.057993 349.546368 398.944187 342.541015 400.323735 336.423142 C400.869298 334.003742 401.727483 331.463317 403.717687 329.983379 C406.978924 327.558286 411.571755 329.012618 415.333364 330.551135 C419.874456 332.408467 424.415548 334.265797 428.956640 336.123128 C431.871774 337.315433 434.918794 338.604215 436.878376 341.069907 C438.837958 343.535599 439.214575 347.562902 436.824531 349.614071 C432.006506 353.748960 426.687795 357.607060 420.516206 359.097744 C414.344617 360.588427 407.137571 359.241662 403.072949 354.364214 M409.814957 342.549449 C409.126288 345.631841 412.075743 348.565461 415.192837 349.074511 C418.309930 349.583560 421.425210 348.386448 424.357085 347.211921 C426.727476 346.262328 429.097864 345.312736 431.468253 344.363143 C429.445549 341.145819 425.380842 340.004644 421.685338 339.118216 C419.441742 338.580053 417.125932 338.038524 414.848600 338.408802 C412.571268 338.779081 410.318038 340.297726 409.814958 342.549449 z"/><path class="selected"  fill="#000000" opacity="1.000000" stroke="none" 
 	d="
M1070.960685 473.522873 C1072.219154 465.416006 1073.003972 457.215378 1072.818545 449.013509 C1072.578687 438.404048 1070.720972 427.902183 1069.849369 417.325865 C1069.607827 414.394917 1069.452968 411.369517 1070.400352 408.585407 C1071.347735 405.801298 1073.651424 403.285962 1076.572717 402.947072 C1078.421422 405.591092 1078.912085 408.921711 1079.351791 412.117836 C1082.516187 435.119111 1085.574541 459.219478 1077.560588 481.010499 C1076.698730 483.354008 1072.867945 482.930307 1071.533138 480.820064 C1070.198330 478.709822 1070.577656 475.990287 1070.960684 473.522874 z"/><path class="selected"  fill="#000000" opacity="1.000000" stroke="none" 
 	d="
M1404.266402 22.155427 C1408.823008 24.807039 1410.334834 30.554794 1411.421182 35.713626 C1412.540287 41.028036 1413.534106 46.993668 1410.564017 51.540526 C1406.413318 57.894753 1396.377841 57.661576 1390.347672 53.052721 C1384.317504 48.443866 1381.317049 40.991853 1378.626578 33.894963 C1377.736451 31.546998 1376.938763 28.632443 1378.598630 26.748272 C1380.570476 24.509965 1384.432768 25.717539 1386.400796 27.959203 C1388.889651 30.794107 1389.721424 34.673955 1391.347203 38.078059 C1392.972983 41.482163 1396.174396 44.780526 1399.910996 44.261969 C1400.940739 37.430532 1401.212278 30.485084 1400.719026 23.594104 C1401.901484 23.114545 1403.083943 22.634986 1404.266402 22.155427 z"/><path class="selected"  fill="#000000" opacity="1.000000" stroke="none" 
 	d="
M1121.068492 295.774589 C1134.961603 293.395378 1149.980013 300.917739 1156.394931 313.468755 C1157.455995 315.544764 1158.285787 318.089376 1157.168145 320.135482 C1155.330116 323.500425 1149.952584 322.490952 1147.336877 319.687512 C1144.721170 316.884073 1143.498776 312.979443 1140.787940 310.267882 C1137.863850 307.343007 1133.636924 306.211312 1129.591130 305.352970 C1128.962546 305.219613 1128.313339 305.089688 1127.682218 305.210461 C1125.526415 305.622998 1124.950930 308.579334 1125.706486 310.640113 C1126.462041 312.700892 1128.020492 314.450291 1128.441642 316.604428 C1128.925258 319.078061 1127.643641 321.794402 1125.426943 322.993980 C1123.210245 324.193558 1120.235249 323.780706 1118.428967 322.022843 C1117.039752 320.670867 1116.398378 318.747230 1115.804379 316.901989 C1114.534496 312.957130 1113.248378 308.861914 1113.731004 304.745899 C1114.213630 300.629884 1116.983742 296.474108 1121.068492 295.774590 z"/><path class="selected"  fill="#000000" opacity="1.000000" stroke="none" 
 	d="
M404.466466 459.784466 C407.960814 463.635058 411.527699 467.651295 413.176368 472.582766 C413.998465 475.041805 414.268024 477.889539 412.937389 480.114876 C411.606754 482.340212 408.234848 483.391674 406.311829 481.652505 C405.097223 480.554022 404.808366 478.797873 404.399904 477.211970 C402.475590 469.740585 396.084734 463.608261 388.540296 461.993937 C386.513873 465.503431 388.090633 469.868961 388.931288 473.833332 C389.771942 477.797702 388.996593 483.099808 385.069422 484.099939 C381.678825 482.069140 380.776827 477.647462 380.200956 473.737390 C379.239420 467.208694 378.277882 460.679998 377.316345 454.151303 C376.983994 451.894689 376.655343 449.562080 377.248423 447.359577 C377.841502 445.157073 379.609828 443.102232 381.883496 442.920021 C383.604695 448.088591 385.325894 453.257162 387.047094 458.425733 C387.080809 454.633377 391.746734 452.293726 395.437906 453.164559 C399.129078 454.035393 401.917824 456.975993 404.466466 459.784466 z"/><path class="selected"  fill="#000000" opacity="1.000000" stroke="none" 
 	d="
M1285.397957 998.250596 C1286.571297 1000.478837 1287.155888 1003.196890 1286.177937 1005.517536 C1285.059302 1008.172022 1282.248835 1009.641284 1279.602451 1010.778952 C1276.333310 1012.184340 1272.800411 1013.433900 1269.285083 1012.881755 C1265.769754 1012.329611 1262.392994 1009.372584 1262.582780 1005.819222 C1262.654081 1004.484267 1263.297349 1003.107178 1264.485486 1002.494382 C1265.572044 1001.933976 1266.882859 1002.096018 1268.066177 1001.788737 C1269.249495 1001.481456 1270.413489 1000.215619 1269.821519 999.145930 C1267.249618 998.051322 1264.539294 997.282436 1261.775731 996.863436 C1258.286227 996.334374 1254.528953 996.297216 1251.603055 994.323471 C1248.677158 992.349726 1247.490559 987.390579 1250.436950 985.447561 C1256.542977 985.257905 1262.674586 985.910405 1268.603954 987.380817 C1275.277071 989.035669 1282.194592 992.167219 1285.397957 998.250596 z"/><path class="selected"  fill="#000000" opacity="1.000000" stroke="none" 
 	d="
M432.837797 459.389361 C431.495285 463.404980 436.626670 467.923498 434.469294 471.566747 C432.966862 474.103970 428.850842 473.691379 426.857775 471.518251 C424.864707 469.345123 424.418603 466.211529 424.063791 463.284259 C423.683994 460.150869 417.961859 461.041771 416.672659 458.160740 C416.396472 457.543533 416.385314 456.845100 416.378798 456.168948 C416.339861 452.128392 416.300923 448.087836 416.261985 444.047279 C416.247494 442.543516 416.251572 440.962505 416.980544 439.647167 C417.709517 438.331830 419.428708 437.436260 420.760937 438.133885 C421.268926 442.948525 427.062816 445.154765 431.896036 445.435482 C436.729255 445.716200 442.185542 445.345805 445.713996 448.660745 C446.723422 451.557502 443.343190 454.040579 440.389144 454.867473 C437.435098 455.694367 433.810447 456.480051 432.837799 459.389363 z"/><path class="selected"  fill="#000000" opacity="1.000000" stroke="none" 
 	d="
M455.387907 320.929409 C457.489345 326.643197 459.452799 332.407732 461.275982 338.216296 C462.193060 341.138059 463.078034 344.086195 463.489083 347.120790 C463.964057 350.627304 462.770754 355.349480 459.235109 355.492508 C456.426032 355.606146 454.608544 352.632711 453.520747 350.040314 C448.529843 338.146151 445.496941 325.433021 444.580885 312.566747 C446.878307 311.358299 449.838146 312.325834 451.679151 314.155915 C453.520156 315.985995 454.491871 318.493098 455.387907 320.929409 z"/><path class="selected"  fill="#000000" opacity="1.000000" stroke="none" 
 	d="
M766.868200 319.772747 C766.778190 314.453580 766.142725 309.160461 765.508052 303.878526 C765.110554 300.570432 770.127495 298.957766 772.821401 300.918470 C775.515307 302.879174 776.303281 306.478005 776.999483 309.736347 C777.695686 312.994689 778.762343 316.597619 781.681516 318.203831 C783.411731 319.155848 785.548800 319.234093 787.185461 320.339228 C788.822121 321.444363 789.331971 324.473521 787.455719 325.089688 C783.868968 326.267584 783.835014 331.238776 784.260828 334.989896 C784.686641 338.741016 783.743151 343.883198 779.973257 344.083485 C776.856902 344.249052 775.038269 340.721045 773.945192 337.797987 C772.852115 334.874929 770.746397 331.412627 767.666886 331.918293 C764.312285 332.469129 760.797666 329.677843 760.574596 326.285645 C760.351527 322.893447 763.470354 319.665948 766.868200 319.772747 z"/><path class="selected"  fill="#000000" opacity="1.000000" stroke="none" 
 	d="
M1249.918097 1003.757521 C1248.982836 1005.075813 1247.261194 1005.530608 1245.674220 1005.837395 C1236.468699 1007.616964 1226.909051 1007.511418 1217.732202 1005.589463 C1214.665455 1004.947178 1211.402490 1003.947463 1209.552051 1001.418958 C1207.701612 998.890453 1208.345278 994.460446 1211.368402 993.636927 C1212.203632 993.409403 1213.087343 993.480922 1213.949900 993.554185 C1223.164395 994.336835 1232.378890 995.119484 1241.593385 995.902133 C1243.919862 996.099737 1246.367392 996.339492 1248.280469 997.678027 C1250.193547 999.016563 1251.269096 1001.853225 1249.918096 1003.757521 z"/><path class="selected"  fill="#000000" opacity="1.000000" stroke="none" 
 	d="
M477.858738 330.308242 C480.906425 332.589315 482.514377 336.646671 481.856659 340.396217 C481.128531 344.547158 486.764744 347.700410 490.523288 345.794147 C494.281831 343.887885 495.614429 338.927345 494.660204 334.822477 C494.357347 333.519648 495.766884 332.306137 497.103284 332.362036 C498.439683 332.417934 499.580150 333.346476 500.444553 334.367208 C505.098057 339.862316 503.819714 349.077667 498.261610 353.655741 C492.703506 358.233816 484.011986 358.033633 478.192240 353.793133 C472.372494 349.552632 469.510802 341.896128 470.314548 334.740341 C470.581160 332.366673 471.621157 329.618022 473.959550 329.130882 C475.330102 328.845365 476.737930 329.469361 477.858738 330.308242 z"/><path class="selected"  fill="#000000" opacity="1.000000" stroke="none" 
 	d="
M1405.161516 982.913368 C1407.108725 981.713707 1409.794828 982.589873 1411.335130 984.280517 C1412.875433 985.971161 1413.540405 988.261256 1414.131212 990.470725 C1416.324634 998.673584 1418.146417 1006.975807 1419.589099 1015.343401 C1419.859161 1016.909744 1420.096733 1018.609926 1419.354432 1020.015398 C1417.954809 1022.665443 1413.788292 1022.522558 1411.592055 1020.483387 C1409.395818 1018.444216 1408.660250 1015.319682 1408.031422 1012.389451 C1406.525518 1005.372191 1405.019614 998.354931 1403.513710 991.337671 C1402.871166 988.343527 1402.554296 984.519658 1405.161516 982.913368 z"/><path class="selected"  fill="#000000" opacity="1.000000" stroke="none" 
 	d="
M362.094584 505.402650 C359.034913 506.062515 355.050708 505.098606 354.323260 502.054296 C353.653247 499.250344 356.196678 496.717768 358.738680 495.357883 C361.280682 493.997999 364.265756 492.959540 365.710990 490.465075 C367.215426 487.868425 366.503661 484.552309 365.275701 481.814056 C363.570768 478.012188 360.943528 474.627826 357.683130 472.033447 C355.296274 470.134170 352.327834 466.768928 354.563411 464.693710 C356.037056 463.325776 358.417945 464.242487 360.113042 465.323922 C367.334826 469.931263 373.428074 477.106786 374.537175 485.600998 C375.646275 494.095211 370.468372 503.596711 362.094583 505.402648 z"/><path class="selected"  fill="#000000" opacity="1.000000" stroke="none" 
 	d="
M937.653061 323.468088 C936.303914 325.117183 933.708092 325.302447 931.802918 324.348495 C929.897744 323.394542 928.586097 321.558975 927.625823 319.656979 C924.354953 313.178434 924.483802 305.096739 927.959536 298.725757 C931.875340 297.813933 935.657001 301.222623 936.991054 305.015411 C938.325107 308.808200 938.001390 312.953629 938.432975 316.950962 C938.674773 319.190515 939.079399 321.724637 937.653060 323.468087 z"/><path class="selected"  fill="#000000" opacity="1.000000" stroke="none" 
 	d="
M978.546938 299.355646 C985.411979 304.972482 990.686801 312.511990 993.610361 320.886382 C994.485961 323.394492 995.159784 326.085912 994.642248 328.691569 C994.124712 331.297226 992.119331 333.767998 989.478209 334.053944 C986.630018 334.362308 984.055435 332.087534 982.864164 329.482127 C981.672893 326.876720 981.482626 323.944950 980.901017 321.139776 C979.942797 316.518166 977.867704 312.132167 974.902123 308.460275 C973.527282 306.757995 971.923214 305.134638 971.270781 303.046031 C970.618347 300.957425 971.364707 298.212591 973.452927 297.558921 C975.247033 296.997320 977.091937 298.165195 978.546938 299.355646 z"/><path class="selected"  fill="#000000" opacity="1.000000" stroke="none" 
 	d="
M650.701857 345.807462 C648.272829 346.870516 645.633679 344.983095 643.677209 343.193547 C635.743183 335.936428 628.209945 328.241178 621.123269 320.154550 C619.666091 318.491761 618.133014 316.278796 619.022988 314.254894 C620.402311 311.118160 625.148328 312.550249 627.924908 314.558290 C636.063315 320.444049 643.457227 327.358103 649.875034 335.083876 C651.212139 336.693484 652.546755 338.420297 652.970931 340.469385 C653.395107 342.518473 652.618844 344.968501 650.701859 345.807462 z"/><path class="selected"  fill="#000000" opacity="1.000000" stroke="none" 
 	d="
M278.720503 483.093284 C276.831954 468.209377 277.839328 452.963483 281.669818 438.457462 C283.019562 447.492806 283.367432 456.677449 282.705006 465.789004 C282.301182 471.343527 282.153128 478.205831 286.986762 480.972017 C293.421258 484.654341 302.636067 477.197237 308.534478 481.688449 C308.903682 483.688719 307.050014 485.517327 305.076419 486.009577 C303.102825 486.501826 301.035151 486.072724 299.007037 485.917357 C294.166318 485.546518 289.214908 486.808053 285.141791 489.449983 C283.621387 490.436159 281.460007 489.645970 280.356900 488.208152 C279.253793 486.770333 278.948618 484.891097 278.720502 483.093284 z"/><path class="selected"  fill="#000000" opacity="1.000000" stroke="none" 
 	d="
M330.498720 481.686545 C329.907553 483.195186 327.611920 483.287086 326.380204 482.234302 C325.148489 481.181519 324.715667 479.491906 324.348307 477.913767 C323.159324 472.805992 322.036332 467.148690 324.563019 462.553161 C328.160572 467.707249 330.291643 473.873147 330.644426 480.148698 C330.673563 480.666984 330.688113 481.203223 330.498721 481.686545 z"/><path class="selected"  fill="#000000" opacity="1.000000" stroke="none" 
 	d="
M553.089314 304.774996 C556.304612 304.105167 559.831253 306.294432 560.720586 309.456061 C561.609919 312.617690 559.791215 316.285911 556.761433 317.553676 C555.138748 318.232667 553.149739 318.227776 551.725239 317.195818 C549.845461 315.834041 549.431638 313.183850 547.882989 311.454779 C549.789832 311.565305 549.442148 308.512084 550.233727 306.773790 C550.733555 305.676176 551.908603 305.020970 553.089315 304.774997 z"/><path class="selected"  fill="#000000" opacity="1.000000" stroke="none" 
 	d="
M960.870509 310.154013 C960.760220 309.114607 960.521470 308.035323 960.863239 307.047537 C961.930727 303.962272 966.754802 305.137085 968.924062 307.576901 C972.399037 311.485283 973.712186 317.203661 972.290445 322.236509 C971.457224 325.186054 969.200465 328.189504 966.135580 328.165866 C962.621694 328.138766 960.398166 324.168621 960.253104 320.657627 C960.108042 317.146633 961.241290 313.648387 960.870509 310.154013 z"/><path class="selected"  fill="#000000" opacity="1.000000" stroke="none" 
 	d="
M358.816498 457.228711 C359.345053 458.451394 357.520431 459.237868 356.208963 459.471053 C352.989929 460.043405 349.833377 461.905182 348.502483 464.891564 C347.171588 467.877946 348.253975 471.959833 351.246177 473.277589 C352.602256 473.874802 354.178940 473.883830 355.479300 474.594235 C356.779659 475.304640 357.592806 477.290832 356.446777 478.230101 C352.247745 482.038641 344.573567 480.709969 341.899353 475.711427 C340.610500 473.302351 340.435726 470.440725 340.723974 467.723796 C341.186013 463.368771 342.938555 458.930081 346.452673 456.316520 C349.966791 453.702960 355.451346 453.532639 358.451543 456.723023 C358.594693 456.875248 358.733583 457.036905 358.816498 457.228711 z"/><path class="selected"  fill="#000000" opacity="1.000000" stroke="none" 
 	d="
M459.797455 1065.961294 C461.163236 1066.258011 462.297308 1067.176179 463.374967 1068.066152 C464.868205 1069.299328 466.461173 1070.698155 466.787610 1072.607061 C467.462337 1076.552667 461.932379 1079.093993 458.283683 1077.447762 C455.685456 1076.275485 453.697373 1073.552096 453.925895 1070.710830 C454.154416 1067.869565 457.011990 1065.356150 459.797455 1065.961296 z"/><path class="selected"  fill="#000000" opacity="1.000000" stroke="none" 
 	d="
M942.795329 285.213175 C945.372035 286.483634 945.316928 290.753447 942.911845 292.324770 C940.506761 293.896093 936.945299 292.725379 935.488692 290.249137 C934.032086 287.772894 934.481787 284.479341 936.101703 282.106716 C938.317737 283.297132 940.533773 284.487545 942.749808 285.677958 z"/><path class="selected"  fill="#000000" opacity="1.000000" stroke="none" 
 	d="
M322.206299 449.912757 C323.931284 449.012536 324.054025 446.133523 322.411918 445.089753 C320.769811 444.045982 318.215143 445.379191 318.132264 447.323183 C318.049386 449.267174 320.481313 450.812978 322.206299 449.912757 z"/><path class="selected"  fill="#000000" opacity="1.000000" stroke="none" 
 	d="
M417.198186 1080.884139 C413.914050 1082.116450 409.828706 1079.292459 409.821111 1075.784741 C409.813515 1072.277024 413.886589 1069.435366 417.176032 1070.653441 C420.465474 1071.871515 421.705493 1076.680601 419.415186 1079.337409 C418.820660 1080.027070 418.050693 1080.564252 417.198186 1080.884139 z"/><path class="selected"  fill="#000000" opacity="1.000000" stroke="none" 
 	d="
M434.901923 942.845834 C434.418208 943.469776 433.785785 944.049388 433.004327 944.161668 C431.979210 944.308956 431.038411 943.627930 430.226873 942.984532 C428.296178 941.453848 426.196619 939.607002 426.099423 937.145068 C425.958610 933.578347 430.930790 931.337398 433.882382 933.344743 C436.833974 935.352088 437.088949 940.024796 434.901921 942.845832 z"/><path class="selected"  fill="#000000" opacity="1.000000" stroke="none" 
 	d="
M390.022472 939.036081 C390.319581 935.422745 394.942506 932.965789 398.103583 934.741195 C401.487222 936.641599 401.419615 942.461354 397.992742 944.282643 C394.565869 946.103933 389.704449 942.903822 390.022474 939.036082 z"/></svg>