<?xml version="1.0" encoding="utf-8"?><!DOCTYPE svg PUBLIC "-//W3C//DTD SVG 1.1//EN" "http://www.w3.org/Graphics/SVG/1.1/DTD/svg11.dtd"><svg version="1.1" id="Contours" xmlns="http://www.w3.org/2000/svg" xmlns:xlink="http://www.w3.org/1999/xlink" x="0px" y="0px" width="2281.815918px" height="2281.815918px" viewBox="-0.000007 0.000004 2281.815918 1816.446167" enable-background="new 0 0 2281.815918 2281.815918" xml:space="preserve" stroke="black" fill="none" stroke-linecap='round' stroke-linejoin='round'><path class="selected"  fill="#000000" opacity="1.000000" stroke="none" 
 	d="
M1957.640946 644.256365 C1360.923396 655.328505 764.205845 666.400644 167.488294 677.472784 C156.531884 677.676081 141.214965 683.660139 145.000648 693.943760 C131.221663 686.882741 127.442674 665.813318 137.908789 654.403724 C150.637977 665.780338 169.486048 666.079127 186.555142 665.754090 C781.209087 654.430226 1375.863032 643.106369 1970.516976 631.782513 C1983.347019 631.538193 2001.186469 624.979446 1997.385028 612.723071 C2013.527244 620.300351 2017.907898 645.069026 2005.343886 657.723390 C1994.290009 644.658636 1974.751626 643.938875 1957.640946 644.256364 z"/><path class="selected"  fill="#000000" opacity="1.000000" stroke="none" 
 	d="
M33.646673 1086.057840 C21.676848 915.346806 9.706356 743.915931 22.539360 573.267616 C48.212469 984.076415 73.885578 1394.885213 99.558688 1805.694012 C818.203255 1762.061936 1537.188194 1724.035991 2256.426004 1691.620804 C2218.856319 1707.967603 2176.911076 1710.301169 2135.993069 1712.402546 C1460.866880 1747.074185 785.740691 1781.745825 110.614502 1816.417464 C90.946590 1817.427525 83.119115 1791.623187 81.741599 1771.977590 C65.709977 1543.337666 49.678325 1314.697753 33.646673 1086.057840 M1081.473621 1755.797250 C1080.612736 1755.833191 1080.585028 1757.438194 1081.444159 1757.503829 C1082.307549 1757.442142 1082.281604 1755.827149 1081.416677 1755.793223 z"/><path class="selected"  fill="#000000" opacity="1.000000" stroke="none" 
 	d="
M2171.761637 478.157065 C2152.000256 479.884974 2132.134380 479.902562 2112.297743 479.978247 C1440.524570 482.541301 770.325720 553.125248 98.547855 553.640455 C77.532839 553.656572 54.736039 553.010295 38.316761 539.893952 C735.523036 539.245586 1430.956163 463.096275 2128.157336 460.353244 C2144.879891 460.287452 2165.435826 462.677004 2171.761637 478.157064 z"/><path class="selected"  fill="#000000" opacity="1.000000" stroke="none" 
 	d="
M2171.924218 465.740848 C2178.859943 461.500557 2185.978165 470.953165 2188.615242 478.642780 C2253.864609 668.908716 2271.579162 872.183640 2275.298222 1073.292499 C2279.017283 1274.401357 2269.256196 1475.832101 2281.752931 1676.586767 C2282.242142 1684.445733 2279.966680 1695.385328 2272.102538 1694.987912 C2265.335648 1694.645948 2263.010936 1685.918382 2262.576883 1679.156774 C2238.756645 1308.088741 2293.661295 927.985277 2198.983406 568.409159 C2189.970964 534.180903 2179.628055 500.287172 2171.924218 465.740848 z"/><path class="selected"  fill="#000000" opacity="1.000000" stroke="none" 
 	d="
M102.250699 60.992328 C91.071963 87.542296 86.384651 116.294405 81.785573 144.732292 C81.392075 147.165451 78.644893 148.340520 76.282552 149.043691 C70.008768 150.911144 61.608615 151.699463 58.464225 145.958337 C41.423287 114.844471 22.100791 84.980512 0.703158 56.685501 C-1.771693 53.412899 2.769971 48.629660 6.816075 49.310726 C10.862179 49.991791 13.635338 53.638207 15.982533 57.003543 C33.246840 81.756583 50.511148 106.509622 67.775456 131.262662 C72.773711 100.931605 80.936581 71.123013 92.088734 42.477157 C94.141875 37.203379 103.078208 39.344690 105.002320 44.666899 C106.926432 49.989108 104.446813 55.776466 102.250701 60.992328 z"/><path class="selected"  fill="#000000" opacity="1.000000" stroke="none" 
 	d="
M184.503470 1680.617903 C184.559027 1698.714081 181.768124 1720.517680 165.362784 1728.155716 C135.785494 1418.380452 120.152697 1107.274112 118.527583 796.094278 C118.508974 792.530910 118.635955 788.584128 121.087829 785.998349 C124.899002 781.979023 132.202418 784.068410 135.341807 788.631772 C138.481195 793.195134 138.643614 799.103988 138.695631 804.642700 C140.737628 1022.070813 143.987481 1239.837421 166.451696 1456.111579 C174.211971 1530.823610 184.272868 1605.504280 184.503470 1680.617903 z"/><path class="selected"  fill="#000000" opacity="1.000000" stroke="none" 
 	d="
M739.924129 107.546118 C751.915276 112.018808 765.107703 113.222660 777.710349 110.994234 C781.979254 110.239397 786.424391 108.956890 789.359551 105.766566 C792.068477 102.822144 793.076299 98.644400 793.060109 94.643445 C793.020441 84.840265 787.426037 75.746631 780.190447 69.132242 C772.954858 62.517853 764.134071 57.951165 755.571322 53.177988 C747.713981 48.798027 739.710267 43.924937 734.794543 36.391180 C729.878819 28.857422 729.017446 17.925050 735.181750 11.373470 C738.537636 7.806748 743.363473 6.059464 748.074397 4.721301 C752.166540 3.558904 756.508802 2.610806 760.641131 3.621079 C764.773461 4.631351 768.579940 8.160773 768.546735 12.414677 C768.513529 16.668580 763.220933 20.315873 759.705413 17.920479 C755.447689 15.019363 748.901828 16.361963 746.129908 20.704906 C743.357989 25.047848 744.896599 31.550429 749.320841 34.190650 C762.449571 42.025381 775.104774 50.653501 787.194435 60.012276 C791.037493 62.987239 794.867091 66.080389 797.781855 69.969302 C802.303006 76.001474 804.322683 83.557484 805.291068 91.033455 C806.605501 101.180934 805.592530 112.804751 797.881662 119.530933 C791.110968 125.437000 781.268903 125.797585 772.285133 125.672023 C760.124901 125.502067 746.536869 124.359300 738.466457 115.261577 C737.267973 113.910533 736.183557 112.259453 736.286623 110.456384 C736.389689 108.653314 738.231991 106.914954 739.924124 107.546117 z"/><path class="selected"  fill="#000000" opacity="1.000000" stroke="none" 
 	d="
M1107.326948 56.004060 C1113.738139 59.675428 1119.372013 65.111981 1122.044540 71.999644 C1124.717067 78.887307 1124.005905 87.298435 1119.201853 92.911222 C1116.438927 96.139273 1112.572196 98.251948 1108.566416 99.668912 C1098.749253 103.141536 1087.600071 102.676671 1078.106063 98.398867 C1074.748394 96.885971 1070.157216 95.182490 1067.956539 98.135423 C1061.090642 107.348284 1049.142438 112.501975 1037.729631 111.173379 C1026.316824 109.844783 1015.871999 102.084259 1011.306014 91.540582 C1009.910377 88.317807 1009.037714 84.887630 1008.459446 81.423572 C1005.973400 66.531140 1009.052688 50.775398 1016.962768 37.914775 C1021.814856 30.025996 1031.109325 22.589475 1039.564250 26.369665 C1044.570925 28.608144 1047.240894 34.002641 1049.516889 38.992373 C1050.329318 40.773487 1050.301810 43.855062 1048.355460 43.645001 C1047.401078 43.541998 1046.848751 42.558536 1046.294747 41.774615 C1043.010211 37.126971 1035.482997 37.585550 1031.120180 41.239945 C1026.757363 44.894340 1024.794275 50.603920 1023.136912 56.048359 C1021.051568 62.898719 1019.122319 69.978251 1019.674004 77.117700 C1020.225690 84.257149 1023.719509 91.562850 1030.077509 94.857076 C1037.141243 98.516959 1045.681788 96.512148 1053.360186 94.430490 C1056.882848 93.475476 1060.405510 92.520462 1063.928171 91.565449 C1066.750474 90.800306 1070.319948 88.670806 1069.218567 85.961970 C1062.742536 70.034226 1072.777799 49.564015 1089.334954 44.928001 C1092.645562 44.001027 1096.274247 43.657577 1099.461036 44.947455 C1102.647824 46.237333 1105.203211 49.500933 1104.814798 52.916858 C1104.655425 54.318462 1106.102819 55.303064 1107.326946 56.004063 M1091.243507 58.060043 C1086.546205 61.678573 1082.299955 66.281815 1080.657143 71.979146 C1079.014331 77.676476 1080.584056 84.583265 1085.510429 87.883152 C1090.831383 91.447346 1098.067368 89.895363 1103.825305 87.091401 C1108.120355 84.999826 1112.366030 81.968783 1113.911213 77.448325 C1115.456396 72.927867 1112.924241 66.883487 1108.176065 66.357225 C1103.469020 65.835522 1098.982080 63.526179 1095.821991 59.998817 C1094.595637 58.629930 1092.699472 56.938452 1091.243508 58.060042 z"/><path class="selected"  fill="#000000" opacity="1.000000" stroke="none" 
 	d="
M1527.148639 34.058526 C1524.684171 36.557875 1522.219704 39.057225 1519.755237 41.556574 C1517.684650 43.656467 1515.535996 45.888106 1514.757586 48.732567 C1513.979176 51.577028 1515.140032 55.182835 1517.953718 56.066040 C1533.964889 61.091879 1550.616528 66.491804 1562.598611 78.241117 C1560.870600 83.179985 1554.131686 84.383759 1549.195415 82.648344 C1544.259143 80.912930 1540.237776 77.232868 1535.442047 75.140159 C1527.988895 71.887829 1518.200243 72.063474 1513.654381 65.320902 C1512.195122 63.156479 1508.417319 64.710588 1507.713549 67.224325 C1507.009779 69.738062 1508.183237 72.341865 1509.114221 74.780601 C1510.375447 78.084407 1511.232061 81.708555 1510.406686 85.147243 C1509.581311 88.585931 1506.666281 91.717094 1503.131075 91.807295 C1499.774242 91.892943 1496.833690 89.264320 1495.466987 86.197110 C1494.100283 83.129901 1493.970570 79.677864 1493.806999 76.323927 C1492.840943 56.515431 1489.944607 36.801545 1485.172348 17.552251 C1484.588047 15.195427 1483.989004 12.636187 1484.954977 10.408425 C1485.920951 8.180663 1489.217716 6.901730 1490.834106 8.713721 C1492.029823 10.054137 1494.211323 9.160684 1495.759703 8.250209 C1499.310213 6.162444 1503.035710 4.372372 1506.884283 2.904934 C1512.509891 0.759923 1518.611440 -0.703403 1524.539327 0.349541 C1530.467215 1.402485 1536.154241 5.442152 1537.724436 11.254469 C1540.018539 19.746441 1533.324765 27.794983 1527.148639 34.058526 M1518.633073 20.085812 C1519.578352 19.012820 1520.573634 17.822266 1520.645075 16.394065 C1520.716517 14.965863 1519.292419 13.437338 1517.973038 13.988788 C1513.756044 15.751330 1509.539051 17.513872 1505.322057 19.276414 C1503.071835 20.216921 1500.488601 21.579693 1500.222038 24.003945 C1499.858264 27.312294 1504.151113 30.604326 1502.277730 33.355314 C1501.638687 34.293721 1502.840434 35.592194 1503.970726 35.485312 C1505.101017 35.378430 1505.963900 34.466667 1506.714402 33.614770 C1510.687292 29.105114 1514.660183 24.595463 1518.633073 20.085812 z"/><path class="selected"  fill="#000000" opacity="1.000000" stroke="none" 
 	d="
M681.845476 21.040007 C680.539755 16.980242 679.772144 11.447628 683.530921 9.433133 C693.337550 15.805529 696.432693 28.497146 698.730673 39.964343 C701.510159 53.834319 704.298832 68.076922 701.964049 82.028645 C699.629266 95.980367 691.018528 109.794353 677.565420 114.166499 C662.119445 119.186310 644.876457 110.193974 635.367311 97.027624 C625.858165 83.861274 622.386590 67.400051 619.375519 51.440412 C617.696608 42.541649 616.089043 33.629425 614.553031 24.704887 C614.119612 22.186637 613.713952 19.483343 614.793939 17.167514 C615.873925 14.851685 619.085980 13.378679 621.077790 14.979345 C628.849900 21.225202 629.510219 32.534772 630.644608 42.440810 C632.012028 54.381791 634.985434 66.137836 639.459631 77.293033 C643.588443 87.587107 650.160293 98.325939 660.905617 101.074218 C670.270480 103.469424 680.514789 98.650508 686.260638 90.877292 C692.006487 83.104076 693.762045 72.951623 693.045019 63.311938 C692.327993 53.672252 689.347021 44.363924 686.387405 35.161840 C684.873428 30.454562 683.359452 25.747284 681.845476 21.040007 z"/><path class="selected"  fill="#000000" opacity="1.000000" stroke="none" 
 	d="
M1332.523151 67.960210 C1340.075100 70.761548 1347.046994 75.116191 1352.877531 80.673551 C1354.680688 82.392227 1356.493493 84.525513 1356.358824 87.012898 C1356.108917 91.628764 1349.454044 93.068873 1345.406425 90.836062 C1341.358805 88.603252 1338.786681 84.395136 1335.033467 81.696608 C1331.397176 79.082145 1326.899085 78.045828 1322.756260 76.344351 C1318.613435 74.642874 1314.451623 71.839684 1313.253351 67.524343 C1310.507374 75.117941 1314.426862 83.447211 1314.086746 91.514891 C1313.869456 96.669087 1310.250848 102.704764 1305.163810 101.847448 C1302.399599 101.381597 1300.329859 98.912331 1299.440258 96.254044 C1298.550657 93.595758 1298.602968 90.730685 1298.535142 87.928315 C1298.363277 80.827353 1297.362060 73.775627 1296.362503 66.743267 C1294.771735 55.551456 1293.180967 44.359644 1291.590199 33.167832 C1290.890445 28.244726 1295.214827 23.984498 1299.728161 21.897287 C1304.892065 19.509217 1310.677911 18.761436 1316.367242 18.744111 C1325.415718 18.716557 1335.969342 21.664836 1339.122767 30.146085 C1341.018744 35.245382 1339.578266 41.105675 1336.660250 45.697270 C1333.742235 50.288865 1329.503630 53.859041 1325.333191 57.352606 C1323.329250 59.031301 1323.852260 62.442869 1325.651755 64.339079 C1327.451251 66.235288 1330.072187 67.051047 1332.523148 67.960214 M1321.770983 34.902024 C1319.284957 30.249120 1311.677928 30.826100 1308.437317 34.988824 C1305.196705 39.151548 1305.454761 45.095077 1307.014326 50.134679 C1307.143726 50.552823 1307.294957 50.990312 1307.626831 51.275703 C1308.494088 52.021489 1309.803432 51.263751 1310.656386 50.501649 C1314.279433 47.264486 1317.579390 43.665910 1320.491364 39.776683 C1321.557428 38.352849 1322.609197 36.470843 1321.770983 34.902024 z"/><path class="selected"  fill="#000000" opacity="1.000000" stroke="none" 
 	d="
M434.634474 105.104941 C430.003230 106.527388 425.069504 106.956310 420.262271 106.354411 C417.321038 112.511241 417.976191 120.235020 421.912419 125.808485 C422.257945 126.297729 422.647307 126.788251 423.189534 127.042686 C424.010974 127.428139 424.975312 127.188382 425.848795 126.942689 C432.686522 125.019374 439.524249 123.096059 446.361976 121.172744 C449.294085 120.348001 452.090170 123.659471 451.849815 126.695866 C451.609460 129.732261 449.379174 132.219612 447.050903 134.183440 C439.657678 140.419404 429.981496 143.885524 420.310310 143.762229 C416.641738 143.715459 412.749056 143.066653 410.008755 140.627111 C406.368662 137.386531 405.766880 132.011870 405.407392 127.151581 C403.961316 107.600620 402.515241 88.049658 401.069165 68.498697 C400.868527 65.786067 400.838101 62.637872 402.906225 60.871101 C405.348666 58.784555 403.274219 54.279989 405.342180 51.821792 C406.280380 50.706542 407.818230 50.346113 409.245133 50.049540 C418.153615 48.197971 427.062098 46.346400 435.970580 44.494830 C439.388278 43.784483 442.973529 43.079016 446.321895 44.065777 C449.670260 45.052538 452.619825 48.337785 451.959443 51.765488 C451.346761 54.945602 448.111111 56.834095 445.129091 58.097448 C436.100020 61.922677 426.280069 63.869364 416.474553 63.777863 C414.487656 63.759322 414.134017 66.605567 414.472492 68.563509 C415.275024 73.205835 416.077555 77.848160 416.880087 82.490485 C417.646326 86.922876 420.065111 92.618842 424.498378 91.857683 C428.426001 91.183339 432.718986 90.869035 436.155201 92.887297 C439.591417 94.905560 441.337874 100.109130 438.589079 102.994452 C437.546699 104.088605 436.079070 104.661245 434.634474 105.104941 z"/><path class="selected"  fill="#000000" opacity="1.000000" stroke="none" 
 	d="
M187.683198 592.334396 C188.933038 592.726076 190.189146 593.378935 191.479648 593.155064 C192.215117 593.027477 192.867989 592.625079 193.544165 592.308885 C197.299485 590.552824 201.874592 591.514455 205.381050 593.725999 C208.887507 595.937543 211.545263 599.236512 214.135000 602.473708 C216.071942 604.894905 218.102920 607.565122 218.152313 610.665364 C218.209195 614.235598 215.595871 617.296464 212.744120 619.445258 C202.715077 627.002137 187.698751 627.071061 177.600762 619.606562 C175.893760 618.344736 173.191462 617.012007 172.017366 618.780498 C167.949970 624.907070 160.612326 628.110235 153.372993 629.402763 C148.075521 630.348587 142.462703 630.414433 137.475086 628.394168 C132.487468 626.373904 128.247710 621.968976 127.506342 616.639045 C128.002570 614.742779 128.498798 612.846513 128.995027 610.950248 C130.497449 605.208958 132.444327 598.866769 137.609797 595.944850 C141.877573 593.530724 147.146232 594.174111 151.997158 594.888559 C157.268156 595.664874 162.991729 596.675382 166.539712 600.650038 C167.872912 602.143565 168.882019 604.040555 170.666887 604.947357 C172.451754 605.854159 175.318080 604.812388 175.076494 602.825008 C174.293146 596.380898 181.488706 590.393145 187.683198 592.334396 M160.009097 606.930356 C158.652318 604.254890 154.845770 603.581861 152.153017 604.903998 C149.460264 606.226136 147.756899 608.981311 146.691932 611.785738 C146.336714 612.721138 146.043370 613.800772 146.502672 614.689699 C147.264305 616.163745 149.451661 616.035601 150.942135 615.306644 C152.432609 614.577686 153.876924 613.438996 155.530226 613.578588 C158.768243 613.851983 161.478814 609.828532 160.009095 606.930357 M201.217001 603.003179 C199.459300 600.967666 196.264708 601.326887 193.628954 601.861327 C192.702465 602.049187 192.315407 603.174223 192.311077 604.119555 C192.296971 607.199352 195.081054 610.192086 198.143522 609.865526 C201.205989 609.538966 203.229877 605.334201 201.216998 603.003179 z"/><path class="selected"  fill="#000000" opacity="1.000000" stroke="none" 
 	d="
M153.510559 66.946142 C156.815250 64.041984 161.758238 64.303174 166.124594 64.841734 C171.600238 65.517117 177.148851 66.394210 182.121032 68.785075 C190.755351 72.936871 196.735464 81.248627 200.549280 90.037466 C203.220217 96.192570 205.010230 102.729148 205.847870 109.386292 C206.309246 113.053071 206.452435 116.928455 204.906706 120.285367 C203.295178 123.785174 200.072801 126.243619 196.847641 128.351703 C190.098696 132.763060 182.663918 136.336460 174.710253 137.658406 C166.756588 138.980351 158.224878 137.895523 151.404561 133.595336 C143.373005 128.531467 138.441390 119.456559 136.793874 110.105926 C135.146357 100.755292 136.468450 91.113456 138.778394 81.904068 C139.728161 78.117494 141.805769 73.594670 145.709585 73.574529 C149.235330 73.556340 150.862122 69.273584 153.510559 66.946142 M181.589667 121.100929 C185.157691 119.359159 188.758200 117.390573 191.238340 114.290014 C197.166189 106.879286 194.708599 95.793409 190.031015 87.536382 C189.060070 85.822435 187.995030 84.139242 186.604651 82.743825 C181.595379 77.716401 173.677378 77.447022 166.580530 77.497159 C161.711662 77.531556 155.888021 78.113549 153.619751 82.421910 C152.872871 83.840542 152.654316 85.468962 152.447628 87.058812 C151.945871 90.918342 151.444115 94.777872 150.942358 98.637402 C149.878102 106.823686 149.309876 116.445094 155.464498 121.946778 C158.919232 125.035001 163.874298 126.022606 168.479452 125.507960 C173.084607 124.993313 177.425518 123.133705 181.589666 121.100929 z"/><path class="selected"  fill="#000000" opacity="1.000000" stroke="none" 
 	d="
M212.352138 1748.407467 C209.312734 1745.707191 207.644418 1741.827321 206.068523 1738.079520 C203.944826 1733.028937 201.777658 1727.706734 202.349759 1722.257773 C202.652053 1719.378573 203.715142 1716.625664 205.054147 1714.058907 C207.633483 1709.114544 211.553225 1704.540366 216.845830 1702.783089 C222.472209 1700.914991 228.680010 1702.518754 234.061931 1705.004889 C241.803754 1708.581162 249.144160 1714.694851 250.838933 1723.052679 C253.016851 1733.793151 244.906649 1744.376762 235.070342 1749.208746 C227.849235 1752.756040 218.366700 1753.750942 212.352138 1748.407468 M220.146353 1719.397161 C219.603942 1719.720848 219.285119 1720.312761 219.038495 1720.894276 C217.230712 1725.156852 218.133184 1730.435417 221.254428 1733.855279 C222.669210 1732.254463 224.704465 1731.380035 226.545389 1730.295961 C228.386313 1729.211887 230.202661 1727.688802 230.598463 1725.589383 C230.994264 1723.489964 229.126070 1720.993928 227.062676 1721.547662 C224.606291 1722.206860 222.330333 1718.093862 220.146353 1719.397165 z"/><path class="selected"  fill="#000000" opacity="1.000000" stroke="none" 
 	d="
M1616.735313 59.685059 C1613.108454 61.752793 1608.664050 62.337338 1604.625873 61.277740 C1600.230657 60.124457 1597.008569 65.429414 1596.045748 69.870243 C1595.082928 74.311072 1593.925273 79.812463 1589.543963 81.017496 C1586.470480 81.862824 1583.157419 79.844182 1581.608880 77.057984 C1580.060340 74.271785 1579.922854 70.926506 1580.129209 67.745579 C1580.620471 60.172880 1582.830273 52.830797 1585.025526 45.566640 C1588.258106 34.869940 1591.490685 24.173240 1594.723265 13.476540 C1595.012320 12.520046 1595.326432 11.520899 1596.038045 10.819444 C1597.914823 8.969459 1601.112845 10.272513 1603.118943 11.981404 C1605.125041 13.690296 1607.251115 15.887703 1609.870926 15.602528 C1613.384328 15.220083 1616.467828 17.907004 1618.615287 20.713902 C1622.276167 25.498958 1624.675898 31.106697 1627.038080 36.649161 C1631.563272 47.266764 1636.088464 57.884368 1640.613657 68.501971 C1641.839339 71.377830 1643.038755 74.801087 1641.420370 77.475725 C1640.025233 79.781416 1636.882689 80.567614 1634.276341 79.882364 C1628.859455 78.458179 1626.213814 72.421690 1624.762234 67.012082 C1624.215401 64.974198 1623.693141 62.844265 1622.352294 61.215118 C1621.011446 59.585971 1618.568320 58.640030 1616.735314 59.685058 M1605.835283 30.421399 C1605.059601 32.461461 1604.283920 34.501522 1603.508239 36.541584 C1602.459580 39.299577 1601.417527 42.429496 1602.666654 45.102676 C1604.021377 48.001832 1608.014958 49.165314 1610.862436 47.705093 C1613.709913 46.244872 1615.122914 42.616989 1614.321893 39.518806 C1613.534994 36.475233 1610.972117 34.039984 1610.573044 30.921764 C1610.422729 29.747243 1610.465445 28.300616 1609.441533 27.705894 C1607.950574 26.839897 1606.448070 28.809754 1605.835283 30.421399 z"/><path class="selected"  fill="#000000" opacity="1.000000" stroke="none" 
 	d="
M2059.582246 561.452183 C2056.880866 558.596489 2052.134161 560.316661 2048.259066 559.656293 C2046.831673 559.413047 2045.483129 558.819564 2044.233906 558.087402 C2035.323696 552.865181 2032.300392 539.711473 2038.036277 531.122931 C2041.017567 526.658941 2046.056581 523.539942 2051.414930 523.218392 C2056.773279 522.896843 2062.295401 525.524593 2065.140048 530.076876 C2065.765048 531.077061 2066.275705 532.221934 2066.166587 533.396280 C2066.072695 534.406767 2065.533960 535.313410 2065.204454 536.273266 C2064.106962 539.470278 2065.396322 542.991529 2067.095141 545.913752 C2070.448652 551.682292 2075.479865 556.553886 2077.566186 562.891816 C2081.281676 574.178917 2072.686331 587.784014 2060.897441 589.275854 C2057.677450 589.683332 2054.181610 589.370548 2051.432881 591.096488 C2047.394188 590.151030 2044.037927 586.747513 2043.149023 582.695996 C2043.251323 579.312680 2046.203567 576.708683 2049.224079 575.181004 C2052.244591 573.653325 2055.635371 572.697344 2058.155713 570.437881 C2060.676055 568.178418 2061.908345 563.911158 2059.582246 561.452183 z"/><path class="selected"  fill="#000000" opacity="1.000000" stroke="none" 
 	d="
M271.521206 112.694658 C269.218423 111.747299 267.235978 110.039418 265.958278 107.902182 C264.631578 105.682984 264.273427 102.413683 266.314588 100.826662 C267.379658 99.998560 268.809558 99.860825 270.154496 99.754675 C277.424726 99.180872 285.014492 98.654034 291.750965 101.447854 C293.547208 102.192810 295.386280 103.322680 296.013429 105.163368 C296.640578 107.004056 295.244584 109.497116 293.320490 109.215489 C290.292592 108.772298 288.491071 112.841149 289.231006 115.810504 C289.970940 118.779860 292.084129 121.298780 292.624083 124.310926 C293.304217 128.105063 291.248637 132.027407 288.183877 134.365206 C285.119117 136.703005 281.209558 137.667964 277.368508 137.991066 C264.019742 139.113939 250.290737 132.597834 242.720270 121.546208 C237.738452 114.273580 235.402392 105.345685 235.509860 96.531033 C235.656384 84.512900 240.415989 72.497801 248.987532 64.072503 C252.165632 60.948627 256.418154 58.177941 260.792373 59.029480 C265.166593 59.881020 268.012486 66.248470 264.502611 68.994321 C251.990133 78.783106 246.856820 96.987593 252.412175 111.871157 C253.552172 114.925365 255.149059 117.904863 257.638984 120.009158 C262.511996 124.127455 269.555606 124.046519 275.928933 123.751030 C278.107974 123.650002 280.653497 123.338762 281.752107 121.454226 C283.063424 119.204816 281.255165 116.271766 278.947935 115.065083 C276.640706 113.858401 273.929126 113.685270 271.521206 112.694658 z"/><path class="selected"  fill="#000000" opacity="1.000000" stroke="none" 
 	d="
M1788.650423 48.065041 C1788.308023 49.835987 1786.708384 51.054932 1785.165766 51.989712 C1778.711118 55.901031 1771.110263 57.894407 1763.566845 57.654177 C1762.343711 57.615225 1761.196486 58.281690 1760.305020 59.120058 C1755.863250 63.297265 1758.042563 72.116294 1763.918757 73.743780 C1767.318851 74.685480 1770.898321 73.489795 1774.256958 72.409519 C1777.615594 71.329243 1781.330898 70.364985 1784.588410 71.719993 C1787.845923 73.075001 1789.752882 77.825029 1787.184084 80.243440 C1781.428419 85.662146 1773.187857 87.604029 1765.290112 87.944152 C1761.178522 88.121221 1756.846933 87.864322 1753.332469 85.723044 C1747.275087 82.032428 1745.564388 74.167422 1744.412222 67.168492 C1743.573544 62.073872 1742.734866 56.979253 1741.896188 51.884633 C1740.570082 43.829088 1739.244966 35.570847 1740.784736 27.553399 C1741.500291 23.827574 1743.003179 19.990957 1746.118696 17.825928 C1748.066955 16.472048 1750.442212 15.913161 1752.754367 15.381518 C1758.793695 13.992872 1764.833024 12.604225 1770.872352 11.215578 C1774.215430 10.446891 1777.727539 9.680080 1781.031786 10.601494 C1784.336032 11.522908 1787.269184 14.749471 1786.604446 18.114760 C1785.923472 21.562263 1782.135274 23.326349 1778.779083 24.367973 C1774.363863 25.738274 1769.850069 26.790843 1765.284143 27.514849 C1762.409104 27.970733 1759.452357 28.314724 1756.843212 29.605476 C1754.234067 30.896227 1751.990006 33.384469 1751.920068 36.294587 C1751.845972 39.377751 1754.279811 42.107079 1757.157367 43.216610 C1760.034923 44.326141 1763.249751 44.110838 1766.285921 43.569490 C1772.347374 42.488735 1778.702600 40.200864 1784.447898 42.414635 C1786.829915 43.332470 1789.135002 45.558727 1788.650423 48.065041 z"/><path class="selected"  fill="#000000" opacity="1.000000" stroke="none" 
 	d="
M1946.463190 571.854514 C1952.767606 569.965082 1960.035137 571.755754 1964.740090 576.357823 C1960.589934 584.135413 1952.152309 589.441167 1943.344509 589.811809 C1940.545759 589.929583 1937.683176 589.568495 1935.144716 588.383970 C1930.677462 586.299410 1927.568247 581.576779 1927.419057 576.649357 C1929.703339 566.784261 1934.438158 557.496288 1941.079606 549.852386 C1941.792516 549.031870 1942.580535 548.036091 1942.322950 546.980090 C1942.009336 545.694385 1940.324199 545.263994 1939.041538 545.589831 C1937.758877 545.915669 1936.634196 546.726824 1935.340777 547.006924 C1931.839961 547.765053 1928.566581 544.003277 1928.805760 540.429308 C1929.044940 536.855340 1931.795101 533.890509 1934.909004 532.120180 C1940.963468 528.678070 1948.905936 528.858258 1954.798071 532.571397 C1956.909415 533.901935 1958.799699 535.701649 1959.814422 537.981659 C1962.214016 543.373375 1959.215426 549.510274 1956.290172 554.635852 C1953.014511 560.375406 1949.738851 566.114960 1946.463190 571.854514 z"/><path class="selected"  fill="#000000" opacity="1.000000" stroke="none" 
 	d="
M1696.235462 24.935773 C1688.973864 30.811625 1683.331317 38.668309 1680.083013 47.426446 C1678.726290 51.084460 1677.772806 54.996191 1678.226820 58.871191 C1678.680834 62.746192 1680.740933 66.588990 1684.190755 68.411209 C1687.124885 69.961033 1690.613864 69.894711 1693.930525 69.790765 C1698.117854 69.659531 1702.305183 69.528296 1706.492512 69.397062 C1709.922125 69.289575 1711.714555 74.088043 1710.069189 77.099117 C1708.423824 80.110190 1704.889578 81.499173 1701.571240 82.372342 C1695.548553 83.957116 1689.170179 84.605061 1683.084255 83.283777 C1676.998332 81.962493 1671.224251 78.510774 1667.931540 73.224726 C1665.484410 69.296155 1664.520681 64.611654 1664.206001 59.993961 C1663.435368 48.685485 1666.405256 37.153296 1672.542307 27.623758 C1675.381158 23.215624 1679.224559 19.012744 1684.327290 17.807396 C1689.430021 16.602047 1695.738214 19.716245 1696.235462 24.935773 z"/><path class="selected"  fill="#000000" opacity="1.000000" stroke="none" 
 	d="
M1209.771460 71.416637 C1211.290137 61.446768 1211.009818 51.205612 1208.948036 41.333747 C1208.530769 39.335862 1210.971186 37.701773 1212.978044 38.073495 C1214.984902 38.445218 1216.501684 40.046585 1217.869388 41.561525 C1221.169582 45.217000 1224.684433 49.454127 1224.361889 54.368365 C1224.154113 57.533998 1227.663067 59.761059 1230.828688 59.969015 C1233.994309 60.176972 1237.146850 59.146189 1240.311003 59.375391 C1243.475156 59.604594 1246.962354 61.890426 1246.690872 65.051233 C1246.438951 67.984297 1243.264910 69.643841 1240.472706 70.576536 C1235.769067 72.147719 1230.901487 73.227623 1225.974706 73.793010 C1224.676415 73.941999 1224.351491 75.659479 1224.364173 76.966230 C1224.403417 81.009739 1224.442661 85.053248 1224.481905 89.096757 C1224.490612 89.993911 1224.556857 91.016199 1225.256644 91.577679 C1225.932488 92.119948 1226.907662 91.994171 1227.757384 91.824485 C1233.734254 90.630927 1239.553236 88.649176 1245.016220 85.946704 C1247.502079 84.716979 1250.630147 87.028656 1251.058319 89.768800 C1251.486490 92.508944 1249.970774 95.202177 1248.075799 97.227218 C1242.435219 103.254949 1233.671488 105.126180 1225.436534 105.705154 C1223.407539 105.847807 1221.318832 105.923973 1219.391458 105.274050 C1213.695336 103.353282 1211.861025 96.357668 1210.884480 90.426267 C1209.848788 84.135606 1208.811399 77.719284 1209.771460 71.416637 z"/><path class="selected"  fill="#000000" opacity="1.000000" stroke="none" 
 	d="
M364.023497 93.433616 C362.305250 85.904643 360.587003 78.375671 358.868755 70.846699 C358.417175 68.867978 357.969925 66.768908 358.612972 64.843875 C359.256020 62.918843 361.434677 61.355626 363.310404 62.130806 C364.172524 62.487094 364.794873 63.244643 365.351075 63.993528 C371.214805 71.888615 373.769673 82.163933 372.286250 91.885824 C371.371207 97.882721 375.236299 103.785111 374.586979 109.816566 C373.777250 117.338063 366.366459 122.336984 359.222126 124.824369 C353.685990 126.751840 347.543623 127.815928 341.999586 125.911304 C339.087715 124.910945 336.499104 123.142617 334.117044 121.191850 C318.387208 108.310038 310.951829 86.101079 315.754783 66.345057 C316.052427 65.120754 316.657457 63.669707 317.911719 63.549970 C318.627072 63.481679 319.290166 63.900218 319.871986 64.321976 C323.411014 66.887398 326.432417 70.373274 327.687443 74.560280 C328.556011 77.457979 328.545326 80.532761 328.819622 83.545374 C329.522461 91.264685 332.174259 98.798832 336.461336 105.256597 C340.367671 111.140842 348.680177 113.619224 355.171051 110.834919 C361.661924 108.050614 365.594962 100.319420 364.023497 93.433616 z"/><path class="selected"  fill="#000000" opacity="1.000000" stroke="none" 
 	d="
M232.756097 773.620139 C231.675813 775.846441 229.862747 777.622656 228.014797 779.268411 C224.444874 782.447726 220.514575 785.374673 215.972867 786.866408 C211.431158 788.358144 206.168959 788.243694 202.160854 785.638413 C195.347550 781.209746 194.415235 771.782092 194.176907 763.659445 C194.070996 760.049809 193.973623 756.369544 194.988649 752.903940 C196.003675 749.438337 198.334634 746.159533 201.735314 744.944601 C208.757456 742.435861 216.934881 743.421824 223.159485 747.527741 C229.384088 751.633658 233.509283 758.762835 233.967149 766.205590 C234.122636 768.733051 233.861562 771.341943 232.756097 773.620139 M214.360891 768.198340 C216.389913 767.937262 217.177194 765.112992 216.188787 763.321863 C215.200379 761.530735 213.179218 760.607532 211.265299 759.885032 C209.221462 761.659040 207.522362 764.324476 208.186621 766.948050 C208.850881 769.571625 212.958465 770.901131 214.329764 768.567909 z"/><path class="selected"  fill="#000000" opacity="1.000000" stroke="none" 
 	d="
M1132.740944 50.506294 C1131.560008 47.188159 1131.368331 42.162329 1134.829016 41.507891 C1136.523332 41.187486 1138.140739 42.287118 1139.432368 43.429512 C1150.437563 53.163171 1153.481969 68.943524 1161.468645 81.275250 C1161.960811 82.035173 1162.507897 82.814449 1163.318912 83.216898 C1164.877328 83.990229 1166.855131 83.010187 1167.752227 81.519576 C1168.649324 80.028966 1168.729794 78.199667 1168.716870 76.459973 C1168.661610 69.021494 1167.338871 61.594033 1164.822774 54.593799 C1163.111271 49.832090 1161.222478 43.589094 1165.211661 40.476293 C1165.540426 40.219756 1165.909534 39.996049 1166.320487 39.925238 C1167.010180 39.806397 1167.693449 40.130946 1168.300685 40.478889 C1171.038137 42.047443 1173.402906 44.331882 1174.833559 47.143863 C1176.026165 49.487953 1176.541216 52.108229 1177.043269 54.689897 C1177.913292 59.163737 1178.784978 63.649645 1179.133022 68.193987 C1179.621996 74.578432 1179.070842 81.000616 1178.187097 87.342480 C1177.253615 94.041264 1170.026794 99.149090 1163.400536 97.793435 C1157.248474 96.534795 1153.043036 90.966020 1149.716658 85.639929 C1142.813332 74.586540 1137.110583 62.783898 1132.740944 50.506294 z"/><path class="selected"  fill="#000000" opacity="1.000000" stroke="none" 
 	d="
M116.275512 621.597190 C116.061865 624.400469 119.302680 626.134488 122.075203 626.600462 C124.847727 627.066436 128.076950 627.240582 129.741606 629.506181 C131.506647 631.908404 130.357390 635.533729 128.070998 637.446439 C125.784607 639.359148 122.723792 639.996761 119.798784 640.571538 C115.592033 641.398183 111.385283 642.224828 107.178532 643.051473 C105.353258 641.233434 102.344566 641.715722 99.853360 641.059376 C94.320965 639.601785 92.154890 632.429022 93.758331 626.937124 C95.361773 621.445225 99.497062 617.137511 102.967232 612.588896 C103.670807 611.666666 104.380999 610.640907 104.384482 609.480945 C104.387965 608.320983 103.317891 607.106809 102.200600 607.418555 C98.093169 608.564612 94.290290 603.474450 95.391367 599.354735 C96.492445 595.235020 100.726601 592.662757 104.906795 591.819909 C111.881254 590.413658 119.510820 592.884830 124.336412 598.113048 C125.176885 599.023646 125.957412 600.053692 126.225291 601.263579 C126.493229 602.473731 126.220863 603.734612 125.878492 604.925847 C124.531565 609.612303 122.071200 613.974756 118.757518 617.551988 C117.659959 618.736840 116.398248 619.986772 116.275512 621.597190 z"/><path class="selected"  fill="#000000" opacity="1.000000" stroke="none" 
 	d="
M1976.732768 578.637059 C1967.952467 575.749167 1962.700817 564.980914 1965.831313 556.284156 C1966.628899 554.068401 1967.867452 552.040788 1969.149828 550.065636 C1971.592559 546.303270 1974.391044 542.521720 1978.414342 540.537937 C1982.437641 538.554154 1987.990563 538.989565 1990.603104 542.636065 C1992.642491 545.482573 1992.652413 549.757716 1995.531641 551.750643 C2001.136472 555.630160 2007.074514 561.173408 2006.235085 567.938033 C2005.702421 572.230579 2002.359224 575.790176 1998.436471 577.612728 C1994.513718 579.435280 1990.073338 579.777826 1985.747879 579.768370 C1982.706302 579.761721 1979.622081 579.587371 1976.732768 578.637059 M1990.488108 558.229845 C1989.081941 557.783415 1987.579020 557.644511 1986.114851 557.825656 C1984.756292 557.993734 1983.292842 558.554558 1982.713668 559.794916 C1981.725698 561.910746 1984.236837 564.298358 1986.566600 564.140166 C1988.896362 563.981974 1990.790254 562.281819 1992.483463 560.673757 C1991.804180 559.998787 1991.124896 559.323815 1990.445612 558.648844 z"/><path class="selected"  fill="#000000" opacity="1.000000" stroke="none" 
 	d="
M876.924417 534.639503 C871.434015 536.284250 865.464224 536.291760 859.969701 534.660831 C865.460104 533.016082 871.429894 533.008572 876.924417 534.639500 z"/><path class="selected"  fill="#000000" opacity="1.000000" stroke="none" 
 	d="
M2019.374656 578.778374 C2016.502164 577.257723 2015.308622 573.832495 2014.406477 570.710041 C2012.409688 563.798866 2010.621538 556.827412 2009.045283 549.808372 C2008.365642 546.781952 2007.864929 543.197764 2009.992904 540.941028 C2011.100210 539.766717 2012.761346 539.213302 2014.375351 539.224470 C2020.474986 539.266680 2023.968958 546.015752 2026.084677 551.736857 C2026.833698 553.762283 2027.582720 555.787709 2028.331741 557.813134 C2030.054750 562.472314 2031.801761 567.488565 2030.578739 572.303224 C2029.355717 577.117882 2023.764982 581.102541 2019.374656 578.778374 z"/><path class="selected"  fill="#000000" opacity="1.000000" stroke="none" 
 	d="
M249.342592 617.711640 C246.400388 618.526908 243.401455 619.296603 240.348509 619.269204 C233.745933 619.209949 227.350509 615.061892 224.604021 609.057367 C221.857533 603.052842 222.901780 595.501857 227.174786 590.468077 C230.898511 586.081373 237.919640 587.146148 243.241438 589.334240 C248.355293 591.436834 253.188017 594.221986 257.571106 597.592585 C259.853897 599.348053 262.132665 601.448194 262.804628 604.248420 C263.627702 607.678363 261.726790 611.306427 258.971660 613.508975 C256.216529 615.711522 252.741824 616.769732 249.342593 617.711640 z"/><path class="selected"  fill="#000000" opacity="1.000000" stroke="none" 
 	d="
M285.515536 529.375287 C286.445481 529.685008 287.375425 529.994728 288.305370 530.304449 C288.086070 532.269534 284.232696 531.345281 284.928647 529.494521 z"/><path class="selected"  fill="#000000" opacity="1.000000" stroke="none" 
 	d="
M839.515536 533.375287 C840.445481 533.685008 841.375425 533.994728 842.305370 534.304449 C842.086070 536.269534 838.232696 535.345281 838.928647 533.494521 z"/><path class="selected"  fill="#000000" opacity="1.000000" stroke="none" 
 	d="
M369.999814 527.651323 C369.953200 528.288440 369.906586 528.925557 369.859972 529.562674 C368.932182 529.805357 368.434451 528.059969 369.350693 527.776788 z"/><path class="selected"  fill="#000000" opacity="1.000000" stroke="none" 
 	d="
M915.420498 531.797250 C916.281382 531.833191 916.309090 533.438194 915.449960 533.503829 C914.586569 533.442142 914.612514 531.827149 915.477442 531.793223 z"/><path class="selected"  fill="#000000" opacity="1.000000" stroke="none" 
 	d="
M166.489097 749.374076 C167.304307 749.340972 167.941942 750.038294 168.441905 750.683042 C173.983148 757.828982 178.120964 766.058928 180.551629 774.768790 C181.555500 778.365978 182.255309 782.280879 180.928617 785.771925 C180.467105 786.986337 179.723301 788.154006 178.591459 788.791754 C176.490917 789.975326 173.696180 788.909465 172.173471 787.040114 C170.650762 785.170762 170.094490 782.717514 169.605775 780.356524 C167.722772 771.259688 166.172746 762.093932 164.959844 752.883775 C164.771100 751.450547 165.044685 749.432732 166.489097 749.374077 z"/><path class="selected"  fill="#000000" opacity="1.000000" stroke="none" 
 	d="
M1257.185551 35.448637 C1250.941179 37.246382 1244.696807 39.044127 1238.452435 40.841872 C1234.810321 41.890432 1231.037747 42.949714 1227.282776 42.435254 C1224.424288 42.043613 1221.656318 40.680592 1219.824358 38.451633 C1217.465027 35.581020 1217.746209 30.067628 1221.385712 29.318704 C1229.124582 27.726229 1236.863451 26.133754 1244.602321 24.541278 C1248.828003 23.671734 1253.545982 22.882531 1257.194080 25.185546 C1260.842178 27.488561 1261.331376 34.255060 1257.185551 35.448637 z"/><path class="selected"  fill="#000000" opacity="1.000000" stroke="none" 
 	d="
M1990.476662 874.118249 C1901.035046 875.799082 1811.629408 879.394085 1722.341598 884.899968 C1700.543210 886.244153 1674.442855 890.604153 1665.990615 910.742082 C1643.965612 963.217889 1617.853212 1014.855781 1579.811778 1057.183788 C1541.770344 1099.511796 1490.468851 1132.079187 1433.906123 1138.361600 C1223.240249 1161.760222 1014.223904 1199.997621 808.918252 1252.696729 C742.471421 1269.752707 664.575959 1300.733744 653.289718 1368.399899 C643.555687 1426.759848 622.630188 1483.232616 591.985690 1533.844372 C713.471627 1525.470061 834.879619 1515.965012 956.188633 1505.330870 C990.550908 1502.318619 1014.284169 1468.241589 1022.477139 1434.734652 C1030.670110 1401.227715 1028.448773 1365.795459 1037.123116 1332.409903 C1045.797459 1299.024347 1070.735098 1265.480052 1105.195367 1263.953791 C1292.384849 1255.663083 1479.574331 1247.372375 1666.763813 1239.081667 C1685.060220 1238.271311 1704.104672 1237.258863 1720.128905 1228.390992 C1736.153137 1219.523120 1748.020650 1200.256930 1742.290348 1182.862137 C1737.841385 1169.356964 1756.430314 1160.711631 1770.505926 1158.696672 C1850.179277 1147.291237 1929.852628 1135.885801 2009.525979 1124.480365 C2016.653651 1123.460022 2023.974285 1122.445944 2030.993780 1124.049531 C2052.119985 1128.875758 2060.057933 1160.989555 2043.613185 1175.102644 C2027.168437 1189.215732 1996.630788 1176.497280 1995.065760 1154.883403 C1929.965291 1160.357157 1864.864823 1165.830908 1799.764355 1171.304659 C1779.598249 1173.000257 1752.757622 1182.674883 1756.267173 1202.605511 C1759.511160 1221.028011 1746.178211 1239.150538 1729.489246 1247.599821 C1712.800281 1256.049105 1693.457886 1257.020585 1674.769389 1257.828037 C1488.152781 1265.890938 1301.536175 1273.953844 1114.919570 1282.016751 C1076.676018 1283.669092 1054.220256 1326.587023 1049.127938 1364.526024 C1044.035621 1402.465025 1047.417114 1443.694996 1026.912265 1476.019146 C997.856785 1521.822662 935.273538 1529.342842 881.106767 1532.196622 C820.942942 1535.366345 760.779122 1538.536077 700.615302 1541.705809 C656.747399 1544.016990 611.948714 1546.526138 571.189601 1562.909944 C503.592955 1590.081545 431.695883 1606.522870 359.008129 1611.431316 C333.249413 1613.170746 306.929285 1613.558836 282.557555 1622.076807 C258.185824 1630.594778 235.509568 1649.214702 230.252706 1674.491222 C636.698786 1653.055260 1042.648304 1622.204615 1447.665937 1581.972370 C1478.192476 1578.940030 1485.423894 1538.111750 1484.480624 1507.449478 C1483.537355 1476.787206 1491.139021 1435.921419 1521.702418 1433.286368 C1679.016195 1419.723420 1836.329972 1406.160472 1993.643749 1392.597524 C2004.171636 1391.689853 2015.161952 1390.846611 2024.953963 1394.818612 C2045.887613 1403.310072 2051.678735 1435.545688 2035.009656 1450.792472 C2018.340577 1466.039256 1986.747870 1457.403695 1980.152142 1435.797701 C1975.213097 1419.618598 1953.433017 1417.630653 1936.556592 1418.789898 C1822.801650 1426.603747 1709.046708 1434.417597 1595.291765 1442.231446 C1558.406890 1444.765076 1513.931334 1452.606444 1500.759158 1487.152169 C1487.882243 1520.923537 1511.279099 1568.358387 1482.612037 1590.370197 C1473.082194 1597.687621 1460.446974 1599.167024 1448.492949 1600.376932 C1045.994825 1641.115177 642.472002 1671.728856 238.434719 1692.179260 C229.437015 1692.634680 218.566069 1692.128792 214.059738 1684.327569 C211.283579 1679.521566 212.039358 1673.539470 212.908518 1668.057747 C231.664282 1549.766674 263.897063 1433.617808 308.783435 1322.578309 C318.275083 1299.097958 328.651891 1275.340101 345.875582 1256.772312 C379.199661 1220.847698 431.246441 1210.839091 479.576378 1202.758904 C789.388631 1150.962008 1099.200884 1099.165112 1409.013138 1047.368216 C1445.541949 1041.261036 1460.466543 998.617469 1479.585333 966.898018 C1511.713752 913.594606 1574.300204 880.186235 1636.466697 883.155424 C1653.636859 883.975507 1667.159130 868.172030 1673.436097 852.169325 C1679.713065 836.166620 1681.849973 818.380982 1691.063397 803.868928 C1708.083687 777.060284 1743.203917 769.483751 1774.653695 765.089989 C1849.489228 754.634923 1924.962742 748.748418 2000.514326 747.474144 C2006.922722 729.319048 2033.184618 722.081841 2047.988389 734.391325 C2062.792161 746.700809 2060.467809 773.842321 2043.786619 783.455487 C2027.105429 793.068653 2002.456473 781.471528 1999.228293 762.491172 C1941.444862 783.162680 1877.639193 769.723958 1816.435517 774.234637 C1755.231842 778.745317 1685.493631 815.039338 1683.234458 876.367409 C1789.156182 866.311945 1895.077905 856.256480 2000.999629 846.201016 C2011.950245 845.161441 2023.561014 844.234567 2033.421093 849.110584 C2052.601863 858.595879 2053.697837 890.785891 2035.206628 901.553806 C2016.715420 912.321720 1989.259857 895.481586 1990.476662 874.118249 M1370.442839 1069.715255 C1369.278317 1069.274967 1368.286232 1071.593411 1369.530852 1071.623170 C1370.138915 1070.376012 1371.174267 1069.342106 1372.422275 1068.735790 C1372.379818 1067.490157 1370.049920 1068.490608 1370.527138 1069.641983 M825.195111 1229.344941 C995.996893 1189.841615 1167.360910 1150.243772 1341.800057 1132.786804 C1388.538011 1128.109511 1436.353881 1124.814294 1479.723173 1106.774951 C1566.297848 1070.764439 1619.537597 982.920828 1653.566277 895.548177 C1584.398046 891.749336 1514.671037 931.004835 1482.044630 992.112877 C1472.837632 1009.357239 1466.238992 1028.311886 1453.569273 1043.198627 C1425.350354 1076.355452 1376.519402 1080.149451 1333.072955 1082.993522 C1053.853204 1101.271606 782.350256 1181.383638 504.632332 1215.596376 C452.826342 1221.978482 396.075605 1229.005501 360.247281 1266.964994 C340.743885 1287.628506 330.184097 1314.953281 320.513880 1341.671255 C291.262920 1422.489134 265.903629 1504.715420 244.553265 1587.969910 C339.268221 1557.260213 438.716635 1541.196914 538.283484 1540.525448 C547.219772 1540.465183 556.675427 1540.390486 564.309643 1535.745100 C570.200256 1532.160688 574.261206 1526.276462 577.988653 1520.475300 C608.395360 1473.152222 628.669310 1419.353355 637.056775 1363.732388 C643.181918 1323.113875 673.411233 1289.351368 708.941422 1268.736164 C744.471611 1248.120960 785.173816 1238.601131 825.195109 1229.344938 M256.485893 1611.899800 C321.058728 1597.069261 386.468804 1585.884903 452.300694 1578.417758 C468.824850 1576.543466 485.428686 1574.894273 501.617654 1571.089272 C516.139185 1567.676179 530.253767 1562.535071 543.568585 1555.809025 C485.902652 1560.164205 428.402635 1566.715803 371.235064 1575.444839 C334.865785 1580.998141 298.091061 1587.601373 264.945292 1603.567635 C261.229586 1605.357484 257.136934 1607.827185 256.485889 1611.899797 M2022.151905 1410.976162 C2021.362801 1408.047351 2017.597514 1407.271651 2014.564830 1407.330340 C2009.015817 1407.437725 2003.486393 1408.494542 1998.288893 1410.441094 C1996.728100 1411.025637 1995.028349 1411.866816 1994.524749 1413.455574 C1993.949066 1415.271747 1995.195992 1417.094068 1995.851523 1418.882971 C1997.929341 1424.553204 1994.533591 1432.392365 1999.303520 1436.095964 C2001.829487 1438.057243 2005.404060 1437.609936 2008.555429 1437.065881 C2013.812040 1436.158373 2019.304020 1435.149976 2023.510283 1431.869293 C2027.716547 1428.588611 2030.067226 1422.264880 2027.206970 1417.762163 C2025.681066 1415.360029 2022.892246 1413.723983 2022.151905 1410.976162 M2017.660548 1161.826497 C2018.906688 1161.867017 2020.097035 1161.357306 2021.239222 1160.857390 C2024.442963 1159.455165 2027.646703 1158.052942 2030.850444 1156.650718 C2032.970341 1155.722875 2035.331920 1154.526847 2035.940193 1152.294167 C2036.257100 1151.130955 2036.020083 1149.897303 2035.781902 1148.715456 C2035.176468 1145.711333 2034.545632 1142.640131 2032.966162 1140.013997 C2031.386692 1137.387863 2028.646011 1135.248281 2025.581491 1135.243724 C2022.083121 1135.238521 2019.045171 1137.916131 2015.551357 1138.094651 C2013.742622 1138.187071 2011.975365 1137.598266 2010.178230 1137.373831 C2008.381096 1137.149396 2006.335977 1137.390393 2005.155598 1138.763989 C2003.975218 1140.137586 2004.494751 1142.819022 2006.289345 1143.062945 C2010.248857 1143.601127 2011.431047 1148.663893 2011.775165 1152.644967 C2012.119283 1156.626041 2013.666741 1161.696632 2017.660549 1161.826496 M2023.779801 877.914633 C2027.449372 875.731292 2030.819976 873.086955 2034.178941 870.450652 C2034.896807 869.887231 2035.636644 869.297666 2036.051365 868.484780 C2036.899397 866.822568 2036.071022 864.685996 2034.616723 863.516756 C2033.162423 862.347516 2031.247606 861.942613 2029.396720 861.705273 C2021.905702 860.744700 2014.145137 861.991744 2007.332175 865.250823 C2005.803909 865.981890 2004.282567 866.844558 2003.223454 868.166805 C1999.843276 872.386777 2003.241094 879.283788 2008.370074 880.994734 C2013.499054 882.705679 2019.133236 880.679269 2023.779800 877.914632 M2025.737167 746.237086 C2025.262375 746.618226 2025.070048 747.241970 2024.902451 747.827297 C2023.615516 752.321910 2022.328579 756.816523 2021.041643 761.311136 C2020.202654 764.241294 2020.304912 768.661595 2023.343298 768.902297 C2029.303378 768.220489 2034.980648 765.300156 2039.001285 760.847980 C2040.882616 758.764725 2042.467501 756.150288 2042.314550 753.347439 C2042.138281 750.117290 2039.590876 747.357127 2036.580501 746.172822 C2033.570126 744.988517 2030.191865 745.141066 2027.016009 745.756591 C2026.564293 745.844140 2026.095981 745.949049 2025.737167 746.237085 M1051.487122 1335.783156 C1052.354147 1333.125971 1053.221171 1330.468786 1054.088196 1327.811601 C1054.353584 1326.998262 1054.310377 1325.718923 1053.454855 1325.724769 C1050.249559 1327.793220 1049.297601 1332.659314 1051.487122 1335.783156 M1071.032566 1181.314644 C1070.104623 1182.651790 1070.522312 1184.726565 1071.895381 1185.600477 C1073.268450 1186.474388 1075.324929 1185.974335 1076.143419 1184.567526 C1075.286218 1182.801239 1073.410855 1181.575958 1071.449004 1181.500398 M1052.120403 1190.421881 C1053.515824 1189.031275 1050.439106 1186.871081 1049.044823 1188.262828 C1047.650539 1189.654575 1048.269050 1192.076149 1049.434074 1193.664767 C1050.438389 1192.659907 1051.442708 1191.655049 1052.447026 1190.650192 M1406.585912 1132.665048 C1406.086991 1133.565601 1406.435281 1134.835282 1407.323860 1135.355227 C1409.725106 1134.857272 1410.997103 1131.555904 1409.550756 1129.575498 C1408.516257 1130.600321 1407.481758 1131.625144 1406.447259 1132.649966 M1028.930872 1113.452107 C1028.565048 1114.382475 1029.174644 1115.566101 1030.144503 1115.808560 C1031.114361 1116.051020 1032.209233 1115.293502 1032.324258 1114.300436 C1031.389238 1113.992235 1030.454215 1113.684034 1029.519193 1113.375833 M1993.434248 1149.638759 C1994.767735 1148.798321 1994.776070 1146.516683 1993.448760 1145.666525 C1992.118307 1146.514004 1992.125004 1148.799590 1993.460401 1149.639259 M1190.417336 1166.602157 C1190.563911 1167.597841 1192.307435 1167.301458 1192.546526 1166.323855 C1192.785618 1165.346253 1192.114108 1164.401473 1191.482328 1163.618066 C1190.542200 1164.244514 1190.129131 1165.556772 1190.540920 1166.608776 M1136.930872 1271.452107 C1136.565048 1272.382475 1137.174644 1273.566101 1138.144503 1273.808560 C1139.114361 1274.051020 1140.209233 1273.293502 1140.324258 1272.300436 C1139.389238 1271.992235 1138.454215 1271.684034 1137.519193 1271.375833 M1064.417336 1186.602157 C1064.563911 1187.597841 1066.307435 1187.301458 1066.546526 1186.323855 C1066.785618 1185.346253 1066.114108 1184.401473 1065.482328 1183.618066 C1064.542200 1184.244514 1064.129131 1185.556772 1064.540920 1186.608776 M1263.515536 1267.925045 C1264.445481 1267.615324 1265.375425 1267.305603 1266.305370 1266.995883 C1266.086070 1265.030798 1262.232696 1265.955051 1262.928647 1267.805811 M1666.325895 1244.565479 C1666.056758 1243.630411 1664.271216 1244.141663 1664.537765 1245.077472 C1665.174093 1245.115406 1665.810421 1245.153338 1666.446749 1245.191270 M1119.473621 1177.797250 C1118.612736 1177.833191 1118.585028 1179.438194 1119.444159 1179.503829 C1120.307549 1179.442142 1120.281604 1177.827149 1119.416677 1177.793223 M865.420498 1145.503082 C866.281382 1145.467140 866.309090 1143.862138 865.449960 1143.796503 C864.586569 1143.858190 864.612514 1145.473183 865.477442 1145.507109 M1340.448216 1141.202921 C1341.085333 1141.156307 1341.722450 1141.109693 1342.359567 1141.063079 C1342.602251 1140.135289 1340.856862 1139.637558 1340.573682 1140.553800 M1113.473621 1101.797250 C1112.612736 1101.833191 1112.585028 1103.438194 1113.444159 1103.503829 C1114.307549 1103.442142 1114.281604 1101.827149 1113.416677 1101.793223 M979.420498 1507.503082 C980.281382 1507.467140 980.309090 1505.862138 979.449960 1505.796503 C978.586569 1505.858190 978.612514 1507.473183 979.477442 1507.507109 M953.420498 1511.503082 C954.281382 1511.467140 954.309090 1509.862138 953.449960 1509.796503 C952.586569 1509.858190 952.612514 1511.473183 953.477442 1511.507109 M961.473621 1511.797250 C960.612736 1511.833191 960.585028 1513.438194 961.444159 1513.503829 C962.307549 1513.442142 962.281604 1511.827149 961.416677 1511.793223 M933.473621 1517.797250 C932.612736 1517.833191 932.585028 1519.438194 933.444159 1519.503829 C934.307549 1519.442142 934.281604 1517.827149 933.416677 1517.793223 M1242.448216 1609.202921 C1243.085333 1609.156307 1243.722450 1609.109693 1244.359567 1609.063079 C1244.602251 1608.135289 1242.856862 1607.637558 1242.573682 1608.553800 z"/></svg>