<?xml version="1.0" encoding="utf-8"?><!DOCTYPE svg PUBLIC "-//W3C//DTD SVG 1.1//EN" "http://www.w3.org/Graphics/SVG/1.1/DTD/svg11.dtd"><svg version="1.1" id="Contours" xmlns="http://www.w3.org/2000/svg" xmlns:xlink="http://www.w3.org/1999/xlink" x="0px" y="0px" width="2222.701904px" height="2222.701904px" viewBox="-0.000001 0.000000 2222.701904 2282.773926" enable-background="new 0 0 2222.701904 2222.701904" xml:space="preserve" stroke="black" fill="none" stroke-linecap='round' stroke-linejoin='round'><path class="selected"  fill="#000000" opacity="1.000000" stroke="none" 
 	d="
M127.157035 642.140387 C635.802395 633.065436 1144.132146 611.478946 1652.400345 589.894348 C1820.658615 582.748933 1988.916885 575.603518 2157.175155 568.458104 C2150.518753 579.842885 2135.110031 581.668879 2121.933763 582.222853 C1484.842428 609.007583 847.731743 635.793031 210.358725 654.725091 C181.955112 655.568771 151.949660 656.025737 127.157031 642.140401 z"/><path class="selected"  fill="#000000" opacity="1.000000" stroke="none" 
 	d="
M2044.234036 1326.895208 C1463.045581 1327.302976 881.870789 1346.920544 301.977744 1385.705108 C230.338988 1390.496471 157.989828 1395.552603 87.061826 1384.404194 C761.957412 1338.542907 1438.316656 1314.223616 2114.763156 1311.495809 C2095.204922 1326.278255 2068.750256 1326.878014 2044.234038 1326.895229 z"/><path class="selected"  fill="#000000" opacity="1.000000" stroke="none" 
 	d="
M95.475067 1806.273303 C89.405086 1804.942113 83.131239 1803.236121 78.509758 1799.081767 C73.888278 1794.927413 71.526284 1787.615856 74.780895 1782.322064 C97.691289 1793.778498 124.182462 1795.054018 149.787024 1795.790352 C316.807256 1800.593439 483.886448 1791.801216 650.744406 1783.012063 C735.878860 1778.527651 821.013314 1774.043240 906.147768 1769.558828 C905.944269 1779.092630 893.634015 1782.552029 884.123635 1783.250218 C656.596458 1799.953743 428.572237 1809.886123 200.454413 1813.029783 C165.310307 1813.514099 129.806607 1813.802454 95.475068 1806.273303 z"/><path class="selected"  fill="#000000" opacity="1.000000" stroke="none" 
 	d="
M33.844508 2266.837425 C68.243921 2267.824926 102.652356 2265.872809 137.010574 2263.921498 C156.567834 2262.810780 176.125094 2261.700062 195.682354 2260.589344 C228.575192 2258.721256 261.468031 2256.853169 294.360870 2254.985081 C476.793667 2244.624151 659.226692 2234.263207 841.632992 2223.445810 C824.858680 2239.434579 799.611423 2241.586111 776.473197 2242.867026 C558.571775 2254.929859 340.670353 2266.992695 122.768932 2279.055531 C102.993149 2280.150301 83.217366 2281.245072 63.441583 2282.339842 C40.645100 2283.601836 14.038970 2283.237277 0.000000 2265.232288 C11.276405 2265.872765 22.554582 2266.513326 33.844508 2266.837425 z"/><path class="selected"  fill="#000000" opacity="1.000000" stroke="none" 
 	d="
M1156.401993 1756.041831 C1228.620449 1761.028860 1301.111256 1755.870291 1373.319399 1750.736089 C1566.635864 1736.990743 1760.035358 1723.407383 1953.767002 1718.093209 C1960.064330 1717.920469 1967.201021 1718.092183 1971.459373 1722.734662 C1966.679695 1728.769793 1958.036247 1729.704958 1950.351425 1730.164876 C1729.497639 1743.382439 1508.643853 1756.600002 1287.790067 1769.817565 C1250.678993 1772.038573 1213.468332 1774.260045 1176.349084 1772.180131 C1166.287020 1771.616321 1152.585946 1765.369254 1156.401991 1756.041832 z"/><path class="selected"  fill="#000000" opacity="1.000000" stroke="none" 
 	d="
M244.833967 921.475178 C260.285923 916.170845 275.737880 910.866512 291.189836 905.562179 C301.300233 902.091492 313.511861 898.938741 321.827447 905.655647 C338.623607 919.222728 361.281836 923.598206 382.855357 922.726490 C404.428877 921.854774 425.482621 916.249574 446.627236 911.881286 C507.701460 899.263894 570.876235 896.876183 632.728618 904.847523 C808.149420 927.455204 985.844644 892.059912 1162.626620 897.690031 C1159.924166 906.213899 1148.920493 908.117623 1139.987802 908.525822 C1031.732723 913.472780 923.477644 918.419737 815.222566 923.366694 C789.853732 924.525980 764.463796 925.685581 739.072975 925.208229 C650.656971 923.545993 561.564638 902.123092 474.636846 918.362298 C449.457966 923.066028 424.870319 930.888069 399.465993 934.162413 C374.061667 937.436757 346.943678 935.748087 324.936566 922.641292 C320.838361 920.200510 316.902846 917.361791 312.378058 915.852167 C294.935562 910.032752 278.243808 925.274990 260.793788 931.071806 C253.026305 933.652127 240.373496 928.337834 244.833967 921.475179 z"/><path class="selected"  fill="#000000" opacity="1.000000" stroke="none" 
 	d="
M1826.069422 1458.265399 C1826.920435 1460.793411 1831.219920 1457.838318 1830.039494 1455.446319 C1828.859068 1453.054319 1825.663317 1452.682116 1822.996474 1452.627160 C1803.395207 1452.223295 1783.793947 1451.819422 1764.192688 1451.415549 C1744.977407 1451.019629 1725.762081 1450.623709 1706.545568 1450.292968 C1551.950618 1447.632193 1397.283066 1449.191039 1242.773149 1454.967184 C1218.719055 1455.866414 1194.135030 1456.804012 1171.097807 1449.825873 C1166.600070 1448.463477 1161.962937 1446.646171 1159.028270 1442.975546 C1156.093603 1439.304921 1155.639510 1433.276107 1159.231768 1430.246018 C1187.396490 1440.164591 1218.034251 1439.423667 1247.885479 1438.693228 C1493.866844 1432.674187 1740.059787 1435.305833 1985.856281 1446.581660 C1990.891415 1446.812645 1997.874244 1451.226709 1994.382486 1454.861755 C1949.697276 1459.360465 1904.698669 1460.743424 1859.821534 1458.997269 C1863.514583 1457.589290 1867.207632 1456.181310 1870.900681 1454.773331 C1855.956928 1455.937354 1841.013175 1457.101376 1826.069422 1458.265399 M1901.539174 1456.095148 C1899.876747 1455.669278 1898.045690 1455.948392 1896.585649 1456.850230 C1897.965015 1458.801402 1901.499268 1458.452456 1902.470434 1456.269215 z"/><path class="selected"  fill="#000000" opacity="1.000000" stroke="none" 
 	d="
M1935.586595 2188.315633 C1934.153278 2189.088733 1932.461628 2189.172457 1930.834463 2189.238910 C1868.994415 2191.764440 1807.136480 2193.826356 1745.279239 2195.888245 C1734.050938 2196.262519 1722.822636 2196.636792 1711.594334 2197.011066 C1559.221650 2202.090110 1406.848966 2207.169154 1254.476282 2212.248199 C1232.086798 2212.994508 1207.002081 2212.754188 1190.978082 2197.099238 C1189.224176 2192.986213 1193.763868 2188.507426 1198.228037 2188.253812 C1202.692206 2188.000198 1206.823582 2190.342917 1210.965494 2192.027460 C1222.790581 2196.836800 1235.990685 2196.484089 1248.749220 2196.057210 C1472.865369 2188.558622 1696.981518 2181.060038 1921.097667 2173.561453 C1925.906163 2173.400568 1931.124500 2173.360024 1934.993134 2176.220301 C1938.861768 2179.080579 1939.821083 2186.031639 1935.586594 2188.315630 z"/><path class="selected"  fill="#000000" opacity="1.000000" stroke="none" 
 	d="
M291.050203 829.541012 C286.107626 831.405497 281.027277 833.722351 275.781080 833.103649 C270.534883 832.484947 265.403986 827.399625 267.017052 822.369377 C317.165493 799.682113 375.523443 818.242480 430.437902 814.503551 C451.400051 813.076313 472.020556 808.338644 492.965591 806.679064 C518.624583 804.645975 544.395381 807.254672 570.025724 809.621700 C762.912042 827.435244 958.565677 831.553364 1149.235240 797.383617 C1152.260650 800.311459 1151.043158 805.761261 1147.870426 808.528775 C1144.697694 811.296289 1140.310630 812.090585 1136.154335 812.761829 C947.581227 843.216479 754.929637 838.739074 564.688309 821.547809 C542.341252 819.528404 519.874539 817.333245 497.504774 819.083275 C475.152930 820.831903 453.212607 826.500086 430.822652 827.663067 C383.931795 830.098674 334.982388 812.968511 291.050203 829.541012 z"/><path class="selected"  fill="#000000" opacity="1.000000" stroke="none" 
 	d="
M1164.598385 731.180967 C1162.041598 733.635324 1161.454196 737.890811 1163.250473 740.946039 C1083.752492 746.382817 1003.977990 751.821128 924.454771 746.766892 C901.072774 745.280809 877.707804 742.887583 854.280422 743.177411 C813.796948 743.678250 773.481416 752.186566 733.090632 749.403212 C708.479406 747.707242 684.340748 741.842799 659.816290 739.170774 C566.399213 728.992636 470.119729 765.213928 379.181509 741.537253 C361.511659 736.936726 342.889606 738.668452 324.716036 740.431899 C295.195340 743.296405 265.674643 746.160908 236.153947 749.025411 C231.651553 749.462296 229.752976 742.458051 232.699351 739.025664 C235.645727 735.593277 240.662571 735.039471 245.175300 734.726918 C271.739703 732.887074 298.304101 731.047226 324.868500 729.207378 C342.958345 727.954475 361.398223 726.729355 379.001288 731.081862 C474.467488 754.686715 575.340676 715.685398 672.748531 729.201836 C694.348981 732.199133 715.608227 737.769497 737.367151 739.222943 C776.812228 741.857783 815.992311 730.875654 855.525265 730.921214 C879.222468 730.948524 902.722647 734.937757 926.361230 736.603762 C951.398373 738.368337 976.537709 737.523220 1001.622695 736.677242 C1055.947925 734.845150 1110.273155 733.013058 1164.598385 731.180967 z"/><path class="selected"  fill="#000000" opacity="1.000000" stroke="none" 
 	d="
M593.388594 1042.698464 C561.760489 1041.635643 530.050715 1040.574498 498.506054 1043.104517 C468.905762 1045.478594 439.645935 1051.000843 410.633125 1057.330957 C383.352985 1063.283035 353.216580 1069.591775 328.827902 1055.996717 C315.039872 1048.310812 295.622476 1053.315695 287.267660 1066.708976 C281.753040 1065.545944 277.439786 1060.168191 277.501534 1054.532600 C293.934387 1043.029131 315.795766 1031.271876 332.637104 1042.168560 C351.620979 1054.451511 376.358067 1051.158294 398.578846 1046.975548 C431.501077 1040.778406 464.348523 1033.604439 497.751662 1031.053338 C523.568217 1029.081651 549.507094 1029.889249 575.386196 1030.698038 C679.280713 1033.945013 783.175231 1037.191988 887.069748 1040.438963 C903.220354 1040.943711 919.390258 1041.448353 935.531626 1040.704670 C974.382602 1038.914685 1012.658193 1029.915395 1051.527217 1028.573233 C1043.274327 1033.218362 1033.963025 1035.969891 1024.510877 1036.556679 C1026.864302 1037.390246 1029.217728 1038.223812 1031.571154 1039.057378 C1001.865646 1045.169799 972.024576 1051.300137 941.738898 1052.899064 C924.329016 1053.818215 906.878737 1053.232890 889.454444 1052.647369 C790.765827 1049.331068 692.077211 1046.014766 593.388594 1042.698464 z"/><path class="selected"  fill="#000000" opacity="1.000000" stroke="none" 
 	d="
M63.038627 1911.336474 C123.175405 1896.200462 186.298531 1902.107287 248.251563 1899.395693 C265.219361 1898.653037 282.150677 1897.256811 299.087223 1895.987514 C461.445175 1883.819722 624.424888 1883.307067 787.237366 1882.800645 C802.842930 1882.752104 818.459664 1882.703847 834.040202 1883.588629 C835.958810 1890.090497 826.773627 1893.739885 820.008980 1894.181338 C658.841083 1904.698741 496.962933 1898.027002 335.706400 1907.084385 C326.738479 1907.588090 317.773368 1908.140404 308.808309 1908.692715 C224.997608 1913.856046 141.186907 1919.019376 57.376205 1924.182706 C53.862250 1924.399191 52.140159 1919.287954 54.026884 1916.315579 C55.913610 1913.343204 59.624490 1912.195788 63.038626 1911.336473 z"/><path class="selected"  fill="#000000" opacity="1.000000" stroke="none" 
 	d="
M1185.035442 1895.647881 C1184.567158 1964.826812 1184.098874 2034.005742 1183.630589 2103.184673 C1183.576139 2111.228457 1183.521701 2119.273728 1183.711771 2127.315450 C1184.034181 2140.956349 1185.060631 2154.580582 1186.785671 2168.115807 C1187.636938 2174.795118 1176.902558 2177.484239 1172.097231 2172.767600 C1167.291905 2168.050960 1167.170905 2160.480877 1167.360553 2153.750210 C1170.120008 2055.816566 1171.097248 1957.832709 1170.291626 1859.863509 C1183.136960 1864.835518 1185.128681 1881.874182 1185.035451 1895.647880 z"/><path class="selected"  fill="#000000" opacity="1.000000" stroke="none" 
 	d="
M1809.443057 1055.496383 C1802.322790 1059.319728 1793.927429 1059.721585 1785.851861 1060.039982 C1770.443880 1060.647474 1754.759302 1061.226168 1739.862493 1057.243704 C1731.637988 1055.044993 1723.062593 1054.580721 1714.558201 1054.190663 C1649.769337 1051.219103 1584.812892 1051.905110 1520.101236 1056.244330 C1512.773843 1056.735666 1505.307852 1057.262864 1498.174221 1055.518324 C1491.040590 1053.773785 1484.157555 1049.339418 1481.399407 1042.533190 C1486.634468 1042.073843 1491.869598 1041.614489 1497.108236 1041.197913 C1560.974172 1036.119299 1625.155580 1037.411119 1689.210029 1038.706392 C1703.120603 1038.987684 1717.031177 1039.268976 1730.941751 1039.550268 C1738.052268 1039.694052 1745.312350 1039.864444 1751.999286 1042.286221 C1761.677663 1045.791408 1772.343857 1043.804917 1782.636658 1043.680226 C1792.929459 1043.555535 1804.695717 1046.362924 1809.443057 1055.496383 z"/><path class="selected"  fill="#000000" opacity="1.000000" stroke="none" 
 	d="
M874.479692 1432.462777 C876.854296 1437.726491 868.886870 1441.314299 863.121251 1441.635343 C611.839121 1455.626768 360.556995 1469.618202 109.274869 1483.609637 C105.369707 1481.424241 106.072712 1475.074474 109.491505 1472.186898 C112.910299 1469.299323 117.720323 1468.909232 122.187862 1468.649749 C284.815588 1459.204032 447.443314 1449.758315 610.071040 1440.312598 C698.126019 1435.198203 786.308459 1430.081573 874.479692 1432.462777 z"/><path class="selected"  fill="#000000" opacity="1.000000" stroke="none" 
 	d="
M38.050731 1905.121560 C45.430815 1913.998275 46.492635 1926.408844 46.642332 1937.951777 C47.686044 2018.430685 20.387073 2097.458324 23.100020 2177.898264 C23.360866 2185.632453 22.885983 2195.189549 15.906367 2198.531807 C8.083739 2194.630992 6.669894 2184.230843 6.596188 2175.489883 C5.874528 2089.906532 36.647102 2005.950477 32.288718 1920.475129 C31.989068 1914.598469 32.511835 1907.107913 38.050727 1905.121558 z"/><path class="selected"  fill="#000000" opacity="1.000000" stroke="none" 
 	d="
M1784.150894 689.199175 C1783.332224 686.504634 1786.715542 684.026233 1789.458160 684.665617 C1792.200779 685.305000 1794.065987 687.825062 1795.373665 690.319205 C1800.824039 700.714762 1800.727680 713.020964 1800.565691 724.757569 C1799.271041 818.559410 1801.967266 912.416252 1808.644627 1005.989080 C1809.027108 1011.348952 1809.391001 1016.926739 1807.389175 1021.913442 C1805.387350 1026.900146 1800.255818 1031.073596 1794.968774 1030.113553 C1793.956610 1018.391856 1793.558496 1006.626838 1793.160760 994.868251 C1791.440409 944.008089 1789.720057 893.147927 1787.999706 842.287765 C1786.782285 806.296172 1785.564893 770.266683 1786.959294 734.281512 C1787.545255 719.159672 1788.550176 703.678806 1784.150894 689.199175 z"/><path class="selected"  fill="#000000" opacity="1.000000" stroke="none" 
 	d="
M2019.321175 1862.281098 C2007.891236 1974.938270 2011.719256 2089.133545 2030.667976 2200.772373 C2027.371373 2204.470263 2020.864196 2203.152110 2017.600973 2199.424729 C2014.337750 2195.697348 2013.456476 2190.511022 2012.734475 2185.609930 C2002.667066 2117.270266 1998.354987 2048.083687 1999.858860 1979.022840 C2000.402657 1954.050556 2001.704933 1929.101707 2003.007036 1904.157466 C2004.735810 1871.039515 2006.464584 1837.921564 2008.193358 1804.803613 C2008.273965 1803.259427 2008.431637 1801.545025 2009.578486 1800.507844 C2012.548027 1797.822263 2016.466906 1802.660113 2017.391235 1806.555770 C2020.170548 1818.269380 2021.371056 1830.356535 2020.950128 1842.387995 C2020.717457 1849.038492 2019.992884 1855.660520 2019.321175 1862.281098 z"/><path class="selected"  fill="#000000" opacity="1.000000" stroke="none" 
 	d="
M865.947907 1905.088060 C867.389487 1901.509074 873.151485 1901.962670 875.478695 1905.040232 C877.805905 1908.117794 877.694589 1912.332024 877.485548 1916.184763 C872.243351 2012.801545 870.804185 2109.624610 873.172505 2206.354515 C873.297351 2211.453626 865.269745 2213.024129 861.644107 2209.436473 C858.018470 2205.848818 857.793262 2200.162713 857.799071 2195.062077 C857.908306 2099.161175 858.021829 2003.146816 865.502502 1907.538059 C865.567517 1906.707112 865.636502 1905.861189 865.947910 1905.088061 z"/><path class="selected"  fill="#000000" opacity="1.000000" stroke="none" 
 	d="
M1142.088161 1744.139303 C1132.712072 1743.812180 1128.773208 1732.158105 1127.639954 1722.845006 C1116.805579 1633.807761 1135.319367 1543.531725 1128.897894 1454.067881 C1128.576694 1449.592933 1135.491762 1447.783960 1138.901448 1450.699844 C1142.311134 1453.615728 1142.888560 1458.588044 1143.164123 1463.066035 C1148.416877 1548.425122 1131.051033 1634.571759 1142.600440 1719.308861 C1143.731317 1727.606019 1145.094611 1736.323742 1142.088166 1744.139303 z"/><path class="selected"  fill="#000000" opacity="1.000000" stroke="none" 
 	d="
M1776.983320 680.693642 C1774.742254 683.745826 1770.270821 683.749051 1766.493590 683.483103 C1688.342973 677.980644 1609.938301 685.619774 1531.918524 692.740857 C1526.648563 693.221861 1521.050131 693.641593 1516.339146 691.231100 C1511.628161 688.820607 1508.551323 682.438786 1511.505491 678.048257 C1535.971604 676.327727 1560.437715 674.607200 1584.903825 672.886673 C1644.104787 668.723492 1703.481388 664.558157 1762.749972 667.611163 C1766.726293 667.815989 1770.920200 668.124623 1774.211294 670.365557 C1777.502388 672.606492 1779.339800 677.484267 1776.983317 680.693640 z"/><path class="selected"  fill="#000000" opacity="1.000000" stroke="none" 
 	d="
M1935.871511 1843.403956 C1840.331056 1852.167311 1744.569424 1858.519227 1648.708529 1862.451617 C1614.216612 1863.866539 1579.712701 1864.968251 1545.209358 1866.069941 C1530.124511 1866.551600 1515.039664 1867.033259 1499.954817 1867.514918 C1401.914866 1870.645331 1303.874915 1873.775744 1205.834964 1876.906157 C1196.925894 1877.190624 1184.516817 1873.889478 1185.768152 1865.064139 C1199.987061 1863.448996 1214.279678 1862.585350 1228.567568 1861.784037 C1456.145689 1849.020695 1684.712300 1851.884175 1911.424731 1828.300755 C1924.000733 1826.992556 1937.890008 1825.931751 1948.102437 1833.386515 C1950.271079 1839.136396 1941.991076 1842.842645 1935.871511 1843.403957 z"/><path class="selected"  fill="#000000" opacity="1.000000" stroke="none" 
 	d="
M1481.811523 1007.366820 C1481.206402 1006.233448 1481.079841 1004.914294 1480.966166 1003.634536 C1471.786735 900.291447 1472.454246 796.075964 1482.956720 692.858941 C1483.364075 688.855505 1489.710205 688.266914 1492.345444 691.308123 C1494.980684 694.349332 1494.877619 698.820230 1494.628581 702.836624 C1488.628743 799.599663 1481.719126 897.058828 1494.145440 993.208038 C1494.720528 997.657808 1495.254559 1002.519354 1492.882118 1006.327596 C1490.509677 1010.135837 1483.924733 1011.324789 1481.811525 1007.366818 z"/><path class="selected"  fill="#000000" opacity="1.000000" stroke="none" 
 	d="
M916.542887 1711.880475 C911.115246 1711.761915 906.454416 1707.542425 904.192342 1702.607209 C901.930268 1697.671992 901.601523 1692.100693 901.351591 1686.677513 C898.579274 1626.521255 901.159200 1566.119334 909.050936 1506.418569 C912.367471 1481.329077 916.630328 1456.051066 914.266351 1430.853971 C919.998026 1430.014723 925.368478 1434.721509 927.307624 1440.180094 C929.246769 1445.638679 928.593121 1451.633145 927.908351 1457.385321 C918.643856 1535.208544 908.141290 1613.709371 915.957475 1691.691370 C916.630578 1698.406905 917.438651 1705.190999 916.542887 1711.880475 z"/><path class="selected"  fill="#000000" opacity="1.000000" stroke="none" 
 	d="
M104.949852 1479.264786 C99.873655 1521.970903 91.733213 1564.331727 88.682863 1607.230160 C85.271421 1655.206798 88.254784 1703.492063 84.261105 1751.423747 C83.836345 1756.521671 81.047158 1763.344425 76.110188 1762.004433 C72.448509 1761.010586 71.670919 1756.240126 71.619107 1752.446323 C70.294996 1655.489326 77.945065 1558.411651 94.439643 1462.858837 C98.038960 1461.101377 102.538967 1463.778445 104.187597 1467.428893 C105.836228 1471.079341 105.422629 1475.287320 104.949855 1479.264786 z"/><path class="selected"  fill="#000000" opacity="1.000000" stroke="none" 
 	d="
M2056.972590 1642.803269 C2057.102722 1645.791040 2057.018977 1649.078534 2055.062502 1651.340373 C2053.106028 1653.602212 2048.618532 1653.607311 2047.709393 1650.758245 C2026.511306 1584.327408 2022.722006 1512.424521 2036.820221 1444.133562 C2037.909237 1438.858429 2039.339967 1433.203074 2043.494003 1429.774230 C2050.844159 1432.873890 2050.651363 1443.205383 2049.272185 1451.062262 C2042.307007 1490.741127 2036.797531 1531.443229 2043.462750 1571.173579 C2047.487957 1595.167215 2055.913951 1618.497382 2056.972589 1642.803269 z"/><path class="selected"  fill="#000000" opacity="1.000000" stroke="none" 
 	d="
M2006.601661 382.737293 C2063.767479 375.942506 2121.488393 375.764658 2179.056365 375.595671 C2188.430128 375.568155 2197.803891 375.540639 2207.177653 375.513123 C2213.537899 375.494453 2221.833161 377.042897 2222.701918 383.343559 C2215.391916 389.171889 2205.200604 389.242295 2195.852519 389.105186 C2137.660157 388.251674 2079.431856 389.851745 2021.374183 393.899720 C2017.474758 394.171601 2013.332063 394.405519 2009.892084 392.549181 C2006.452106 390.692844 2004.302659 385.898636 2006.601655 382.737298 z"/><path class="selected"  fill="#000000" opacity="1.000000" stroke="none" 
 	d="
M523.150515 119.284550 C511.481608 125.727770 497.387292 128.105813 484.503708 124.686498 C471.620124 121.267182 460.240760 111.764155 455.628066 99.258096 C454.257743 95.542850 453.477638 91.634201 452.935139 87.711633 C449.142176 60.286425 457.336071 31.415249 474.970171 10.071231 C477.905412 6.518465 481.209367 3.079001 485.432066 1.233303 C489.654764 -0.612395 494.996506 -0.537041 498.470301 2.491249 C477.352591 20.924187 465.060142 49.052868 465.878016 77.071825 C466.207309 88.352807 469.104535 100.503629 477.893672 107.583181 C485.767894 113.925779 496.712070 114.843680 506.779939 113.910976 C512.996181 113.335093 521.226808 113.345467 523.150518 119.284545 z"/><path class="selected"  fill="#000000" opacity="1.000000" stroke="none" 
 	d="
M644.284679 1278.006734 C641.688829 1278.342059 639.054435 1277.802403 636.441941 1277.962886 C633.829446 1278.123368 630.974053 1279.265127 630.025678 1281.704690 C628.781543 1284.905061 625.108641 1286.957471 621.730968 1286.339757 C618.353295 1285.722042 615.644528 1282.502543 615.613614 1279.068990 C615.815112 1274.146215 617.445581 1269.290240 620.255779 1265.243376 C623.121059 1261.117203 625.541280 1256.682192 627.460968 1252.040002 C629.949603 1246.021984 631.599820 1239.659428 634.474962 1233.816192 C637.350104 1227.972956 641.737512 1222.499600 647.829969 1220.199205 C657.944439 1226.299112 665.072539 1237.119332 666.684836 1248.820266 C667.687274 1256.095274 675.974589 1259.582458 680.723879 1265.183784 C673.074478 1269.237074 670.017897 1280.094443 674.429256 1287.543095 C672.579854 1291.318328 667.649277 1293.241174 663.732308 1291.714734 C659.815338 1290.188293 657.485962 1285.436248 658.678697 1281.405113 C659.533347 1278.516617 656.092004 1275.988069 653.080173 1276.040102 C650.068342 1276.092136 647.272137 1277.620822 644.284679 1278.006733 M643.139154 1257.138517 C642.630810 1258.113610 642.110294 1259.241501 642.499612 1260.269923 C643.166534 1262.031658 645.667735 1261.919579 647.500032 1261.482334 C649.546695 1260.993932 651.710666 1260.440834 653.175442 1258.930273 C656.001053 1256.016337 654.897618 1251.245005 653.609811 1247.395765 C653.035639 1245.679570 651.380840 1243.557418 649.908334 1244.609428 C649.537992 1244.874014 649.314647 1245.292837 649.104242 1245.696430 C647.115880 1249.510459 645.127517 1253.324488 643.139154 1257.138517 z"/><path class="selected"  fill="#000000" opacity="1.000000" stroke="none" 
 	d="
M681.545103 536.392061 C677.856006 536.132983 673.924002 535.784391 671.012467 533.504143 C668.100932 531.223896 667.015237 526.265863 669.857209 523.899483 C671.388039 522.624830 673.528596 522.460301 675.517829 522.354799 C697.698005 521.178438 719.892941 520.280390 742.095650 519.660938 C748.940020 519.469981 756.435716 519.516449 761.732447 523.855401 C763.699642 525.466879 765.260046 528.398643 763.761661 530.453286 C762.976115 531.530458 761.601376 531.969629 760.315364 532.321129 C747.466240 535.833123 733.976421 536.986507 720.717601 535.706749 C718.991953 535.540187 718.633324 538.091553 718.975755 539.791066 C720.042579 545.085765 721.109401 550.380464 722.176222 555.675162 C722.794120 558.741825 724.463455 562.621333 727.566039 562.221099 C733.135753 561.502606 738.705467 560.784112 744.275181 560.065618 C748.764775 559.486459 753.752781 559.025286 757.412164 561.690017 C761.071547 564.354748 761.199691 571.426337 756.801709 572.498544 C736.478051 577.453345 715.245715 576.558528 694.347268 575.633346 C690.981878 575.484360 687.437999 575.280997 684.606228 573.456410 C681.774457 571.631824 680.077308 567.588366 681.940264 564.781689 C683.712413 562.111817 687.481716 561.896842 690.685563 561.960848 C694.030741 562.027677 697.375918 562.094506 700.721096 562.161335 C703.686222 562.220571 707.484875 561.684653 708.206653 558.808107 C708.465974 557.774618 708.215063 556.689507 707.964512 555.653856 C706.774565 550.735213 705.584618 545.816570 704.394670 540.897927 C704.182812 540.022212 703.935947 539.087184 703.253937 538.498437 C702.549170 537.890047 701.549768 537.796947 700.621016 537.731722 C694.262378 537.285169 687.903741 536.838615 681.545103 536.392061 z"/><path class="selected"  fill="#000000" opacity="1.000000" stroke="none" 
 	d="
M1420.392412 95.701532 C1421.807927 98.683112 1422.421320 102.218515 1421.220638 105.292905 C1420.019956 108.367294 1416.653534 110.697230 1413.431441 109.981950 C1410.080936 109.238163 1408.098342 105.735418 1407.276540 102.403190 C1406.454738 99.070962 1406.337062 95.502602 1404.745398 92.461927 C1402.705091 88.564170 1398.336864 85.667075 1398.123340 81.272787 C1397.962040 77.953289 1400.318704 75.012365 1400.722487 71.713570 C1401.554331 64.917641 1394.118671 58.078369 1397.329963 52.031534 C1398.984968 48.915176 1402.775955 47.735220 1406.189552 46.841866 C1424.394952 42.077434 1442.600352 37.313001 1460.805751 32.548568 C1464.821072 31.497741 1469.173307 30.463485 1473.020259 32.021688 C1476.867211 33.579891 1479.334069 38.954034 1476.546151 42.028859 C1475.302540 43.400451 1473.411309 43.942237 1471.623338 44.422853 C1452.408807 49.587818 1433.194276 54.752783 1413.979745 59.917748 C1412.483327 60.319993 1412.479598 62.423558 1412.806132 63.938300 C1413.281340 66.142721 1413.791274 68.424947 1415.152450 70.222861 C1416.513625 72.020775 1418.983936 73.189906 1421.074495 72.344415 C1430.341428 68.596557 1440.518806 67.123414 1450.468108 68.089784 C1453.036698 68.339269 1455.812508 68.864769 1457.515986 70.803340 C1459.219464 72.741911 1458.885105 76.487949 1456.405696 77.203787 C1447.640951 79.734280 1438.876207 82.264774 1430.111463 84.795267 C1427.431430 85.569027 1424.659314 86.391591 1422.551730 88.218985 C1420.444145 90.046379 1419.196068 93.181603 1420.392411 95.701531 z"/><path class="selected"  fill="#000000" opacity="1.000000" stroke="none" 
 	d="
M798.357425 1261.912534 C798.424121 1265.401018 798.490817 1268.889502 798.557513 1272.377986 C798.648276 1277.125244 798.089418 1282.956733 793.745573 1284.873943 C790.230652 1286.425298 785.934696 1284.180100 784.044454 1280.835199 C782.154212 1277.490299 782.132845 1273.421117 782.520671 1269.598688 C782.775495 1267.087131 783.177924 1264.495638 782.441155 1262.081093 C781.704385 1259.666548 779.394543 1257.499780 776.903634 1257.909934 C770.446735 1258.973127 763.494217 1255.719557 760.173632 1250.080795 C758.912867 1247.939861 758.152010 1245.294554 759.020783 1242.966817 C759.889556 1240.639080 762.875750 1239.070599 765.004115 1240.352468 C768.163567 1242.255338 772.063504 1242.303178 775.751463 1242.258351 C793.867474 1242.038150 811.972473 1240.914439 829.976675 1238.892789 C832.162846 1238.647309 834.754846 1238.088933 835.542024 1236.034680 C836.423625 1233.734013 839.856362 1233.446477 841.817832 1234.937424 C843.779302 1236.428372 844.590612 1238.960113 845.187526 1241.350507 C847.715799 1251.475194 848.361090 1261.962546 848.925672 1272.382849 C849.084152 1275.307872 849.223676 1278.328223 848.211278 1281.077027 C847.198881 1283.825832 844.722135 1286.255297 841.792851 1286.268253 C837.406743 1286.287653 834.747288 1281.237337 834.503398 1276.857972 C834.259508 1272.478608 835.350114 1267.924412 833.893989 1263.787020 C833.193105 1261.795545 832.086553 1259.187763 833.776463 1257.922294 C835.212675 1256.846804 834.474245 1254.335300 832.888744 1253.495319 C831.303243 1252.655338 829.381017 1252.960871 827.616829 1253.288016 C819.749926 1254.746828 811.883024 1256.205639 804.016121 1257.664450 C801.481105 1258.134534 798.308141 1259.334771 798.357423 1261.912533 z"/><path class="selected"  fill="#000000" opacity="1.000000" stroke="none" 
 	d="
M925.887816 80.711460 C928.811694 81.942150 931.540124 84.556358 934.640272 83.883497 C935.899130 83.610271 936.967968 82.814838 938.081594 82.167371 C945.715977 77.728697 955.728214 80.345196 962.900271 85.497597 C972.381092 92.308613 978.687334 103.363438 979.724815 114.990971 C979.402726 118.481238 975.037503 120.485715 971.700472 119.413370 C968.363441 118.341025 966.117194 115.177101 964.816570 111.922247 C963.515945 108.667392 962.914814 105.159081 961.516275 101.945082 C959.181420 96.579318 954.578061 92.245077 949.081538 90.237292 C947.204541 95.000833 950.381605 100.071153 952.584015 104.693254 C954.786425 109.315355 955.330195 116.182069 950.670529 118.303848 C947.157441 119.903533 942.998281 117.387522 940.912615 114.139326 C938.826948 110.891130 938.024280 106.979640 936.175958 103.590764 C934.043628 99.681159 930.628677 96.651551 927.209975 93.797726 C926.105361 92.875631 924.906879 91.924821 923.477460 91.759914 C922.048042 91.595008 920.391772 92.596605 920.424553 94.035130 C920.546643 99.392818 920.668734 104.750505 920.790825 110.108192 C920.889701 114.447111 920.732498 119.396563 917.445412 122.230476 C914.771472 124.535774 910.385738 124.509242 907.739885 122.171760 C904.590825 119.389720 904.385320 114.633706 904.413955 110.431860 C904.458190 103.941204 904.502424 97.450547 904.546659 90.959890 C904.558790 89.179870 904.612429 87.267999 905.665539 85.832876 C906.504590 84.689463 907.843198 84.043018 909.127085 83.440494 C914.414212 80.959266 920.504828 78.445706 925.887816 80.711461 z"/><path class="selected"  fill="#000000" opacity="1.000000" stroke="none" 
 	d="
M1543.796079 108.800878 C1541.075994 110.760925 1537.043414 110.036666 1534.546661 107.799062 C1532.049908 105.561459 1530.875229 102.171302 1530.469171 98.843275 C1530.205226 96.680003 1530.200302 94.401795 1529.170837 92.480958 C1528.141371 90.560122 1525.595218 89.211980 1523.741318 90.357609 C1518.884112 93.359151 1511.056988 91.937907 1508.533340 97.059714 C1505.952681 102.297227 1497.371544 102.940523 1494.038843 98.146313 C1491.815680 94.948212 1492.057483 90.689516 1492.630340 86.836966 C1494.613548 73.499576 1499.527956 60.605964 1506.925310 49.332179 C1507.861812 47.904922 1509.018465 46.383060 1510.702552 46.103865 C1511.845370 45.914403 1512.994591 46.351290 1514.038142 46.854213 C1522.871622 51.111370 1528.234453 60.156062 1532.765528 68.852216 C1534.665087 72.497900 1536.784416 76.439385 1540.546679 78.096101 C1541.390807 78.467814 1541.710310 79.478102 1541.936042 80.372399 C1543.207337 85.409021 1544.478635 90.445643 1545.749932 95.482264 C1546.920530 100.119930 1547.676672 106.004588 1543.796079 108.800878 M1513.865277 78.287492 C1515.855721 79.088576 1518.263558 77.913477 1519.311181 76.041021 C1520.358804 74.168566 1520.251859 71.828443 1519.558981 69.797797 C1518.740402 67.398748 1517.138897 65.273924 1515.058127 63.826205 C1514.429318 65.042801 1513.800511 66.259397 1513.171703 67.475992 C1512.231871 69.294350 1511.272598 71.180614 1511.148346 73.223718 C1511.024094 75.266821 1511.966417 77.523267 1513.865277 78.287491 z"/><path class="selected"  fill="#000000" opacity="1.000000" stroke="none" 
 	d="
M741.166362 1282.006990 C732.597797 1281.571398 724.046262 1280.800888 715.537839 1279.697808 C710.254725 1279.012875 707.151465 1273.201480 706.616159 1267.901115 C706.080852 1262.600749 707.193408 1257.177754 706.139665 1251.955680 C705.314000 1247.863902 703.223922 1243.448493 705.214743 1239.779569 C707.105304 1236.295417 711.654862 1235.480062 715.595801 1235.052821 C718.246063 1234.765504 720.896325 1234.478186 723.546587 1234.190869 C730.644279 1233.421402 739.041887 1233.153617 743.520983 1238.713025 C746.579325 1242.509008 746.671877 1248.090475 744.769676 1252.578746 C742.867475 1257.067017 739.271828 1260.622387 735.437555 1263.632585 C734.164202 1264.632265 734.664093 1266.848920 735.994746 1267.770957 C737.325398 1268.692994 739.077024 1268.670617 740.689278 1268.524250 C744.851470 1268.146386 749.025914 1267.179104 753.167142 1267.741992 C757.308370 1268.304879 761.570741 1270.925827 762.369634 1275.028068 C762.759604 1277.030529 760.880250 1278.732702 759.059081 1279.652083 C753.625120 1282.395310 747.245649 1282.316036 741.166362 1282.006990 M722.550089 1253.018838 C723.853734 1251.706299 725.157379 1250.393761 726.461023 1249.081222 C725.309066 1247.435487 722.572539 1247.260258 721.220087 1248.745624 C719.867635 1250.230990 720.297875 1252.939158 722.044074 1253.932248 z"/><path class="selected"  fill="#000000" opacity="1.000000" stroke="none" 
 	d="
M1050.624741 1288.505058 C1052.115411 1291.803427 1050.811427 1295.850095 1048.316475 1298.472413 C1045.821523 1301.094731 1042.359501 1302.554144 1038.927052 1303.702894 C1031.727090 1306.112529 1023.257703 1307.299491 1016.978099 1303.031897 C1010.517896 1298.641570 1008.626955 1290.124002 1007.251483 1282.435226 C1006.515700 1278.322258 1005.807246 1273.933011 1007.441436 1270.087586 C1009.208747 1265.928913 1008.922367 1261.220947 1008.552710 1256.717471 C1008.183053 1252.213995 1007.782739 1247.537568 1009.354478 1243.301109 C1010.926217 1239.064651 1015.111385 1235.422123 1019.584186 1236.063991 C1023.701491 1236.654843 1027.833377 1235.458857 1031.901870 1234.593593 C1035.970362 1233.728330 1040.402924 1233.229232 1044.130445 1235.075012 C1047.857966 1236.920791 1050.246604 1241.943546 1047.968029 1245.423404 C1046.324257 1247.933789 1043.069142 1248.723592 1040.126503 1249.310879 C1037.140850 1249.906750 1034.155198 1250.502621 1031.169546 1251.098493 C1028.203713 1251.690409 1024.932625 1252.477240 1023.240065 1254.983586 C1021.547506 1257.489933 1023.248585 1261.985041 1026.226836 1261.459157 C1031.741402 1260.485423 1037.255968 1259.511689 1042.770533 1258.537955 C1045.658111 1258.028081 1048.972402 1257.623257 1051.216283 1259.510866 C1053.605596 1261.520815 1053.570703 1265.427388 1051.890373 1268.058966 C1050.210043 1270.690543 1047.325496 1272.287168 1044.457883 1273.522282 C1038.887737 1275.921406 1032.909778 1277.370382 1026.859326 1277.787930 C1023.733056 1278.003678 1021.357440 1281.392666 1021.871271 1284.483958 C1022.385102 1287.575251 1025.366632 1289.942472 1028.494015 1290.141436 C1030.247055 1290.252965 1031.979366 1289.784743 1033.673554 1289.320723 C1037.883189 1288.167750 1042.092824 1287.014777 1046.302459 1285.861804 C1048.077132 1285.375740 1049.866950 1286.828312 1050.624741 1288.505057 z"/><path class="selected"  fill="#000000" opacity="1.000000" stroke="none" 
 	d="
M1102.592593 380.110021 C1100.744286 384.203974 1095.198127 384.623833 1090.709228 384.461140 C1053.929822 383.128126 1017.078149 383.791450 980.370542 386.447218 C976.696057 386.713065 972.756219 386.940537 969.587768 385.060794 C966.419318 383.181051 964.816086 378.296255 967.482921 375.754502 C969.039220 374.271197 971.390399 374.097270 973.538390 374.005641 C1011.338277 372.393167 1049.138164 370.780694 1086.938051 369.168221 C1090.781412 369.004271 1094.819129 368.879699 1098.254518 370.610712 C1101.689907 372.341725 1104.175497 376.603924 1102.592591 380.110020 z"/><path class="selected"  fill="#000000" opacity="1.000000" stroke="none" 
 	d="
M1127.942677 1275.245063 C1129.489686 1279.448667 1128.585220 1284.458404 1125.665939 1287.855658 C1122.746659 1291.252911 1117.930069 1292.900936 1113.541538 1292.004095 C1109.679204 1291.214788 1105.697095 1292.114743 1101.756712 1292.233126 C1097.816329 1292.351509 1093.385863 1291.382089 1091.254470 1288.065796 C1089.123076 1284.749504 1091.515234 1279.055605 1095.413834 1279.640025 C1100.481584 1280.399708 1105.789602 1279.456141 1110.285073 1276.996478 C1104.672278 1271.337440 1096.361173 1269.530834 1089.324446 1265.787486 C1082.287720 1262.044139 1075.875534 1254.041377 1078.920473 1246.675475 C1081.213482 1241.128535 1087.668754 1238.805297 1093.420718 1237.090262 C1095.633523 1236.430482 1097.846327 1235.770701 1100.059130 1235.110920 C1103.550570 1234.069895 1107.228975 1233.019954 1110.785499 1233.810538 C1114.342023 1234.601121 1117.616583 1237.930403 1116.987776 1241.519064 C1116.312103 1245.375196 1111.933195 1247.228126 1108.128809 1248.151668 C1104.324423 1249.075210 1099.917237 1250.151957 1098.253465 1253.695705 C1103.935706 1256.943267 1109.617948 1260.190829 1115.300190 1263.438391 C1120.416567 1266.362545 1125.907374 1269.714643 1127.942677 1275.245063 z"/><path class="selected"  fill="#000000" opacity="1.000000" stroke="none" 
 	d="
M276.925614 373.495941 C280.046628 373.409730 283.367531 373.383187 286.027092 375.018701 C288.686652 376.654214 290.150275 380.611764 288.124515 382.987572 C286.700510 384.657643 284.254519 384.902653 282.063310 385.027261 C242.699448 387.265777 203.335588 389.504293 163.971728 391.742810 C157.503196 392.110658 150.160123 392.158716 145.640967 387.516040 C144.678560 386.527325 143.865796 385.066274 144.455706 383.818963 C145.039959 382.583618 146.628951 382.281641 147.987786 382.136767 C190.831740 377.568909 233.855273 374.685667 276.925614 373.495941 z"/><path class="selected"  fill="#000000" opacity="1.000000" stroke="none" 
 	d="
M598.644880 98.777645 C598.707374 100.930061 597.162061 102.763070 595.634685 104.280939 C586.489070 113.369629 574.531445 119.588454 561.838945 121.857155 C556.254368 122.855361 550.083281 122.989010 545.368682 119.833623 C539.620142 115.986240 537.697389 108.299578 538.121242 101.395347 C538.642454 92.905212 542.078474 84.621009 547.719376 78.254356 C549.419718 76.335250 552.271882 76.033725 554.835884 76.038555 C570.213857 76.067535 585.469968 82.685351 595.998375 93.894076 C597.295591 95.275115 598.589891 96.883703 598.644880 98.777645 M584.914244 96.677130 C585.369468 92.820288 580.799493 90.543749 577.072340 89.452514 C572.795787 88.200426 568.351060 86.935336 563.945877 87.606901 C559.540695 88.278466 555.183689 91.472159 554.689188 95.900714 C554.453340 98.012861 555.012194 100.448316 553.616751 102.051290 C551.732602 104.215643 553.621539 107.896420 556.345333 108.799403 C559.069128 109.702385 562.022623 108.751780 564.732160 107.806878 C569.705200 106.072619 574.687344 104.334708 579.470105 102.129268 C581.912502 101.003024 584.598983 99.348149 584.914244 96.677131 z"/><path class="selected"  fill="#000000" opacity="1.000000" stroke="none" 
 	d="
M1603.353969 104.648923 C1598.682668 105.503848 1594.011366 106.358774 1589.340065 107.213700 C1582.426546 108.478988 1574.361792 109.435241 1569.219816 104.643813 C1567.241554 102.800418 1565.935457 99.933985 1566.777559 97.364453 C1567.619661 94.794922 1571.210743 93.289126 1573.234563 95.082385 C1576.545989 98.016564 1581.501964 94.594035 1585.893259 94.054163 C1587.950087 93.801293 1590.120565 94.222055 1592.052697 93.472822 C1593.984829 92.723589 1595.305511 89.934204 1593.723289 88.595900 C1593.113950 88.080497 1592.274418 87.958144 1591.482879 87.856161 C1588.890629 87.522174 1586.298379 87.188186 1583.706129 86.854198 C1577.666910 86.076099 1571.261451 85.142537 1566.612568 81.209916 C1561.963686 77.277296 1560.284333 69.228727 1564.872221 65.225117 C1566.070522 64.179422 1567.548612 63.519044 1569.005537 62.881257 C1575.840020 59.889373 1583.132344 57.000182 1590.539373 57.893178 C1593.154825 58.208499 1595.921934 59.150137 1597.356738 61.359515 C1598.791542 63.568894 1598.013838 67.213436 1595.455693 67.842649 C1591.035857 68.929773 1587.050998 71.696696 1584.488081 75.458111 C1592.954726 76.830694 1601.122353 80.019391 1608.279406 84.746406 C1612.590648 87.593850 1616.972147 92.267027 1615.540900 97.231529 C1614.148921 102.059830 1608.296820 103.744301 1603.353971 104.648925 z"/><path class="selected"  fill="#000000" opacity="1.000000" stroke="none" 
 	d="
M887.450767 1266.144622 C885.644511 1268.943324 883.769735 1272.345858 885.046778 1275.422292 C886.024700 1277.778135 888.558968 1279.069165 890.990812 1279.838881 C894.307763 1280.888748 897.801195 1281.340823 901.280209 1281.311863 C907.491737 1281.260156 913.588864 1279.696624 919.528434 1277.878039 C922.720716 1276.900621 926.195926 1279.794764 926.575185 1283.111716 C926.954444 1286.428669 924.885195 1289.654951 922.130316 1291.540861 C919.375438 1293.426771 916.029691 1294.211719 912.748510 1294.828047 C905.552410 1296.179742 898.094882 1296.893653 890.936176 1295.356171 C883.777469 1293.818689 876.901360 1289.769989 873.279781 1283.406414 C867.077079 1272.507476 871.963931 1258.493424 879.445187 1248.429073 C882.979961 1243.673829 887.533854 1239.070833 893.388300 1238.158457 C899.242747 1237.246081 906.093501 1241.936826 905.255881 1247.802435 C904.918166 1250.167365 902.815055 1252.538336 900.479735 1252.035125 C897.521391 1251.397663 895.101817 1254.289711 893.460797 1256.832387 C891.457454 1259.936466 889.454111 1263.040544 887.450767 1266.144622 z"/><path class="selected"  fill="#000000" opacity="1.000000" stroke="none" 
 	d="
M1631.791723 84.631381 C1631.039321 78.835559 1630.537310 72.948790 1628.669117 67.410964 C1627.335758 63.458529 1625.317444 59.721676 1624.482479 55.634817 C1623.647515 51.547957 1624.266698 46.798758 1627.426877 44.076104 C1631.583986 47.241101 1635.064089 51.290870 1637.567638 55.876828 C1639.444604 59.315021 1644.609039 57.456167 1648.510377 57.807939 C1650.522536 57.989370 1652.392910 58.891114 1654.172148 59.848199 C1663.973181 65.120360 1672.594325 72.571619 1679.230198 81.505887 C1681.983566 85.212909 1684.490393 89.504835 1684.236405 94.115533 C1683.982417 98.726232 1679.803814 103.331089 1675.280032 102.404561 C1672.303250 101.794879 1670.176170 99.093522 1669.045354 96.273202 C1667.914538 93.452883 1667.514747 90.388027 1666.462989 87.537282 C1663.981384 80.810995 1658.186391 75.953139 1652.630662 71.421564 C1651.587513 70.570711 1649.956019 69.743874 1649.057034 70.745839 C1645.549798 74.654859 1647.153299 80.705461 1648.232651 85.845123 C1649.312004 90.984784 1648.587335 97.912374 1643.515738 99.276199 C1640.224091 99.143556 1637.027605 97.463463 1635.051735 94.827469 C1632.886593 91.938967 1632.256452 88.211228 1631.791723 84.631381 z"/><path class="selected"  fill="#000000" opacity="1.000000" stroke="none" 
 	d="
M946.406285 567.843173 C944.037501 568.160561 940.939766 567.553408 939.829169 569.669642 C937.257946 568.636077 934.686722 567.602512 932.115498 566.568947 C931.498124 566.320777 930.839830 566.067831 930.184771 566.184604 C927.984599 566.576818 928.445792 569.785608 928.233894 572.010397 C927.859595 575.940380 923.256070 578.504997 919.405507 577.634344 C915.554945 576.763690 912.701020 573.322968 911.423647 569.587571 C910.146274 565.852175 910.172607 561.814839 910.212652 557.867275 C910.263197 552.884580 910.368171 547.678852 912.719999 543.285823 C914.141576 540.630429 916.388347 538.230068 916.595213 535.225204 C916.694230 533.786909 916.309476 532.281103 916.820118 530.932867 C917.731418 528.526782 920.836788 527.959896 923.409217 527.911713 C927.839606 527.828731 932.388802 528.208648 936.408162 530.074118 C940.427521 531.939588 943.857261 535.513391 944.598429 539.882132 C945.339597 544.250874 942.776474 549.213006 938.489374 550.333722 C938.618357 552.150895 940.474497 553.371104 942.254314 553.759703 C944.034131 554.148301 945.917840 554.010485 947.647208 554.583234 C950.553999 555.545932 952.587864 558.658196 952.302550 561.706936 C952.017235 564.755676 949.441225 567.436527 946.406285 567.843173 z"/><path class="selected"  fill="#000000" opacity="1.000000" stroke="none" 
 	d="
M840.248417 93.759698 C848.999303 96.056095 857.380903 99.753707 864.976562 104.668724 C866.810717 105.855573 868.671811 107.194223 869.650127 109.147587 C871.400307 112.642099 869.664943 117.079360 866.684228 119.607221 C863.703513 122.135083 859.779818 123.192394 855.985170 124.128017 C850.244284 125.543513 844.457857 126.846445 838.576401 127.454611 C834.947983 127.829805 831.054310 127.882062 827.926406 126.005255 C824.798501 124.128449 822.977679 119.676927 825.059548 116.681596 C827.321153 113.427666 832.127255 113.842562 836.081187 114.105855 C840.487046 114.399242 844.935089 114.051444 849.241800 113.076811 C850.749561 112.735597 852.569309 111.905625 852.525715 110.360352 C852.480737 108.765988 850.527524 108.072030 848.961749 107.768109 C842.504297 106.514702 836.135383 104.805382 829.918107 102.657085 C826.592172 101.507854 823.239679 100.192615 820.556468 97.916004 C817.873257 95.639394 815.933866 92.218062 816.266624 88.714943 C816.603822 85.165084 819.206896 82.150197 822.300576 80.376968 C825.394256 78.603739 828.955358 77.863610 832.448748 77.148474 C838.010932 76.009833 844.360373 75.032661 848.889958 78.455708 C852.082080 80.868023 853.018545 86.717388 849.402777 88.430609 C847.907234 89.139227 846.160903 88.892918 844.512345 88.747842 C842.863787 88.602765 841.028668 88.635166 839.791473 89.734320 C838.554278 90.833473 838.647687 93.339636 840.248417 93.759698 z"/><path class="selected"  fill="#000000" opacity="1.000000" stroke="none" 
 	d="
M642.464882 118.988744 C640.307916 120.936320 640.029878 124.393693 637.826741 126.288882 C635.544898 128.251775 631.850104 127.746782 629.538148 125.819448 C627.226193 123.892114 626.063556 120.911729 625.416817 117.972089 C624.432336 113.497306 624.434163 108.872271 624.440433 104.290475 C624.451339 96.320856 624.462245 88.351237 624.473151 80.381617 C624.491346 67.085662 624.517118 53.703260 626.924817 40.627108 C627.106353 39.641192 627.317418 38.620434 627.919328 37.818755 C629.202484 36.109725 631.903414 36.042585 633.721963 37.165150 C635.540512 38.287715 636.639103 40.267596 637.473563 42.235068 C641.247331 51.132773 641.141236 61.127582 640.974180 70.791047 C640.738529 84.422150 640.502881 98.053254 640.267232 111.684358 C640.221529 114.328033 640.363798 117.383577 642.464880 118.988745 z"/><path class="selected"  fill="#000000" opacity="1.000000" stroke="none" 
 	d="
M1803.178732 60.605226 C1808.433904 61.471133 1813.583677 62.974844 1818.479078 65.072859 C1823.524355 67.235105 1828.277265 70.014789 1833.015013 72.786769 C1835.503354 74.242657 1837.998471 75.703042 1840.296757 77.443539 C1844.613150 80.712352 1848.155374 84.913512 1851.155120 89.421051 C1853.146062 92.412720 1854.970129 95.767310 1854.848241 99.358839 C1854.726354 102.950367 1851.934832 106.665969 1848.342659 106.564813 C1843.976811 106.441869 1841.702138 101.531504 1839.565662 97.722146 C1834.084502 87.949185 1823.976072 81.842285 1814.309889 76.174942 C1811.473051 74.511686 1807.230781 73.123092 1805.425914 75.872006 C1804.473454 77.322666 1804.819918 79.239442 1805.275783 80.913889 C1806.310941 84.716142 1807.732451 88.413095 1809.511333 91.929379 C1811.908783 96.668385 1806.906720 103.162397 1801.712735 102.054040 C1797.299792 101.112352 1794.888217 96.396278 1793.518299 92.096957 C1791.995273 87.317123 1790.987187 82.373397 1790.517097 77.378857 C1790.192893 73.934297 1790.139497 70.366543 1791.339819 67.121651 C1792.540141 63.876759 1795.223810 60.995788 1798.634832 60.416972 C1800.136547 60.162146 1801.675816 60.357587 1803.178732 60.605226 z"/><path class="selected"  fill="#000000" opacity="1.000000" stroke="none" 
 	d="
M1727.876049 86.763476 C1726.062694 81.710029 1727.405339 75.931312 1730.276294 71.394441 C1734.903893 64.081606 1743.533388 59.487087 1752.183999 59.730334 C1754.149678 59.785607 1756.140842 60.082568 1757.917156 60.926164 C1760.466231 62.136754 1762.365144 64.358171 1764.183511 66.516145 C1766.633523 69.423731 1769.083534 72.331318 1771.533545 75.238904 C1774.474863 78.729554 1777.602704 82.818494 1776.984868 87.341134 C1776.493873 90.935288 1773.624417 93.846486 1770.340097 95.386700 C1767.055777 96.926914 1763.371681 97.332795 1759.764635 97.717805 C1753.712477 98.363807 1747.525778 99.002762 1741.595136 97.634045 C1735.664494 96.265328 1729.931769 92.492343 1727.876049 86.763476 M1744.680492 81.387116 C1744.671143 82.098324 1744.773204 82.868378 1745.265040 83.382189 C1745.863218 84.007090 1746.828527 84.056205 1747.693544 84.064192 C1750.197862 84.087314 1752.702179 84.110436 1755.206497 84.133559 C1758.401729 84.163061 1762.851903 82.786685 1762.186815 79.661299 C1761.290681 75.450176 1756.946545 72.273288 1752.661898 72.695679 C1748.377251 73.118070 1744.737082 77.082071 1744.680493 81.387116 z"/><path class="selected"  fill="#000000" opacity="1.000000" stroke="none" 
 	d="
M842.874186 529.859498 C853.355353 529.865210 863.836520 529.870922 874.317687 529.876635 C881.842066 529.880735 890.757405 530.636130 894.567930 537.124288 C890.172780 542.668095 882.230890 543.527124 875.168868 543.950184 C872.164500 544.130165 871.795182 548.402263 872.364004 551.357777 C873.224965 555.831190 874.085924 560.304604 874.946884 564.778017 C875.773601 569.073510 872.535822 573.724404 868.220454 574.440170 C863.905086 575.155936 859.339160 571.799398 858.734821 567.467021 C857.854720 561.157771 856.974620 554.848522 856.094519 548.539273 C855.942299 547.448039 855.503019 546.076247 854.402541 546.022312 C849.538145 545.783921 844.664058 545.143425 840.029300 543.647370 C835.861569 542.302067 831.198599 538.808674 832.395960 534.596056 C833.525827 530.620887 838.741562 529.857245 842.874185 529.859497 z"/><path class="selected"  fill="#000000" opacity="1.000000" stroke="none" 
 	d="
M828.956584 561.882250 C831.043428 564.806326 829.574033 569.206197 826.667758 571.317762 C823.761484 573.429328 819.931553 573.748920 816.344062 573.561718 C808.491628 573.151963 800.317148 570.329599 795.567849 564.062799 C793.354589 565.597808 792.363039 568.311812 790.927353 570.590755 C789.491668 572.869697 786.879254 574.975931 784.329212 574.108719 C781.652087 573.198294 780.976353 569.791623 780.735889 566.974167 C780.110533 559.647008 779.485176 552.319852 778.859818 544.992696 C778.701756 543.140712 778.596360 541.095805 779.726326 539.619998 C782.133410 536.476195 787.125982 538.732750 790.162142 541.274263 C796.024143 546.181234 801.497507 551.552359 806.514126 557.320804 C807.980542 559.006987 811.003432 558.165545 812.178851 556.265025 C813.354270 554.364504 813.190941 551.948995 812.851042 549.740362 C812.511143 547.531730 812.039752 545.233562 812.712982 543.102752 C813.812565 539.622511 818.262512 537.665463 821.570716 539.207199 C825.328436 540.958424 826.484616 545.718981 826.650327 549.861418 C826.816038 554.003855 826.548277 558.507741 828.956583 561.882250 z"/><path class="selected"  fill="#000000" opacity="1.000000" stroke="none" 
 	d="
M1009.799270 557.451381 C1011.197785 556.855361 1010.026975 554.759489 1008.788391 553.878016 C1004.880264 551.096696 1000.972140 548.315374 997.064015 545.534053 C995.692113 544.557703 994.193440 543.370609 994.042861 541.693498 C993.865175 539.714486 995.810275 538.051267 997.784542 537.826917 C999.758809 537.602567 1001.689869 538.425266 1003.473572 539.300748 C1010.994726 542.992298 1017.881344 547.972455 1023.742954 553.958842 C1026.431095 556.704205 1029.077253 560.510788 1027.697611 564.096832 C1026.897333 566.176957 1024.922404 567.547807 1022.973072 568.628302 C1011.032282 575.246961 995.785523 575.486361 983.642824 569.245851 C974.695623 564.647607 970.562843 552.504900 974.847277 543.403259 C976.157391 540.620117 978.228329 538.077526 981.037274 536.823687 C983.846218 535.569848 987.445831 535.850006 989.646064 537.999717 C993.491080 541.756442 991.346486 548.188327 988.975469 553.012786 C989.567729 556.270574 992.865380 558.369962 996.092540 559.111166 C1000.653211 560.158648 1005.494491 559.285995 1009.799270 557.451381 z"/><path class="selected"  fill="#000000" opacity="1.000000" stroke="none" 
 	d="
M1210.520496 95.821412 C1209.655009 87.415235 1200.686718 82.678108 1192.885648 79.429080 C1190.457409 78.417754 1187.792159 77.389152 1185.265194 78.119613 C1182.738229 78.850074 1180.944763 82.261994 1182.715893 84.206788 C1187.424513 89.377099 1187.142601 97.226465 1186.579650 104.196852 C1186.330039 107.287511 1183.808622 110.050635 1180.753653 110.581338 C1177.698684 111.112041 1174.393105 109.361172 1173.115767 106.535771 C1172.330393 104.798568 1172.247117 102.747513 1171.141138 101.194612 C1173.556288 95.398531 1172.435499 88.832815 1172.486970 82.553892 C1172.538442 76.274969 1174.548061 69.059570 1180.331088 66.613324 C1185.046497 64.618685 1190.411332 66.571352 1195.147778 68.515511 C1198.799514 70.014431 1202.451251 71.513351 1206.102987 73.012271 C1208.725258 74.088629 1211.361387 75.171997 1213.770395 76.665829 C1223.051161 82.420858 1227.861259 94.539191 1225.053684 105.092413 C1224.638940 106.651368 1224.004323 108.269414 1222.682589 109.194276 C1220.666308 110.605134 1217.901229 109.893614 1215.614448 108.984470 C1214.428477 108.512969 1213.226368 107.980392 1212.332133 107.069797 C1209.599403 104.287072 1210.919941 99.701079 1210.520496 95.821412 z"/><path class="selected"  fill="#000000" opacity="1.000000" stroke="none" 
 	d="
M697.615767 110.155654 C691.456460 114.924299 684.702190 119.912450 676.913829 120.048343 C669.331095 120.180648 661.941940 115.049213 659.417386 107.897851 C656.892831 100.746490 659.422872 92.113407 665.408154 87.455967 C667.033924 86.190876 669.249795 86.039582 671.308397 86.115341 C682.236125 86.517493 692.856829 92.137216 699.336467 100.945806 C700.338536 102.308043 701.285010 103.896094 701.087014 105.575567 C700.856321 107.532388 699.173770 108.949421 697.615769 110.155655 M680.519115 97.154267 C678.718533 95.404269 675.212520 96.571984 674.535779 98.989961 C673.859039 101.407937 675.845037 104.087895 678.325422 104.478122 C680.805808 104.868349 683.347270 103.228713 684.372493 100.936661 C683.098247 99.630841 681.824003 98.325019 680.549759 97.019197 z"/><path class="selected"  fill="#000000" opacity="1.000000" stroke="none" 
 	d="
M1152.670130 106.254293 C1152.299309 107.245586 1151.847355 108.253880 1151.037498 108.935277 C1149.658385 110.095633 1147.581541 110.002741 1145.908142 109.333324 C1140.744673 107.267758 1138.617849 101.034043 1138.411964 95.476562 C1138.206080 89.919081 1139.273339 84.228561 1137.816426 78.861496 C1136.365829 73.517697 1136.519102 67.749410 1138.251439 62.490188 C1138.602777 61.423551 1139.036712 60.346812 1139.821145 59.543185 C1141.967026 57.344801 1145.923750 58.181702 1147.997727 60.448046 C1150.071703 62.714390 1150.753100 65.889737 1151.340511 68.905138 C1151.800975 71.268876 1152.252656 73.634325 1152.695541 76.001420 C1154.574466 86.043747 1156.249678 96.685304 1152.670130 106.254293 z"/><path class="selected"  fill="#000000" opacity="1.000000" stroke="none" 
 	d="
M941.317732 1238.297895 C944.017670 1237.219681 946.998419 1239.495319 948.225378 1242.130993 C950.477126 1246.968049 949.081208 1252.612801 948.015714 1257.840821 C946.749201 1264.055184 946.006668 1270.402650 946.263031 1276.739576 C946.316833 1278.069443 946.423260 1279.432758 946.986983 1280.638435 C948.259699 1283.360497 951.580263 1284.582991 954.582171 1284.448925 C957.584080 1284.314859 960.420308 1283.125741 963.297816 1282.260074 C967.608493 1280.963256 973.587231 1281.183826 975.051935 1285.440385 C976.529271 1289.733653 971.935205 1293.543026 967.879472 1295.584028 C959.482434 1299.809744 948.918922 1302.920477 941.100797 1297.700914 C934.044892 1292.990227 932.275894 1283.444142 932.167204 1274.960950 C932.065892 1267.053569 932.861138 1259.135044 934.532822 1251.405723 C935.353258 1247.612290 936.426423 1243.772784 938.688666 1240.619135 C939.379587 1239.655966 940.216910 1238.737505 941.317731 1238.297895 z"/><path class="selected"  fill="#000000" opacity="1.000000" stroke="none" 
 	d="
M729.754549 87.459824 C736.115729 86.893263 742.476909 86.326703 748.838089 85.760142 C752.582776 85.426620 757.465065 85.811562 758.537474 89.414874 C759.628401 93.080403 755.430649 96.183128 751.670481 96.881240 C747.910313 97.579352 743.638487 97.349148 740.789027 99.899991 C737.193206 103.118983 737.884863 108.858935 739.139689 113.519109 C740.041989 116.870073 741.091591 120.354281 740.381201 123.751111 C739.670810 127.147941 736.462246 130.313807 733.066838 129.596655 C730.991358 129.158288 729.443171 127.452546 728.183020 125.746146 C722.457698 117.993353 719.580921 108.184219 720.212112 98.567217 C720.474401 94.570917 721.739773 90.054996 725.371609 88.367106 C726.731818 87.734951 728.260534 87.592889 729.754549 87.459824 z"/><path class="selected"  fill="#000000" opacity="1.000000" stroke="none" 
 	d="
M1696.680655 1450.040884 C1696.592367 1451.956942 1693.402584 1452.638338 1692.539117 1450.925592 C1693.581831 1449.962712 1695.177192 1449.646444 1696.508382 1450.138717 z"/><path class="selected"  fill="#000000" opacity="1.000000" stroke="none" 
 	d="
M432.529990 1757.147705 C433.717169 1758.012048 435.054099 1759.291105 434.608089 1760.690233 C433.970099 1762.691607 430.752374 1761.910709 429.614335 1760.145093 C428.476297 1758.379477 428.118745 1756.023545 426.417688 1754.791094 C428.444808 1753.450576 431.641766 1754.733471 432.179934 1757.103406 z"/><path class="selected"  fill="#000000" opacity="1.000000" stroke="none" 
 	d="
M784.103815 90.203085 C785.024176 89.734887 786.142221 89.971355 787.105543 90.343216 C794.573678 93.226064 797.178512 102.518423 797.182789 110.523661 C797.185475 115.544607 795.244238 121.930025 790.232029 122.226091 C787.276956 122.400643 784.635378 120.075614 783.479557 117.350361 C782.323737 114.625108 782.330373 111.567821 782.355351 108.607703 C782.395257 103.878513 782.435164 99.149323 782.475070 94.420134 C782.488482 92.830687 782.687092 90.923790 784.103814 90.203084 z"/><path class="selected"  fill="#000000" opacity="1.000000" stroke="none" 
 	d="
M1687.582482 63.139738 C1690.082125 60.918300 1693.860107 63.584219 1695.982784 66.168256 C1701.664153 73.084469 1706.849598 81.195019 1706.780287 90.145279 C1706.761635 92.553864 1706.240223 95.170455 1704.405203 96.730689 C1701.947209 98.820609 1697.986155 98.107605 1695.560444 95.980301 C1693.134733 93.852996 1691.904252 90.700673 1690.894607 87.636344 C1688.885468 81.538498 1687.402760 75.267301 1686.468373 68.915350 C1686.170309 66.889140 1686.051633 64.500209 1687.582480 63.139739 z"/><path class="selected"  fill="#000000" opacity="1.000000" stroke="none" 
 	d="
M1697.942617 29.607736 C1699.219513 29.647090 1700.328779 30.450849 1701.347818 31.221283 C1703.642276 32.955984 1705.936733 34.690684 1708.231191 36.425385 C1710.897439 38.441175 1713.788113 42.173051 1711.523715 44.631667 C1710.317732 45.941087 1708.266894 45.928988 1706.506685 45.663211 C1700.496190 44.755679 1693.936688 40.747798 1693.909302 34.669237 C1693.898438 32.258123 1695.532622 29.533461 1697.942615 29.607736 z"/><path class="selected"  fill="#000000" opacity="1.000000" stroke="none" 
 	d="
M161.576306 1433.872096 C160.715422 1433.836155 160.687714 1432.231152 161.546844 1432.165517 C162.410235 1432.227204 162.384290 1433.842197 161.519362 1433.876123 z"/><path class="selected"  fill="#000000" opacity="1.000000" stroke="none" 
 	d="
M782.426406 66.150595 C782.718092 65.792676 783.059489 65.475326 783.437722 65.210511 C786.791633 62.862314 792.233127 66.695565 791.151205 70.644260 C790.365303 73.512577 786.661724 75.139367 784.017769 73.777611 C781.373814 72.415855 780.547601 68.456017 782.426406 66.150595 z"/></svg>