<?xml version="1.0" encoding="utf-8"?><!DOCTYPE svg PUBLIC "-//W3C//DTD SVG 1.1//EN" "http://www.w3.org/Graphics/SVG/1.1/DTD/svg11.dtd"><svg version="1.1" id="Contours" xmlns="http://www.w3.org/2000/svg" xmlns:xlink="http://www.w3.org/1999/xlink" x="0px" y="0px" width="2876.061035px" height="2876.061035px" viewBox="-0.000000 -0.000000 2876.061035 1951.590576" enable-background="new 0 0 2876.061035 2876.061035" xml:space="preserve" stroke="black" fill="none" stroke-linecap='round' stroke-linejoin='round'><path class="selected"  fill="#000000" opacity="1.000000" stroke="none" 
 	d="
M254.746376 243.664091 C228.887414 243.690967 201.372963 243.226298 179.726871 229.079448 C1021.272428 231.704165 1862.900319 207.860015 2702.947433 157.594114 C2676.386873 171.496686 2645.418894 173.510702 2615.488396 175.216596 C1829.416885 220.018046 1042.093132 242.845772 254.746376 243.664091 z"/><path class="selected"  fill="#000000" opacity="1.000000" stroke="none" 
 	d="
M1038.373803 397.167183 C1068.494624 392.151120 1097.063388 379.747477 1127.292639 375.432721 C1178.479638 368.126570 1229.841547 384.429855 1281.454914 387.519996 C1344.233026 391.278582 1406.631417 375.430415 1469.521174 375.119439 C1518.859597 374.875470 1567.778267 384.194558 1617.089740 385.843235 C1738.201546 389.892480 1861.418266 347.884418 1978.868724 377.714870 C1915.207075 376.980824 1851.506503 379.634209 1788.126431 385.660053 C1730.224665 391.165048 1672.316102 399.493702 1614.186785 397.518372 C1566.948288 395.913130 1520.055258 387.507527 1472.789503 387.536196 C1407.480853 387.575809 1342.681444 403.718538 1277.464143 400.265288 C1224.804701 397.476978 1171.800837 381.978115 1120.117553 392.448536 C1092.866316 397.969313 1067.116148 410.582886 1039.416697 413.001428 C1011.717246 415.419970 979.345286 403.258130 971.799861 376.496674 C953.694165 384.816990 935.588465 393.137316 917.482764 401.457642 C919.222674 383.791886 933.335784 368.051014 950.707644 364.400708 C968.079505 360.750403 987.334475 369.479724 996.037418 384.951150 C1003.727223 398.621495 1022.902120 399.743705 1038.373803 397.167184 z"/><path class="selected"  fill="#000000" opacity="1.000000" stroke="none" 
 	d="
M1228.867266 492.349890 C1251.219209 488.130672 1274.082790 486.628919 1296.794579 487.888206 C1334.156789 489.959808 1370.984048 499.454199 1408.402306 499.137611 C1469.155325 498.623594 1528.003663 472.298975 1588.674016 475.508619 C1624.639166 477.411284 1659.294829 489.643242 1695.083647 493.677183 C1760.009916 500.995358 1824.513341 481.153830 1889.316900 472.818678 C1908.533808 470.346965 1929.240032 469.161234 1946.091234 478.723447 C1916.395179 483.433400 1886.699125 488.143352 1857.003071 492.853304 C1784.486038 504.354891 1709.171530 515.713183 1638.618207 495.384999 C1565.866521 474.423411 1489.458024 509.185216 1413.766014 510.892710 C1360.336353 512.098001 1306.971791 496.699347 1253.919518 503.152080 C1216.693652 507.679851 1180.586805 522.893233 1143.142776 520.841278 C1123.616029 519.771200 1104.672984 514.017156 1085.333530 511.114665 C1059.662665 507.261948 1033.238702 508.494931 1008.038146 514.721388 C993.974371 518.196212 977.349443 522.667159 966.398877 513.183001 C993.186655 492.996017 1029.576286 491.335610 1062.890631 495.241156 C1096.204976 499.146702 1129.370442 507.781047 1162.806250 505.107910 C1185.180189 503.319151 1206.811438 496.513213 1228.867266 492.349890 z"/><path class="selected"  fill="#000000" opacity="1.000000" stroke="none" 
 	d="
M1759.831573 634.800441 C1715.387104 643.712469 1670.152659 651.719535 1624.958947 648.217612 C1572.048177 644.117719 1520.899601 624.349020 1467.831167 624.032613 C1439.374439 623.862950 1411.151277 629.314647 1382.701821 629.979953 C1325.602256 631.315261 1267.425378 613.478389 1212.137746 627.810911 C1190.311756 633.468986 1170.026266 643.942886 1148.458409 650.516707 C1126.890551 657.090528 1102.574277 659.434734 1082.522952 649.122995 C1070.432611 642.905328 1060.609417 632.443162 1047.746647 628.040337 C1023.105697 619.605933 997.234054 635.832391 977.458698 652.780868 C973.337224 656.313184 968.914664 660.079985 963.521642 660.695708 C958.128620 661.311430 951.886712 656.992995 952.789412 651.640525 C953.332568 648.419947 956.107207 646.119462 958.692066 644.123068 C973.503232 632.683788 988.600570 621.082061 1006.109979 614.475369 C1023.619388 607.868676 1044.221729 606.881920 1060.371268 616.338145 C1069.189537 621.501608 1076.151647 629.405269 1084.955461 634.593339 C1102.309111 644.819811 1124.341958 643.064655 1143.551584 637.004941 C1162.761210 630.945227 1180.596288 621.002159 1199.921610 615.322209 C1244.919173 602.096870 1292.928418 613.037219 1339.774218 615.309080 C1399.176303 618.189880 1459.165126 606.928954 1517.939375 616.011597 C1545.690400 620.300085 1572.605313 629.060287 1600.368733 633.267788 C1664.206613 642.942315 1728.950534 628.200190 1791.759233 613.235609 C1827.096439 604.816287 1863.801009 596.260085 1899.383415 603.574148 C1853.105285 615.015697 1806.572666 625.427893 1759.831573 634.800440 z"/><path class="selected"  fill="#000000" opacity="1.000000" stroke="none" 
 	d="
M15.971206 1873.702381 C25.532912 1875.576842 22.049318 1889.726210 21.932914 1899.469221 C21.790161 1911.416673 30.999425 1921.886338 41.856798 1926.874266 C52.714172 1931.862194 65.001907 1932.466845 76.942661 1932.891540 C228.810478 1938.292994 380.740695 1927.660651 532.332595 1917.034982 C714.944185 1904.235023 897.555775 1891.435063 1080.167365 1878.635104 C1061.997296 1896.197004 1034.535864 1898.881071 1009.325042 1900.609116 C859.089386 1910.906787 708.853733 1921.204467 558.618079 1931.502146 C403.624161 1942.125974 248.448047 1952.755627 93.095635 1951.487295 C74.541399 1951.335815 55.373899 1950.882723 38.490151 1943.187163 C12.668922 1931.417921 -3.136254 1894.682275 15.971206 1873.702383 M1060.207596 1888.391419 C1061.264903 1886.409055 1057.397717 1884.474266 1056.416450 1886.495349 C1055.435183 1888.516433 1059.251619 1890.413013 1060.299004 1888.425389 M944.819045 1897.242252 C944.453221 1898.172620 945.062817 1899.356247 946.032675 1899.598706 C947.002534 1899.841166 948.097406 1899.083648 948.212431 1898.090582 C947.277411 1897.782381 946.342388 1897.474180 945.407366 1897.165979 M758.417808 1904.481411 C758.028836 1905.541968 758.441070 1906.840732 759.370473 1907.482829 C760.003586 1906.696299 760.676408 1905.747896 760.435816 1904.767293 C760.195224 1903.786690 758.446107 1903.490197 758.299257 1904.489147 M820.819045 1903.242252 C820.453221 1904.172620 821.062817 1905.356247 822.032675 1905.598706 C823.002534 1905.841166 824.097406 1905.083648 824.212431 1904.090582 C823.277411 1903.782381 822.342388 1903.474180 821.407366 1903.165979 M862.819045 1903.242252 C862.453221 1904.172620 863.062817 1905.356247 864.032675 1905.598706 C865.002534 1905.841166 866.097406 1905.083648 866.212431 1904.090582 C865.277411 1903.782381 864.342388 1903.474180 863.407366 1903.165979 M814.188148 1908.466873 C814.152206 1907.605989 812.547204 1907.578281 812.481569 1908.437411 C812.543256 1909.300802 814.158249 1909.274857 814.192175 1908.409929 z"/><path class="selected"  fill="#000000" opacity="1.000000" stroke="none" 
 	d="
M1825.600497 1405.929172 C1786.631184 1402.837632 1748.354120 1415.759458 1709.529573 1420.322297 C1644.653331 1427.946853 1577.414355 1412.282930 1514.351380 1429.315894 C1475.420441 1439.830927 1435.604367 1462.631847 1397.368729 1449.817017 C1385.488316 1445.835246 1374.533857 1438.494978 1362.052296 1437.395284 C1335.616505 1435.066140 1310.422846 1461.210738 1285.394662 1452.386569 C1282.843640 1451.487154 1280.033218 1449.621524 1280.199740 1446.921724 C1280.369202 1444.174245 1283.433475 1442.703605 1286.035755 1441.806109 C1297.040184 1438.010810 1308.044613 1434.215511 1319.049041 1430.420212 C1336.066192 1424.551195 1354.352139 1418.621227 1371.726498 1423.328717 C1382.667603 1426.293151 1392.133836 1433.247571 1402.903687 1436.783948 C1433.044888 1446.681083 1464.187464 1428.429738 1494.295259 1418.431441 C1554.503014 1398.437446 1620.183316 1411.620590 1683.429963 1406.661214 C1735.421150 1402.584416 1787.101572 1386.124092 1838.790527 1393.049109 C1859.223119 1395.786561 1879.065001 1402.141987 1899.551355 1404.442805 C1914.275974 1406.096524 1929.146574 1405.634325 1943.956486 1405.169890 C1958.369369 1404.717906 1972.782252 1404.265921 1987.195134 1403.813937 C1984.855014 1412.584656 1974.589056 1416.264156 1965.675433 1417.981423 C1942.636067 1422.420105 1918.829186 1422.845847 1895.645848 1419.233771 C1872.145907 1415.572367 1849.309468 1407.810068 1825.600497 1405.929172 M1312.392217 1441.799101 C1310.716544 1441.845935 1309.118255 1442.959075 1308.493282 1444.514543 C1309.599618 1446.381985 1313.186075 1444.432415 1312.220552 1442.488428 z"/><path class="selected"  fill="#000000" opacity="1.000000" stroke="none" 
 	d="
M1362.854847 1582.853687 C1381.604554 1580.142293 1397.926549 1569.061754 1415.543895 1562.095242 C1441.382901 1551.877600 1470.688448 1550.676536 1497.276914 1558.745481 C1509.393062 1562.422435 1520.905513 1567.938751 1533.107744 1571.319075 C1564.537136 1580.025806 1597.983541 1574.014678 1629.850502 1567.078496 C1663.835273 1559.681349 1697.647331 1551.266864 1732.058337 1546.210676 C1819.688654 1533.334699 1909.632959 1542.451014 1996.873911 1527.157899 C1992.344146 1537.398290 1980.393131 1541.824828 1969.509405 1544.457109 C1915.221711 1557.586837 1858.395105 1551.996093 1802.640148 1555.301878 C1738.982037 1559.076252 1676.685536 1574.477169 1614.070601 1586.559007 C1587.098318 1591.763432 1558.891864 1596.312967 1532.487538 1588.736582 C1516.101471 1584.034809 1501.173121 1574.833733 1484.524470 1571.168726 C1450.078359 1563.585814 1415.593699 1580.604594 1383.731261 1595.731396 C1377.250831 1598.808003 1369.695794 1601.853266 1363.163587 1598.888179 C1356.631379 1595.923092 1355.755029 1583.880398 1362.854842 1582.853690 M1509.947948 1574.618227 C1511.016341 1575.754560 1513.087376 1573.819234 1512.308427 1572.467954 C1511.529478 1571.116675 1509.336765 1571.254774 1508.298091 1572.418335 C1508.976673 1573.091858 1509.655258 1573.765382 1510.333844 1574.438906 M1543.355888 1581.455833 C1544.357306 1581.187007 1543.858712 1579.440105 1542.831522 1579.298740 C1541.804331 1579.157375 1540.905521 1579.941614 1540.166519 1580.668924 C1541.184901 1581.021854 1542.203284 1581.374783 1543.221666 1581.727712 M1505.355888 1571.455833 C1506.357306 1571.187007 1505.858712 1569.440105 1504.831522 1569.298740 C1503.804331 1569.157375 1502.905521 1569.941614 1502.166519 1570.668924 C1503.184901 1571.021854 1504.203284 1571.374783 1505.221666 1571.727712 M1408.336389 1572.993067 C1408.973506 1572.946453 1409.610623 1572.899838 1410.247740 1572.853224 C1410.490423 1571.925435 1408.745035 1571.427703 1408.461854 1572.343946 z"/><path class="selected"  fill="#000000" opacity="1.000000" stroke="none" 
 	d="
M1017.915710 1422.392623 C793.508549 1420.214706 569.027720 1425.635363 344.987232 1438.642182 C254.178866 1443.914122 163.079866 1450.431569 72.367805 1443.702909 C66.802263 1443.290079 60.647189 1442.541616 56.984292 1438.331048 C53.321396 1434.120480 55.286450 1425.548630 60.866177 1425.659672 C392.746361 1432.264419 724.978348 1390.145031 1056.203281 1412.011053 C1046.907425 1421.988838 1031.552121 1422.524973 1017.915713 1422.392643 M483.851419 1423.638371 C484.217243 1422.708003 483.607647 1421.524377 482.637788 1421.281917 C481.667930 1421.039457 480.573058 1421.796975 480.458033 1422.790041 C481.393053 1423.098242 482.328076 1423.406443 483.263098 1423.714644 M798.819045 1413.242252 C798.453221 1414.172620 799.062817 1415.356247 800.032675 1415.598706 C801.002534 1415.841166 802.097406 1415.083648 802.212431 1414.090582 C801.277411 1413.782381 800.342388 1413.474180 799.407366 1413.165979 M855.308670 1413.293227 C856.169555 1413.257286 856.197263 1411.652283 855.338132 1411.586649 C854.474742 1411.648336 854.500687 1413.263328 855.365614 1413.297254 M498.188148 1424.466873 C498.152206 1423.605989 496.547204 1423.578281 496.481569 1424.437411 C496.543256 1425.300802 498.158249 1425.274857 498.192175 1424.409929 M903.361793 1413.587396 C902.500909 1413.623337 902.473201 1415.228340 903.332331 1415.293975 C904.195722 1415.232287 904.169777 1413.617295 903.304849 1413.583369 z"/><path class="selected"  fill="#000000" opacity="1.000000" stroke="none" 
 	d="
M220.541300 1289.776242 C152.123651 1289.144890 82.909220 1288.051844 16.722512 1270.711348 C660.682536 1279.124793 1305.491502 1270.379998 1947.229485 1216.272182 C2256.407869 1190.203962 2566.196611 1153.580348 2876.061107 1169.543434 C2526.085054 1192.803002 2176.109001 1216.062570 1826.132949 1239.322138 C1743.332322 1244.825106 1660.531027 1250.328115 1577.697138 1255.305400 C1125.890435 1282.453353 673.143625 1293.952816 220.541300 1289.776241 M2042.310843 1221.342620 C2040.489134 1221.917437 2038.341805 1221.063275 2037.347912 1219.431952 C2036.332520 1220.452185 2035.317128 1221.472421 2034.301736 1222.492656 C2037.448659 1224.549381 2042.202179 1223.489528 2044.177331 1220.290774 C2043.709842 1219.244736 2041.766840 1220.527578 2042.545134 1221.368414 M1742.553093 1243.917657 C1738.899558 1243.903902 1735.248547 1244.089814 1731.599717 1244.275672 C1721.400804 1244.795166 1711.201891 1245.314660 1701.002978 1245.834154 C1698.313142 1245.971164 1695.062900 1246.485796 1694.061186 1248.985907 C1696.449574 1249.051157 1698.837204 1248.874105 1701.219922 1248.697180 C1710.833628 1247.983331 1720.447334 1247.269482 1730.061039 1246.555632 C1732.611540 1246.366249 1735.220123 1246.181925 1737.689045 1246.849269 C1739.310394 1245.872065 1740.931743 1244.894861 1742.553093 1243.917657 M1529.618784 1258.186439 C1538.883458 1261.074824 1548.880074 1259.038876 1558.365028 1256.986415 C1559.156638 1256.815118 1560.057970 1256.558901 1560.389535 1255.819947 C1560.687925 1255.154933 1560.293336 1254.272543 1559.598750 1254.051568 C1559.226996 1253.933298 1558.825122 1253.987678 1558.438980 1254.043191 C1548.832248 1255.424274 1539.225516 1256.805356 1529.618784 1258.186439 M2172.020580 1208.736232 C2177.913351 1209.534301 2183.882425 1209.767981 2189.819551 1209.433033 C2190.781586 1209.378760 2191.918710 1209.196688 2192.334435 1208.327419 C2193.032234 1206.868336 2191.008583 1205.629694 2189.410970 1205.377750 C2183.460305 1204.439335 2177.193900 1205.649520 2172.020580 1208.736232 M2084.144818 1219.333767 C2090.553258 1219.352228 2096.963645 1218.450306 2103.118198 1216.664271 C2104.444413 1216.279406 2105.994436 1215.580746 2106.134862 1214.206974 C2101.145049 1214.630891 2096.155236 1215.054808 2091.165424 1215.478725 C2088.305327 1215.721709 2084.759404 1216.529933 2084.144816 1219.333764 M2474.685605 1184.454348 C2468.426089 1182.902707 2461.811109 1182.804212 2455.508171 1184.168802 C2453.427134 1184.619348 2451.118681 1185.449566 2450.311789 1187.420006 C2458.478169 1186.828551 2466.615665 1185.838431 2474.685605 1184.454349 M2138.487749 1212.552946 C2131.761153 1209.867310 2123.690233 1210.866568 2117.821721 1215.111600 C2124.765445 1214.833674 2131.685909 1213.976854 2138.487749 1212.552947 M1935.138167 1229.130813 C1932.266016 1230.638323 1929.179733 1231.737123 1926.001119 1232.383849 C1931.313347 1234.615634 1937.804107 1233.742321 1942.337539 1230.185832 C1940.132387 1229.316977 1937.680650 1229.084517 1935.351500 1229.523453 M2023.514617 1222.087197 C2021.014626 1222.876922 2018.514634 1223.666647 2016.014643 1224.456372 C2021.361804 1226.617499 2027.832699 1225.703819 2032.372449 1222.146677 C2029.451058 1221.313351 2026.355274 1221.096887 2023.346341 1221.515551 M1825.038891 1238.998244 C1824.016977 1239.587649 1822.995064 1240.177054 1821.973150 1240.766460 C1825.349692 1241.358635 1828.772094 1241.689131 1832.199556 1241.754007 C1834.482633 1241.797225 1834.282249 1237.705755 1832.109578 1237.003044 C1829.936906 1236.300334 1827.705170 1237.731249 1825.868730 1239.088375 M1746.176322 1244.722715 C1751.564543 1245.899581 1757.205566 1245.904638 1762.595888 1244.737433 C1758.508859 1240.584473 1751.569658 1242.517539 1746.176321 1244.722712 M2609.383585 1179.295521 C2611.796503 1180.089994 2614.585748 1179.630150 2616.615944 1178.103171 C2612.520119 1177.473669 2608.370305 1177.195843 2604.227120 1177.273752 C2602.180290 1177.312239 2599.337834 1178.694728 2600.301646 1180.500845 C2601.834733 1183.373744 2606.743098 1177.409340 2609.042802 1179.714823 M1901.584995 1237.882179 C1903.891159 1236.635277 1906.197323 1235.388375 1908.503487 1234.141473 C1907.014077 1233.879711 1905.524667 1233.617950 1904.035257 1233.356188 C1902.229850 1233.038887 1900.066386 1232.838281 1898.861183 1234.219461 C1897.655979 1235.600641 1899.636791 1238.431115 1900.922226 1237.124275 M2010.267462 1224.372830 C2006.315555 1222.035373 2000.666925 1223.216978 1997.983296 1226.942486 C2002.210883 1227.473480 2006.607184 1226.553842 2010.267462 1224.372831 M2228.334339 1202.441183 C2227.657381 1203.125121 2226.980423 1203.809058 2226.303464 1204.492996 C2229.513145 1206.575365 2234.332225 1205.535157 2236.397182 1202.314248 C2233.899886 1200.972930 2230.742967 1200.943178 2228.220833 1202.237193 M2844.409754 1180.084959 C2845.893234 1182.088328 2848.513466 1183.184804 2850.981640 1182.835066 C2853.019895 1182.546249 2854.812034 1181.381318 2856.529128 1180.245762 C2852.622242 1179.005655 2848.348166 1178.948946 2844.409754 1180.084959 M1252.681342 1268.454126 C1249.484083 1267.679771 1246.286824 1266.905416 1243.089565 1266.131061 C1241.432076 1266.948769 1239.774587 1267.766480 1238.117097 1268.584190 C1242.828301 1270.049530 1247.997060 1270.003370 1252.681342 1268.454127 M1785.305487 1241.548994 C1782.912900 1240.950952 1780.303633 1241.266941 1778.122966 1242.418817 C1780.565182 1243.229960 1783.007398 1244.041101 1785.449614 1244.852242 C1787.118428 1244.049910 1788.787242 1243.247574 1790.456056 1242.445239 C1789.018444 1241.380464 1787.077712 1241.028961 1785.357974 1241.521877 M1596.449769 1252.321246 C1595.103027 1251.625050 1593.579184 1250.961729 1592.116296 1251.359674 C1590.653408 1251.757620 1589.639391 1253.768420 1590.701362 1254.850371 C1591.168091 1255.325885 1591.869631 1255.475176 1592.532464 1255.543036 C1594.524135 1255.746941 1596.568525 1255.410313 1598.389670 1254.578593 C1597.704857 1253.865822 1597.020043 1253.153051 1596.335229 1252.440279 M1484.584750 1260.523770 C1482.123974 1259.681420 1479.663198 1258.839069 1477.202422 1257.996719 C1475.517755 1258.854200 1473.833087 1259.711682 1472.148420 1260.569164 C1476.127100 1262.011497 1480.616705 1261.995109 1484.584750 1260.523770 M2340.700793 1194.440109 C2335.972283 1192.809301 2330.698091 1192.809446 2325.969670 1194.440512 C2330.698181 1196.071322 2335.972373 1196.071178 2340.700793 1194.440112 M2425.372620 1187.339946 C2427.122188 1187.917022 2429.166584 1187.486066 2430.534337 1186.251862 C2426.517151 1184.901548 2422.052684 1184.922602 2418.048413 1186.310744 C2420.203544 1187.589064 2422.878570 1187.959021 2425.299753 1187.313605 M1950.723304 1230.311189 C1951.336248 1232.153369 1954.152843 1232.731343 1955.441745 1231.279429 C1956.730648 1229.827515 1955.822891 1227.099285 1953.921045 1226.709020 C1952.019200 1226.318754 1950.110361 1228.469010 1950.723304 1230.311189 M1121.185477 1273.090747 C1122.947764 1272.171873 1124.710051 1271.252999 1126.472338 1270.334124 C1123.242331 1268.900756 1119.407887 1268.897242 1116.175259 1270.324686 C1117.944502 1271.257651 1119.713746 1272.190612 1121.482989 1273.123573 M2273.364343 1199.703107 C2276.497194 1199.411826 2279.630046 1199.120545 2282.762897 1198.829265 C2278.896910 1196.796064 2274.097377 1196.637679 2270.105756 1198.411578 C2271.113919 1198.878487 2272.122081 1199.345393 2273.130244 1199.812299 M1343.305828 1263.548804 C1340.902785 1262.952524 1338.284791 1263.269244 1336.093266 1264.421365 C1339.369353 1266.027824 1343.382618 1266.041918 1346.669907 1264.458510 C1345.624263 1264.001147 1344.578620 1263.543787 1343.532976 1263.086427 M1418.482586 1264.961512 C1421.110364 1264.188047 1423.738142 1263.414582 1426.365920 1262.641117 C1423.912999 1260.206657 1419.113265 1261.055580 1417.644193 1264.183716 M1141.319899 1267.510948 C1139.664678 1267.087740 1137.842133 1267.365274 1136.387906 1268.261983 C1137.309935 1269.812379 1138.674188 1271.467671 1140.475556 1271.373183 C1142.276924 1271.278695 1143.064762 1268.055580 1141.275048 1267.830239 M1358.589586 1264.413404 C1358.325865 1263.579556 1358.062144 1262.745708 1357.798423 1261.911859 C1355.239525 1262.745069 1352.680623 1263.578279 1350.121722 1264.411490 C1352.596246 1265.915285 1355.869331 1266.002152 1358.420136 1264.631730 M1057.415349 1271.429246 C1057.173398 1269.677427 1054.747411 1268.690541 1053.351267 1269.775987 C1051.955123 1270.861433 1052.313448 1273.455841 1053.951544 1274.122215 C1055.589639 1274.788588 1057.657301 1273.181065 1057.415349 1271.429246 M1965.364636 1229.331819 C1967.767678 1229.928099 1970.385673 1229.611379 1972.577198 1228.459258 C1969.301110 1226.852799 1965.287845 1226.838706 1962.000556 1228.422114 C1963.046200 1228.879476 1964.091844 1229.336836 1965.137488 1229.794196 M2357.249923 1191.366728 C2358.108909 1191.467628 2358.218267 1189.935364 2357.441615 1189.554773 C2356.664963 1189.174181 2355.749694 1189.577529 2354.981997 1189.975876 C2353.412580 1190.790231 2351.843163 1191.604583 2350.273746 1192.418935 C2352.281457 1194.205439 2355.859750 1193.696285 2357.289462 1191.420670 M1178.601733 1270.388237 C1178.309147 1269.479379 1178.016561 1268.570522 1177.723975 1267.661665 C1175.905423 1268.592184 1174.086867 1269.522704 1172.268312 1270.453225 C1173.967109 1271.870255 1176.667931 1271.902417 1178.399990 1270.526242 M1308.113691 1266.657073 C1305.919785 1264.781313 1302.362664 1264.761421 1300.147918 1266.612527 C1302.393897 1267.560136 1304.924344 1267.820798 1307.316340 1267.350946 M2753.285705 1181.341239 C2755.270149 1180.349197 2753.375488 1176.559188 2751.391044 1177.551230 C2749.406599 1178.543272 2751.301261 1182.333282 2753.285705 1181.341239 M1664.048277 1247.691359 C1662.149325 1248.546188 1660.250374 1249.401017 1658.351422 1250.255845 C1659.999505 1252.586834 1664.476019 1251.340239 1664.682075 1248.492920 M2376.252592 1191.135288 C2375.200657 1188.996872 2371.730534 1188.682575 2370.311505 1190.597190 C2371.788936 1191.504786 2373.635011 1191.790982 2375.317899 1191.373329 M2517.324662 1181.516280 C2515.662234 1181.090410 2513.831177 1181.369524 2512.371136 1182.271361 C2513.750503 1184.222533 2517.284755 1183.873588 2518.255921 1181.690347 M2573.369437 1181.303707 C2575.301356 1182.315934 2577.274274 1178.703388 2575.403461 1177.582239 C2573.877648 1178.228516 2572.790192 1179.801017 2572.724068 1181.456737 M1846.252592 1239.135288 C1845.200657 1236.996872 1841.730534 1236.682575 1840.311505 1238.597190 C1841.788936 1239.504786 1843.635011 1239.790982 1845.317899 1239.373329 M2546.252592 1181.135288 C2545.200657 1178.996872 2541.730534 1178.682575 2540.311505 1180.597190 C2541.788936 1181.504786 2543.635011 1181.790982 2545.317899 1181.373329 M1577.324662 1253.516280 C1575.662234 1253.090410 1573.831177 1253.369524 1572.371136 1254.271361 C1573.750503 1256.222533 1577.284755 1255.873588 1578.255921 1253.690347 M1208.819045 1267.242252 C1208.453221 1268.172620 1209.062817 1269.356247 1210.032675 1269.598706 C1211.002534 1269.841166 1212.097406 1269.083648 1212.212431 1268.090582 C1211.277411 1267.782381 1210.342388 1267.474180 1209.407366 1267.165979 M1650.330375 1248.411611 C1651.165150 1249.768621 1653.466329 1249.766503 1654.351295 1248.441678 C1653.493876 1247.100503 1651.186352 1247.113151 1650.343687 1248.463641 M1511.266755 1257.165433 C1510.336810 1257.475154 1509.406866 1257.784874 1508.476921 1258.094595 C1508.696221 1260.059680 1512.549595 1259.135427 1511.853644 1257.284667 M1290.417808 1264.481411 C1290.028836 1265.541968 1290.441070 1266.840732 1291.370473 1267.482829 C1292.003586 1266.696299 1292.676408 1265.747896 1292.435816 1264.767293 C1292.195224 1263.786690 1290.446107 1263.490197 1290.299257 1264.489147 M870.819045 1277.242252 C870.453221 1278.172620 871.062817 1279.356247 872.032675 1279.598706 C873.002534 1279.841166 874.097406 1279.083648 874.212431 1278.090582 C873.277411 1277.782381 872.342388 1277.474180 871.407366 1277.165979 M1920.819045 1231.242252 C1920.453221 1232.172620 1921.062817 1233.356247 1922.032675 1233.598706 C1923.002534 1233.841166 1924.097406 1233.083648 1924.212431 1232.090582 C1923.277411 1231.782381 1922.342388 1231.474180 1921.407366 1231.165979 M1641.266755 1249.165433 C1640.336810 1249.475154 1639.406866 1249.784874 1638.476921 1250.094595 C1638.696221 1252.059680 1642.549595 1251.135427 1641.853644 1249.284667 M2198.188148 1206.466873 C2198.152206 1205.605989 2196.547204 1205.578281 2196.481569 1206.437411 C2196.543256 1207.300802 2198.158249 1207.274857 2198.192175 1206.409929 M2201.308670 1205.293227 C2202.169555 1205.257286 2202.197263 1203.652283 2201.338132 1203.586649 C2200.474742 1203.648336 2200.500687 1205.263328 2201.365614 1205.297254 M2384.482316 1190.413750 C2384.518257 1191.274634 2386.123260 1191.302343 2386.188895 1190.443212 C2386.127208 1189.579822 2384.512215 1189.605767 2384.478289 1190.470694 M1887.308670 1237.293227 C1888.169555 1237.257286 1888.197263 1235.652283 1887.338132 1235.586649 C1886.474742 1235.648336 1886.500687 1237.263328 1887.365614 1237.297254 M1689.308670 1247.293227 C1690.169555 1247.257286 1690.197263 1245.652283 1689.338132 1245.586649 C1688.474742 1245.648336 1688.500687 1247.263328 1689.365614 1247.297254 M1537.361793 1249.587396 C1536.500909 1249.623337 1536.473201 1251.228340 1537.332331 1251.293975 C1538.195722 1251.232287 1538.169777 1249.617295 1537.304849 1249.583369 M1365.361793 1261.587396 C1364.500909 1261.623337 1364.473201 1263.228340 1365.332331 1263.293975 C1366.195722 1263.232287 1366.169777 1261.617295 1365.304849 1261.583369 M2645.308670 1179.293227 C2646.169555 1179.257286 2646.197263 1177.652283 2645.338132 1177.586649 C2644.474742 1177.648336 2644.500687 1179.263328 2645.365614 1179.297254 M1323.361793 1265.587396 C1322.500909 1265.623337 1322.473201 1267.228340 1323.332331 1267.293975 C1324.195722 1267.232287 1324.169777 1265.617295 1323.304849 1265.583369 M1131.361793 1269.587396 C1130.500909 1269.623337 1130.473201 1271.228340 1131.332331 1271.293975 C1132.195722 1271.232287 1132.169777 1269.617295 1131.304849 1269.583369 M988.336389 1274.993067 C988.973506 1274.946453 989.610623 1274.899838 990.247740 1274.853224 C990.490423 1273.925435 988.745035 1273.427703 988.461854 1274.343946 z"/><path class="selected"  fill="#000000" opacity="1.000000" stroke="none" 
 	d="
M1498.299136 1722.296088 C1468.852429 1718.367253 1440.474560 1701.143500 1411.308631 1706.790873 C1392.991750 1710.337555 1377.530251 1722.511850 1359.785738 1728.275473 C1352.918357 1730.506078 1344.594352 1731.476802 1339.167635 1726.713687 C1333.740919 1721.950573 1336.449185 1710.216435 1343.621185 1711.052451 C1354.827795 1712.358768 1365.190766 1705.756385 1375.356435 1700.862129 C1399.584957 1689.197318 1428.003145 1686.487076 1453.999793 1693.361912 C1469.623807 1697.493696 1484.452424 1704.958476 1500.520307 1706.691851 C1511.941882 1707.923990 1523.486460 1706.186651 1534.684187 1703.621221 C1584.098305 1692.300308 1630.175918 1664.789972 1680.860630 1663.800959 C1700.626314 1663.415271 1720.257112 1667.136661 1740.021863 1667.567481 C1807.879095 1669.046592 1875.521621 1631.973543 1941.264958 1648.843793 C1944.081701 1649.566591 1947.592483 1651.668940 1946.585545 1654.397044 C1900.745110 1657.568932 1855.195655 1664.933694 1810.691382 1676.369391 C1795.503894 1680.271927 1780.289853 1684.671889 1764.630638 1685.495646 C1745.307582 1686.512141 1726.160323 1682.045409 1706.878695 1680.422896 C1685.098704 1678.590150 1663.015186 1680.417629 1641.832736 1685.805649 C1593.524089 1698.093556 1547.708246 1728.888344 1498.299136 1722.296087 M1442.577669 1699.538819 C1441.777386 1700.282825 1443.560934 1701.623503 1444.053212 1700.647972 C1442.846477 1697.708315 1438.633988 1696.539490 1436.085075 1698.437081 C1437.941307 1699.528564 1440.223688 1699.871783 1442.318835 1699.374500 M1470.254090 1708.614983 C1472.807663 1709.987492 1476.076707 1709.920846 1478.572219 1708.445402 C1476.074695 1706.972640 1472.813100 1706.892204 1470.246014 1708.240061 M1350.642820 1718.307686 C1350.259279 1717.289844 1349.875739 1716.272002 1349.492199 1715.254160 C1347.908797 1716.890133 1347.810102 1719.741382 1349.276591 1721.482925 C1350.232181 1720.867158 1350.657941 1719.543210 1350.240398 1718.485866 M1382.011572 1710.698626 C1383.491065 1711.722746 1385.273576 1709.922695 1386.168094 1708.361427 C1385.059936 1706.496189 1381.478417 1708.458553 1382.454026 1710.396418 M1392.687930 1704.299836 C1392.269724 1703.332534 1391.851519 1702.365232 1391.433314 1701.397930 C1390.401164 1702.411157 1389.369017 1703.424384 1388.336870 1704.437612 C1389.205108 1705.760876 1391.496721 1705.770894 1392.324701 1704.422074 M1428.417871 1695.745335 C1429.469807 1697.883751 1432.939930 1698.198048 1434.358958 1696.283433 C1432.881528 1695.375838 1431.035452 1695.089641 1429.352565 1695.507295 M1677.324662 1671.516280 C1675.662234 1671.090410 1673.831177 1671.369524 1672.371136 1672.271361 C1673.750503 1674.222533 1677.284755 1673.873588 1678.255921 1671.690347 M1829.266755 1661.165433 C1828.336810 1661.475154 1827.406866 1661.784874 1826.476921 1662.094595 C1826.696221 1664.059680 1830.549595 1663.135427 1829.853644 1661.284667 M1366.346984 1718.463043 C1365.497651 1717.120701 1363.205493 1717.103159 1362.335715 1718.432344 C1363.196958 1719.764870 1365.498159 1719.769787 1366.328931 1718.418052 M1489.403709 1713.715190 C1490.333653 1713.405470 1491.263598 1713.095749 1492.193543 1712.786029 C1491.974242 1710.820943 1488.120868 1711.745197 1488.816819 1713.595957 M1372.214067 1712.355624 C1371.944931 1711.420557 1370.159389 1711.931809 1370.425938 1712.867617 C1371.062265 1712.905552 1371.698593 1712.943484 1372.334922 1712.981416 M1546.214067 1710.355624 C1545.944931 1709.420557 1544.159389 1709.931809 1544.425938 1710.867617 C1545.062265 1710.905552 1545.698593 1710.943484 1546.334922 1710.981416 M1483.308670 1711.293227 C1484.169555 1711.257286 1484.197263 1709.652283 1483.338132 1709.586649 C1482.474742 1709.648336 1482.500687 1711.263328 1483.365614 1711.297254 z"/><path class="selected"  fill="#000000" opacity="1.000000" stroke="none" 
 	d="
M1012.880695 1472.367842 C975.902347 1482.689199 938.924000 1493.010556 901.945653 1503.331913 C888.555572 1507.069338 874.906461 1510.923887 863.373155 1518.685681 C852.362383 1526.095815 843.921834 1536.633701 834.852289 1546.323414 C804.843996 1578.383652 766.241048 1602.323190 724.183793 1614.954253 C731.903324 1640.813735 732.858711 1668.660680 726.929646 1694.988424 C739.625858 1688.040562 755.213162 1686.591630 768.972467 1691.080296 C740.878806 1694.965587 714.858783 1716.831137 710.650251 1744.878196 C705.039178 1782.272230 699.428109 1819.666266 693.817040 1857.060302 C691.659868 1871.436420 686.715808 1888.923869 672.468741 1891.813025 C669.861198 1832.673635 678.674948 1773.051472 698.281810 1717.195966 C660.932863 1736.342018 620.503833 1748.584003 580.327864 1760.725120 C564.029363 1765.650502 547.055230 1770.630384 530.229795 1768.021697 C490.399586 1761.846250 449.405313 1763.266631 410.098047 1772.184058 C386.502268 1777.537104 362.352195 1785.612200 338.654337 1780.730865 C325.896993 1778.103080 313.930855 1771.785285 300.941763 1770.816478 C287.952672 1769.847670 272.655077 1777.052112 271.383856 1790.015100 C268.475102 1819.676459 267.346130 1849.512249 268.005034 1879.308606 C260.433117 1881.400303 256.042226 1870.980202 255.379740 1863.152671 C252.960402 1834.567186 253.544081 1805.728459 257.118071 1777.264276 C198.661887 1799.286982 133.536839 1783.440102 73.158046 1767.423663 C71.510499 1766.986624 69.792996 1766.512310 68.537639 1765.359273 C65.229027 1762.320335 67.324785 1756.282136 71.308181 1754.204971 C75.291576 1752.127805 80.092406 1752.802806 84.516598 1753.582924 C144.569578 1764.172080 208.563040 1784.056028 264.279233 1759.273040 C268.787299 1757.267818 271.121833 1752.353115 273.085149 1747.826642 C292.556742 1702.934383 312.028335 1658.042124 331.499929 1613.149865 C305.043604 1611.869601 279.126253 1601.321393 259.295066 1583.762914 C242.653087 1569.028150 229.595611 1549.174814 209.136066 1540.487135 C204.843173 1538.664256 200.081942 1537.225401 197.127400 1533.616731 C194.172858 1530.008061 194.576275 1523.296691 199.034697 1521.927642 C200.780440 1521.391578 202.663889 1521.806584 204.424150 1522.292855 C229.890364 1529.327878 248.872861 1549.865465 268.710923 1567.314560 C288.548984 1584.763655 313.929692 1600.629396 339.783161 1595.187180 C342.174351 1594.683828 343.478410 1592.128921 344.240919 1589.807343 C349.089877 1575.043883 345.593192 1558.776994 348.719015 1543.555255 C351.844838 1528.333516 367.640646 1513.101997 381.445010 1520.237236 C395.523198 1527.514010 412.574599 1523.694472 427.750181 1519.128455 C470.406486 1506.294054 511.643297 1488.747865 550.469353 1466.911667 C563.849667 1459.386431 581.262563 1451.513757 593.308189 1461.030315 C600.821073 1466.965827 611.545806 1464.991517 621.106317 1464.471621 C652.546623 1462.761904 683.026239 1481.134424 700.712522 1507.184594 C718.398806 1533.234765 724.453487 1565.864985 722.887024 1597.312754 C769.955226 1584.548090 812.027511 1554.179288 838.964464 1513.525225 C845.850206 1503.133056 858.679244 1498.734614 870.592360 1495.061976 C899.428659 1486.172171 928.355820 1477.577096 957.367798 1469.278549 C978.623023 1463.198733 1000.817890 1457.225933 1022.574844 1461.148142 C1025.396806 1466.143434 1018.406755 1470.825412 1012.880697 1472.367845 M536.210879 1754.435850 C543.470400 1755.785795 550.880126 1753.704286 557.970316 1751.642203 C602.891091 1738.577620 647.811867 1725.513038 692.732642 1712.448455 C700.871677 1710.081330 703.754848 1700.249597 705.340282 1691.922917 C709.954600 1667.688567 714.369932 1641.593325 704.069003 1619.177113 C676.275633 1628.680414 646.188972 1628.098421 616.823822 1627.411345 C606.982010 1627.181062 597.140199 1626.950785 587.298387 1626.720508 C578.474210 1626.514041 569.650029 1626.307575 560.826102 1626.090662 C492.497954 1624.411000 424.185202 1622.104980 355.899328 1619.172991 C353.764751 1619.081339 351.448900 1619.040191 349.715759 1620.289608 C348.396650 1621.240552 347.654616 1622.778164 346.965061 1624.250868 C326.874431 1667.159093 306.783802 1710.067319 286.693172 1752.975544 C306.944540 1752.136734 327.368758 1755.757161 346.097917 1763.505716 C357.782228 1768.339706 371.170405 1765.852886 383.182940 1761.904521 C395.195474 1757.956156 406.976797 1752.571147 419.591020 1751.692548 C429.057077 1751.033221 438.508312 1752.959570 447.995689 1753.134578 C473.267079 1753.600748 499.182435 1741.771110 523.099465 1749.946446 C527.476924 1751.442752 531.662718 1753.590095 536.210880 1754.435849 M580.868422 1475.484093 C577.984089 1473.093030 573.674453 1474.069929 570.160055 1475.368225 C545.064391 1484.639126 524.510376 1503.764369 499.317943 1512.768994 C484.737599 1517.980502 469.056302 1519.625372 454.550266 1525.040274 C443.190612 1529.280676 432.720286 1535.773350 421.130470 1539.336900 C402.972650 1544.919931 382.561872 1542.724118 366.007062 1533.406666 C363.968547 1555.148259 361.930032 1576.889853 359.891517 1598.631447 C359.810894 1599.491322 359.737316 1600.396767 360.093392 1601.183593 C360.844258 1602.842780 363.017868 1603.167351 364.836606 1603.261658 C434.866828 1606.892828 505.000188 1608.534639 575.123612 1608.184438 C585.577705 1608.132230 596.084020 1608.039312 606.420036 1609.606982 C638.479355 1614.469441 671.736113 1611.221784 702.249046 1600.248891 C702.542454 1584.537606 702.420525 1568.818567 701.883430 1553.113723 C701.560081 1543.658877 700.880897 1533.599429 695.290771 1525.967314 C690.818156 1519.860921 683.813063 1516.189980 678.302412 1511.001045 C670.247388 1503.416280 665.349298 1492.557522 656.052861 1486.558493 C634.246574 1472.486805 600.848280 1492.047060 580.868422 1475.484093 M739.343803 1597.452114 C738.013146 1598.301987 738.009710 1600.582735 739.337801 1601.436613 C740.351155 1600.404537 741.364509 1599.372457 742.377862 1598.340378 C741.413628 1597.921393 740.449393 1597.502411 739.485157 1597.083428 M941.308670 1483.293227 C942.169555 1483.257286 942.197263 1481.652283 941.338132 1481.586649 C940.474742 1481.648336 940.500687 1483.263328 941.365614 1483.297254 M679.308670 1877.293227 C680.169555 1877.257286 680.197263 1875.652283 679.338132 1875.586649 C678.474742 1875.648336 678.500687 1877.263328 679.365614 1877.297254 z"/><path class="selected"  fill="#000000" opacity="1.000000" stroke="none" 
 	d="
M175.240795 1594.875190 C198.455206 1595.099996 220.147312 1613.687983 223.926301 1636.593848 C224.559020 1640.428991 224.740691 1644.345862 224.350095 1648.213173 C223.318603 1658.426036 218.136207 1668.158685 210.238328 1674.715367 C201.579678 1681.903628 194.792490 1691.326932 190.718167 1701.817081 C189.819789 1704.130133 188.991827 1706.587001 187.199759 1708.303329 C185.629418 1709.807302 183.501026 1710.559341 181.420995 1711.192885 C175.693921 1712.937258 168.645939 1713.789476 164.459503 1709.509759 C162.714924 1707.726311 161.788117 1705.320635 160.906194 1702.986870 C155.809826 1689.500746 150.713459 1676.014622 145.617091 1662.528498 C141.187393 1650.806529 136.681180 1638.435763 138.565742 1626.047252 C141.197446 1608.747257 157.742814 1594.684476 175.240795 1594.875190 M193.579846 1635.956844 C191.529561 1633.084373 189.330509 1630.086586 186.113973 1628.634464 C182.897438 1627.182343 178.378422 1627.982328 176.957499 1631.212767 C176.607810 1632.007775 176.482310 1632.970405 176.917347 1633.722112 C177.377338 1634.516936 178.320280 1634.870419 179.189816 1635.165788 C182.821755 1636.399504 186.453692 1637.633221 190.085630 1638.866939 C191.684418 1639.410024 194.158271 1639.436541 194.307800 1637.754665 C194.366350 1637.096090 193.963961 1636.494993 193.579846 1635.956844 z"/><path class="selected"  fill="#000000" opacity="1.000000" stroke="none" 
 	d="
M843.889918 1880.778975 C836.772387 1881.190050 829.437529 1881.239696 822.758736 1878.745313 C816.079943 1876.250929 810.123922 1870.703043 809.037537 1863.656909 C806.133129 1865.567139 802.450834 1866.253804 799.053144 1865.518773 C790.524269 1848.627374 787.739905 1828.899046 791.260810 1810.306998 C792.787098 1802.247475 795.987488 1793.733309 803.065052 1789.586798 C806.149461 1787.779744 809.706842 1786.974590 813.220545 1786.316630 C832.805664 1782.649212 853.100869 1782.813823 872.623923 1786.798440 C885.024344 1789.329341 897.118303 1793.382171 909.659555 1795.083031 C925.068492 1797.172810 940.712202 1795.657543 956.187986 1794.140094 C979.399348 1791.864147 1002.610710 1789.588200 1025.822073 1787.312254 C1037.561895 1786.161127 1052.824321 1787.151974 1056.480609 1798.367146 C1047.911787 1806.305594 1053.955660 1820.470308 1052.401180 1832.047313 C1051.152279 1841.348515 1044.620991 1849.181454 1037.066325 1854.749139 C1024.453788 1864.044403 1008.444585 1867.479404 992.821536 1868.661919 C973.965403 1870.089147 954.999688 1868.584771 936.111943 1869.503358 C905.164278 1871.008466 874.822613 1878.992450 843.889918 1880.778975 M809.677874 1807.448486 C808.829982 1808.451963 808.565280 1809.810648 808.357104 1811.107780 C805.910135 1826.354664 807.224500 1842.191073 812.151546 1856.825941 C812.760849 1858.635764 815.083853 1859.062698 816.990299 1859.173025 C844.086397 1860.741058 871.354122 1859.325230 898.142111 1854.959358 C899.598331 1854.722026 901.143040 1854.433286 902.223190 1853.428210 C904.437079 1851.368196 903.505738 1847.759286 902.619074 1844.868129 C899.775237 1835.595196 899.165199 1825.645550 900.854899 1816.094655 C901.073249 1814.860450 899.588126 1814.087671 898.385206 1813.735645 C894.788836 1812.683195 891.192467 1811.630744 887.596098 1810.578293 C880.453114 1808.487952 873.293649 1806.393684 865.968670 1805.075943 C849.073111 1802.036486 831.697868 1803.197285 814.680435 1805.456751 C812.857667 1805.698767 810.864626 1806.043968 809.677874 1807.448485 M918.250819 1823.881098 C917.680314 1832.707735 919.059782 1841.655165 922.262292 1849.900098 C922.579528 1850.716829 923.634211 1850.897503 924.508754 1850.951014 C955.203360 1852.829041 986.096310 1851.448539 1016.501060 1846.840183 C1019.316403 1846.413470 1022.178044 1845.943402 1024.725601 1844.671320 C1029.744811 1842.165059 1032.858831 1836.816569 1034.042158 1831.332633 C1035.225485 1825.848698 1034.749964 1820.159699 1034.268843 1814.570215 C1034.067939 1812.236181 1033.739445 1809.645427 1031.942364 1808.142571 C1030.252772 1806.729605 1027.824553 1806.755893 1025.624493 1806.860456 C991.308800 1808.491389 957.060964 1811.549467 922.999195 1816.024134 C919.699275 1816.457642 918.465493 1820.559755 918.250819 1823.881098 M1011.314345 1797.223303 C1008.213056 1797.464470 1005.111766 1797.705637 1002.010476 1797.946804 C1004.857020 1800.141950 1009.113895 1800.289816 1012.105895 1798.297479 M909.266006 1837.380966 C907.876509 1839.084880 907.894464 1841.779330 909.306543 1843.464577 C910.316072 1842.456522 911.325602 1841.448467 912.335132 1840.440411 C911.335165 1839.440378 910.335199 1838.440345 909.335233 1837.440311 M1041.976443 1805.497296 C1041.929609 1803.821624 1040.816469 1802.223335 1039.261001 1801.598362 C1037.393559 1802.704698 1039.343128 1806.291155 1041.287116 1805.325632 M918.411200 1804.450882 C917.985330 1806.113309 918.264444 1807.944367 919.166282 1809.404407 C921.117454 1808.025041 920.768508 1804.490789 918.585267 1803.519623 M1042.364955 1816.488320 C1042.218380 1815.492636 1040.474856 1815.789020 1040.235765 1816.766622 C1039.996673 1817.744225 1040.668183 1818.689005 1041.299963 1819.472411 C1042.240091 1818.845964 1042.653160 1817.533705 1042.241371 1816.481702 M1041.308670 1829.293227 C1042.169555 1829.257286 1042.197263 1827.652283 1041.338132 1827.586649 C1040.474742 1827.648336 1040.500687 1829.263328 1041.365614 1829.297254 M963.308670 1857.293227 C964.169555 1857.257286 964.197263 1855.652283 963.338132 1855.586649 C962.474742 1855.648336 962.500687 1857.263328 963.365614 1857.297254 z"/><path class="selected"  fill="#000000" opacity="1.000000" stroke="none" 
 	d="
M988.447804 1099.669020 C988.539786 1098.574519 987.976368 1097.543943 987.431174 1096.590445 C984.403339 1091.295015 981.375503 1085.999585 978.347667 1080.704156 C978.803253 1078.520133 981.493275 1077.422158 983.668896 1077.916312 C985.844516 1078.410467 987.572126 1080.019721 989.130362 1081.616410 C994.442553 1087.059694 999.129050 1093.113120 1003.068126 1099.619455 C1004.162780 1098.544608 1005.257435 1097.469761 1006.352089 1096.394914 C1004.191994 1095.652199 1004.055483 1092.595623 1004.843010 1090.451460 C1005.630537 1088.307296 1006.947042 1086.081331 1006.278878 1083.897025 C1005.017836 1079.774533 1009.265273 1075.476274 1013.576119 1075.518462 C1017.886964 1075.560651 1021.619281 1078.756191 1023.781798 1082.485627 C1025.944315 1086.215063 1026.905265 1090.496057 1028.309711 1094.571925 C1029.714156 1098.647794 1031.746283 1102.758315 1035.326831 1105.159324 C1037.328439 1105.467712 1038.167505 1102.568123 1037.628375 1100.615976 C1037.089245 1098.663830 1036.055059 1096.431024 1037.236772 1094.786307 C1036.283440 1087.867165 1036.894023 1080.737097 1039.009886 1074.080786 C1040.268056 1070.122698 1044.103217 1065.567976 1047.690229 1067.661490 C1049.456778 1068.692514 1050.068716 1070.905570 1050.525876 1072.899236 C1051.601773 1077.591215 1052.677670 1082.283193 1053.753567 1086.975171 C1056.195594 1097.624827 1058.208500 1110.143455 1050.986078 1118.341948 C1044.786088 1125.379832 1032.544877 1125.810387 1025.865739 1119.225495 C1024.601904 1117.979492 1023.452982 1116.486175 1021.782762 1115.886038 C1020.112542 1115.285902 1017.757628 1116.212329 1017.757579 1117.987096 C1017.757476 1121.990519 1016.476219 1126.111388 1013.649242 1128.946099 C1010.822265 1131.780809 1006.322110 1133.067699 1002.624592 1131.532857 C997.607334 1129.450194 995.791037 1122.098144 999.261256 1117.918678 C1000.958613 1115.874413 1003.536135 1112.664350 1001.241192 1111.325223 C995.260922 1118.866072 986.523473 1124.553630 976.935355 1125.387905 C967.347238 1126.222181 957.109620 1121.554673 952.694169 1113.002959 C949.547065 1106.907743 949.541969 1099.691547 950.238243 1092.867243 C951.067723 1084.737361 953.046859 1076.205865 958.824093 1070.426021 C964.601326 1064.646177 975.182486 1063.088740 980.717684 1069.100778 C981.340214 1069.776937 981.903505 1070.576864 981.986314 1071.492220 C982.219190 1074.066427 979.008626 1075.269099 976.743398 1076.513893 C971.601038 1079.339733 969.594249 1085.582965 968.033400 1091.239199 C967.110539 1094.583483 966.179487 1098.056213 966.740659 1101.479807 C967.301830 1104.903400 969.799187 1108.270428 973.246275 1108.662210 C977.983314 1107.914385 982.514860 1105.902594 986.246727 1102.890628 C987.288099 1102.050143 988.335734 1101.002554 988.447804 1099.669020 z"/><path class="selected"  fill="#000000" opacity="1.000000" stroke="none" 
 	d="
M142.682698 686.229396 C142.884335 692.624017 140.350315 701.559083 134.049298 700.450470 C129.463376 699.643615 127.981602 693.897640 127.511580 689.265063 C116.595653 581.676562 123.099525 472.339802 146.693099 366.804091 C147.312973 364.031351 148.027658 361.105249 150.032008 359.091567 C152.036358 357.077885 155.781706 356.526386 157.581427 358.724871 C158.807454 360.222540 158.729495 362.364325 158.576828 364.293793 C155.070547 408.607650 145.148504 452.197685 140.953920 496.451690 C134.979510 559.483352 140.687255 622.946680 142.682698 686.229396 z"/><path class="selected"  fill="#000000" opacity="1.000000" stroke="none" 
 	d="
M1112.356417 1887.027627 C1130.347986 1884.837285 1147.870401 1878.866495 1163.455997 1869.615369 C1168.181053 1866.810721 1172.903961 1863.522410 1175.530088 1858.695852 C1178.329513 1853.550790 1178.357802 1847.400181 1178.234885 1841.544130 C1175.338722 1703.565420 1127.026245 1569.400705 1125.620841 1431.398760 C1125.562070 1425.627830 1125.513670 1419.566140 1122.695283 1414.529893 C1119.876895 1409.493645 1113.242254 1406.080572 1108.168008 1408.829957 C1103.264373 1411.486900 1097.258824 1404.923355 1098.899827 1399.593056 C1100.540830 1394.262758 1106.774888 1391.570571 1112.347524 1391.795747 C1123.085454 1392.229641 1132.077834 1400.879125 1136.288693 1410.766491 C1140.499552 1420.653856 1140.902653 1431.677400 1141.413143 1442.411958 C1142.565185 1466.636844 1144.571738 1490.821080 1147.427823 1514.904579 C1160.702972 1626.845245 1192.314556 1736.672646 1195.649893 1849.348365 C1195.952739 1859.579232 1190.532344 1869.366115 1183.007855 1876.304733 C1175.483367 1883.243352 1166.019181 1887.694033 1156.469304 1891.376723 C1149.035369 1894.243449 1141.273085 1896.740468 1133.306186 1896.640287 C1125.339288 1896.540106 1117.053536 1893.463354 1112.356417 1887.027628 M1134.260203 1440.420705 C1134.706899 1438.739967 1134.404782 1436.874698 1133.450384 1435.420894 C1130.362758 1437.002528 1130.036487 1441.209330 1130.122764 1444.677407 C1130.140113 1445.374845 1130.173016 1446.120375 1130.583787 1446.684279 C1131.560308 1448.024840 1133.923287 1447.166810 1134.500948 1445.612139 C1135.078610 1444.057468 1134.486181 1442.337945 1133.897268 1440.787501 M1189.658621 1832.646924 C1188.927631 1830.215962 1188.196640 1827.785001 1187.465650 1825.354039 C1186.522459 1827.118346 1185.549527 1829.099540 1186.052241 1831.035947 C1186.554956 1832.972353 1189.390944 1834.212027 1190.606063 1832.622726 M1182.446398 1806.470259 C1181.835669 1808.877785 1182.162425 1811.510394 1183.343196 1813.695562 C1184.821503 1810.469530 1184.908254 1806.633522 1183.577297 1803.343960 C1182.507399 1803.864089 1181.975388 1805.276134 1182.436081 1806.372936 M1171.140056 1711.191100 C1172.177458 1709.590580 1173.214861 1707.990060 1174.252263 1706.389540 C1173.243675 1705.389013 1172.235084 1704.388485 1171.226493 1703.387957 C1170.191107 1705.555689 1169.908418 1708.074304 1170.437482 1710.417630 M1168.346419 1686.358945 C1166.594977 1686.118136 1164.989198 1688.186161 1165.656373 1689.823359 C1166.323548 1691.460557 1168.917399 1691.817190 1170.001667 1690.420800 C1171.085935 1689.024411 1170.097862 1686.599753 1168.346419 1686.358945 M1172.424443 1872.906180 C1170.847474 1870.848599 1166.841328 1872.064625 1166.674173 1874.651618 C1167.960073 1876.004733 1170.683894 1875.202649 1171.031267 1873.368585 M1178.417808 1754.481411 C1178.028836 1755.541968 1178.441070 1756.840732 1179.370473 1757.482829 C1180.003586 1756.696299 1180.676408 1755.747896 1180.435816 1754.767293 C1180.195224 1753.786690 1178.446107 1753.490197 1178.299257 1754.489147 M1172.336389 1720.993067 C1172.973506 1720.946453 1173.610623 1720.899838 1174.247740 1720.853224 C1174.490423 1719.925435 1172.745035 1719.427703 1172.461854 1720.343946 M1180.214067 1772.355624 C1179.944931 1771.420557 1178.159389 1771.931809 1178.425938 1772.867617 C1179.062265 1772.905552 1179.698593 1772.943484 1180.334922 1772.981416 M1187.308670 1821.293227 C1188.169555 1821.257286 1188.197263 1819.652283 1187.338132 1819.586649 C1186.474742 1819.648336 1186.500687 1821.263328 1187.365614 1821.297254 z"/><path class="selected"  fill="#000000" opacity="1.000000" stroke="none" 
 	d="
M349.646462 360.926284 C411.731306 358.626737 474.014922 361.718924 535.566695 370.156641 C544.217674 371.342547 553.423764 372.896270 559.827052 378.832912 C569.650651 387.940608 569.108488 403.378139 567.656835 416.695268 C558.767410 498.244731 543.604702 580.295274 553.361527 661.745512 C554.154150 668.362350 554.958422 675.656681 551.198009 681.158508 C547.946361 683.366056 543.219960 681.679945 540.825521 678.563359 C538.431082 675.446773 537.783145 671.367281 537.275599 667.469994 C525.495121 577.011480 547.858087 486.031541 554.815119 395.074837 C555.283647 388.949275 553.552861 380.429178 547.413130 380.643029 C510.737129 381.920479 474.165079 376.734248 437.491543 375.387880 C360.675078 372.567777 283.714021 386.598688 207.108957 380.243668 C200.027161 379.656175 190.590682 375.772598 192.393831 368.899052 C198.260094 367.865980 204.229699 367.588797 210.179872 367.313705 C250.092802 365.468429 290.005732 363.623153 329.918662 361.777877 C336.493721 361.473895 343.068890 361.169909 349.646462 360.926284 z"/><path class="selected"  fill="#000000" opacity="1.000000" stroke="none" 
 	d="
M1246.740127 1106.105757 C1247.094571 1109.668039 1247.008776 1113.404510 1245.458373 1116.631232 C1243.907970 1119.857953 1240.598359 1122.441294 1237.024782 1122.229093 C1230.136539 1122.207660 1224.726325 1113.936596 1227.466760 1107.616915 C1227.812585 1106.819412 1228.268569 1106.015924 1228.217481 1105.148171 C1228.071504 1102.668706 1224.554829 1102.343962 1222.111895 1102.792432 C1212.692956 1104.521554 1203.274018 1106.250674 1193.855080 1107.979793 C1192.472033 1108.233692 1191.036921 1108.509319 1189.901203 1109.338432 C1187.069188 1111.405899 1187.308263 1115.835745 1185.034933 1118.505332 C1182.157573 1121.884237 1176.424188 1120.934480 1173.107319 1117.985824 C1170.074370 1115.289569 1168.299280 1111.232937 1168.376982 1107.175533 C1168.424044 1104.718073 1169.109863 1102.323145 1169.790469 1099.961346 C1172.966909 1088.938645 1176.143349 1077.915944 1179.319789 1066.893243 C1181.899581 1057.940996 1185.652326 1047.716769 1194.511087 1044.832256 C1199.970175 1043.054715 1206.084985 1044.745114 1210.858376 1047.935103 C1215.631767 1051.125092 1219.314282 1055.665401 1222.899063 1060.149890 C1233.833496 1073.828648 1245.006255 1088.679801 1246.740127 1106.105757 M1207.277001 1066.387576 C1206.981750 1065.954540 1206.641639 1065.489190 1206.132692 1065.364024 C1205.107260 1065.111838 1204.381343 1066.329587 1204.046661 1067.331134 C1202.263605 1072.666986 1200.940659 1078.156504 1200.097311 1083.718821 C1199.959294 1084.629109 1199.862302 1085.655163 1200.430392 1086.379695 C1200.929813 1087.016644 1201.793928 1087.219923 1202.593694 1087.344415 C1207.229194 1088.065979 1212.059002 1087.495345 1216.398714 1085.713375 C1217.080260 1085.433521 1217.797928 1085.080488 1218.136795 1084.426277 C1218.688987 1083.360218 1217.989443 1082.099221 1217.313114 1081.107266 C1213.967742 1076.200703 1210.622371 1071.294140 1207.277001 1066.387576 z"/><path class="selected"  fill="#000000" opacity="1.000000" stroke="none" 
 	d="
M1094.728141 1117.316148 C1093.672410 1103.336639 1090.730382 1089.500794 1086.006805 1076.301209 C1085.323734 1074.392433 1084.544381 1072.410513 1082.996424 1071.101376 C1079.867633 1068.455298 1075.194969 1069.604456 1071.105836 1069.339789 C1064.428955 1068.907637 1058.311412 1063.827433 1056.660068 1057.343564 C1055.759101 1053.805985 1057.515895 1048.731482 1061.127612 1049.262236 C1080.989218 1052.180973 1101.316187 1051.909385 1121.092721 1048.461046 C1128.558767 1047.159227 1136.046731 1045.400498 1143.615683 1045.784625 C1147.544004 1045.983989 1152.331213 1047.659264 1152.736386 1051.571717 C1153.085868 1054.946400 1149.867109 1057.523116 1146.911197 1059.188412 C1134.470690 1066.197123 1120.063858 1069.670940 1105.796246 1069.102169 C1103.046672 1068.992558 1098.972335 1070.670891 1100.407022 1073.019049 C1107.195861 1084.130338 1111.689848 1096.636822 1113.525820 1109.527834 C1114.131768 1113.782417 1114.352837 1118.474813 1111.897239 1122.001664 C1109.686360 1125.177038 1105.392277 1126.735188 1101.659545 1125.716510 C1097.926814 1124.697833 1095.019516 1121.174397 1094.728141 1117.316148 z"/><path class="selected"  fill="#000000" opacity="1.000000" stroke="none" 
 	d="
M1344.749693 1036.991610 C1365.555156 1043.573414 1387.867958 1045.339343 1409.449739 1042.112244 C1413.205383 1041.550666 1417.055017 1040.842094 1420.763421 1041.659387 C1424.471825 1042.476679 1428.049826 1045.282217 1428.427153 1049.060821 C1420.545340 1058.849809 1407.116204 1063.832043 1394.756955 1061.552528 C1387.733112 1071.479593 1390.724930 1085.001961 1393.381897 1096.868785 C1394.184174 1100.451998 1394.930657 1104.173898 1394.175482 1107.767332 C1393.420306 1111.360766 1390.768335 1114.812365 1387.135051 1115.343696 C1380.943014 1116.249219 1376.919786 1109.048783 1375.362152 1102.987837 C1372.164944 1090.547097 1371.270337 1077.518541 1372.737067 1064.757552 C1373.040202 1062.120189 1369.484074 1061.033271 1366.834080 1060.874825 C1355.144400 1060.175887 1342.253997 1057.771057 1335.182283 1048.436819 C1332.681210 1045.135555 1331.356016 1039.921448 1334.472147 1037.193183 C1337.175553 1034.826273 1341.323891 1035.907857 1344.749693 1036.991607 z"/><path class="selected"  fill="#000000" opacity="1.000000" stroke="none" 
 	d="
M9.112991 1856.530023 C8.345783 1848.666150 7.578575 1840.802277 6.811367 1832.938404 C4.060233 1804.739322 1.307537 1776.516810 0.376270 1748.199153 C-1.252996 1698.656949 2.699576 1649.119855 6.648864 1599.708443 C10.715052 1548.834440 14.781240 1497.960437 18.847427 1447.086434 C18.963578 1445.633216 19.113406 1444.089235 20.005448 1442.936155 C22.987850 1439.081013 28.965270 1443.735395 30.655325 1448.307107 C34.378337 1458.378102 33.636037 1469.474175 32.843022 1480.181970 C29.377124 1526.980564 25.911229 1573.779159 22.445334 1620.577754 C18.995514 1667.159291 15.544101 1713.913083 18.433593 1760.532732 C20.347164 1791.406680 25.034895 1822.068716 26.601481 1852.962214 C26.886496 1858.582790 26.779647 1864.955920 22.684357 1868.816064 C20.137989 1871.799962 14.915891 1870.677378 12.444057 1867.631453 C9.972224 1864.585527 9.493883 1860.434195 9.112986 1856.530025 z"/><path class="selected"  fill="#000000" opacity="1.000000" stroke="none" 
 	d="
M539.885326 718.492287 C506.439700 725.878226 472.441909 730.423705 438.492282 734.960764 C425.523942 736.693864 412.555602 738.426965 399.587262 740.160066 C308.012483 752.398202 215.034256 764.638433 123.588497 751.470853 C118.595900 750.751946 113.093591 749.656653 110.088828 745.605203 C107.084066 741.553753 109.474285 733.969355 114.493290 734.471776 C156.466383 738.673441 198.605354 742.880577 240.753594 741.171692 C264.028536 740.228018 287.188494 737.483544 310.320586 734.741335 C389.844334 725.314139 469.368083 715.886944 548.891832 706.459748 C551.286080 708.490253 550.643958 712.606933 548.412847 714.815444 C546.181737 717.023954 542.950795 717.815326 539.885326 718.492287 z"/><path class="selected"  fill="#000000" opacity="1.000000" stroke="none" 
 	d="
M1391.585479 91.459128 C1390.793168 94.210695 1389.945432 97.059973 1388.049018 99.205316 C1386.152605 101.350659 1382.886034 102.571388 1380.345963 101.249676 C1377.452144 99.743893 1376.834707 95.946707 1376.573264 92.695061 C1375.629207 80.953468 1374.833498 69.199949 1374.186393 57.438254 C1373.852175 51.363570 1373.677862 44.818494 1377.029964 39.741398 C1379.833065 35.495823 1384.626433 33.048754 1389.319543 31.084830 C1396.533875 28.065852 1405.288696 25.884804 1411.787169 30.235741 C1415.237845 32.546079 1417.477988 36.569177 1417.624618 40.719275 C1417.914080 48.912066 1410.890968 55.276350 1404.480707 60.386551 C1402.770436 61.749963 1400.965531 63.251320 1400.368790 65.355557 C1399.312314 69.080917 1402.783761 72.857121 1406.581160 73.614884 C1410.378559 74.372647 1414.243483 73.012427 1417.876856 71.673381 C1420.296970 70.781470 1422.952916 72.464327 1424.492911 74.533353 C1426.032906 76.602379 1426.955230 79.112306 1428.703869 81.008280 C1420.284316 88.066721 1407.874928 89.988387 1397.714840 85.807111 C1394.794320 84.605203 1392.459363 88.424273 1391.585479 91.459128 M1393.630496 43.368670 C1388.334219 43.457781 1382.031112 46.362242 1381.924656 51.658198 C1381.889225 53.420801 1382.865114 55.385544 1384.595178 55.724507 C1386.288315 56.056235 1387.826556 54.763908 1389.068624 53.566402 C1391.005342 51.699166 1392.942060 49.831932 1394.878778 47.964699 C1395.920621 46.960235 1397.033414 45.407297 1396.198627 44.225133 C1395.655874 43.456533 1394.571280 43.352841 1393.630496 43.368669 z"/><path class="selected"  fill="#000000" opacity="1.000000" stroke="none" 
 	d="
M1053.674888 96.548505 C1048.029774 97.545306 1042.384661 98.542108 1036.739548 99.538910 C1035.157411 99.818280 1033.542165 100.109073 1032.136399 100.886906 C1027.544953 103.427429 1026.319360 110.426513 1021.284796 111.905973 C1016.701498 113.252825 1012.157161 108.565959 1011.723395 103.808598 C1011.289629 99.051236 1013.612240 94.530255 1015.794596 90.280789 C1023.609190 75.064271 1030.474507 59.360319 1036.337373 43.290563 C1037.890063 39.034733 1043.912028 38.499830 1048.075602 40.285210 C1057.497873 44.325569 1061.903756 55.028830 1064.793174 64.865239 C1068.078048 76.047894 1070.602394 87.453885 1072.342996 98.978315 C1072.934018 102.891439 1073.046378 107.720979 1069.714909 109.857134 C1067.451736 111.308295 1064.295630 110.769896 1062.208175 109.075686 C1060.120720 107.381476 1058.973202 104.760688 1058.447312 102.124165 C1058.167902 100.723359 1058.026316 99.247792 1057.288476 98.024717 C1056.550637 96.801642 1054.962404 95.929939 1053.674888 96.548504 M1047.630986 54.459018 C1043.078703 61.071492 1040.384131 68.948585 1039.932606 76.963834 C1039.774787 79.765347 1040.631674 83.441131 1043.427156 83.683325 C1048.652278 84.136011 1055.100257 80.387660 1053.982498 75.263461 C1052.435485 68.171390 1050.308925 61.205824 1047.630986 54.459018 z"/><path class="selected"  fill="#000000" opacity="1.000000" stroke="none" 
 	d="
M886.458240 1077.358964 C890.018436 1068.257005 895.894700 1059.145739 905.147221 1055.997486 C913.726253 1057.882422 921.743598 1065.944752 919.973748 1074.548262 C919.419992 1077.240158 916.786488 1080.131639 914.341877 1078.875923 C911.364650 1077.346620 912.017115 1071.223197 908.670809 1071.293081 C903.369489 1080.183386 899.914715 1090.169202 898.588690 1100.434831 C897.976651 1105.173031 897.848162 1110.165317 899.775506 1114.536869 C902.531514 1120.787977 909.114374 1124.672909 915.820220 1125.978117 C921.693437 1127.121265 927.818800 1126.585257 933.579278 1124.967125 C936.722173 1124.084278 939.967306 1122.870959 943.160987 1123.547424 C946.354669 1124.223889 949.163028 1127.831270 947.628201 1130.712505 C941.301838 1142.588593 925.271036 1148.157863 912.944243 1142.762079 C900.749829 1137.424241 887.399855 1130.921669 882.625292 1118.495897 C880.503273 1112.973353 880.386516 1106.880158 880.909295 1100.987097 C881.626602 1092.901207 883.501214 1084.918867 886.458240 1077.358964 z"/><path class="selected"  fill="#000000" opacity="1.000000" stroke="none" 
 	d="
M1511.569311 77.128506 C1510.314220 78.511480 1510.511278 80.634529 1510.785709 82.481840 C1511.475359 87.124089 1512.165004 91.766338 1512.854650 96.408587 C1513.632836 101.646821 1508.721023 106.944865 1503.438967 106.564656 C1500.273501 105.904628 1497.994740 102.979272 1497.051522 99.886352 C1496.108304 96.793433 1496.229300 93.494387 1496.161737 90.261549 C1496.001071 82.573732 1494.717865 74.910279 1492.365413 67.589466 C1491.142249 63.782989 1489.919085 59.976512 1488.695922 56.170035 C1487.348084 51.975573 1485.984236 47.564570 1486.803603 43.235735 C1487.805425 37.942965 1492.043031 33.663368 1496.976296 31.500048 C1501.909561 29.336727 1507.462223 29.025446 1512.838408 29.362627 C1521.800780 29.924725 1531.604788 32.907178 1536.021775 40.725765 C1539.864887 47.528526 1538.388170 56.472242 1533.802831 62.798516 C1529.217493 69.124789 1522.030271 73.132043 1514.602207 75.555043 C1513.506217 75.912551 1512.344055 76.274821 1511.569310 77.128505 M1502.465143 53.559836 C1504.221711 56.412345 1506.685153 59.641930 1510.020931 59.333830 C1511.226560 59.222475 1512.334080 58.635102 1513.356739 57.986944 C1517.065858 55.636118 1520.149701 52.308384 1522.211956 48.431395 C1519.148291 44.294761 1513.428561 43.262500 1508.281798 43.169705 C1505.435135 43.118381 1502.026726 43.598322 1500.796696 46.166034 C1499.655356 48.548598 1501.079891 51.310313 1502.465142 53.559835 z"/><path class="selected"  fill="#000000" opacity="1.000000" stroke="none" 
 	d="
M845.963380 1677.619847 C850.279586 1671.567840 857.802911 1668.847281 864.909867 1666.668383 C905.091373 1654.349283 947.248733 1648.499566 989.266344 1649.412794 C991.203300 1649.454892 993.562254 1649.787809 994.284785 1651.585452 C995.024368 1653.425530 993.449398 1655.345896 991.885515 1656.565379 C984.031900 1662.689465 973.668083 1664.296147 963.790834 1665.570353 C937.820488 1668.920635 911.745601 1671.390094 885.676687 1673.858890 C872.438918 1675.112542 859.201149 1676.366194 845.963380 1677.619847 M913.348043 1661.451719 C912.014556 1662.292156 912.006221 1664.573795 913.333532 1665.423952 C914.663984 1664.576474 914.657287 1662.290887 913.321890 1661.451218 z"/><path class="selected"  fill="#000000" opacity="1.000000" stroke="none" 
 	d="
M1582.336316 38.627127 C1591.275791 41.697345 1598.948561 48.298925 1603.318571 56.680063 C1606.705136 63.175074 1608.014049 71.358485 1604.368584 77.711796 C1602.111601 81.645262 1598.229586 84.412276 1594.118899 86.327576 C1583.075991 91.472820 1569.576843 90.978637 1558.939709 85.039720 C1557.757052 84.379421 1556.604687 83.653681 1555.573531 82.775393 C1550.782166 78.694346 1549.234347 71.710890 1550.348019 65.516387 C1551.461691 59.321884 1554.846767 53.778042 1558.582682 48.712958 C1562.525278 43.367659 1567.614438 37.997071 1574.227647 37.379206 C1576.971313 37.122865 1579.730122 37.732042 1582.336315 38.627126 M1581.399694 49.402944 C1578.403604 51.329266 1575.554785 53.484589 1572.886286 55.843908 C1570.410229 58.033081 1568.021715 60.501469 1566.885456 63.605055 C1565.749198 66.708642 1566.162381 70.586821 1568.652945 72.759475 C1571.371024 75.130600 1575.439539 74.789006 1579.014543 74.309921 C1582.616373 73.827241 1586.333278 73.305353 1589.444453 71.427389 C1592.555629 69.549425 1594.921536 65.933692 1594.192941 62.373451 C1592.949047 56.295225 1584.526142 54.761810 1581.399694 49.402945 z"/><path class="selected"  fill="#000000" opacity="1.000000" stroke="none" 
 	d="
M1338.649080 68.092600 C1337.904693 73.053870 1337.160307 78.015141 1336.415921 82.976411 C1336.139331 84.819858 1336.091148 87.153923 1337.734696 88.033439 C1337.211333 92.893193 1333.283513 98.145903 1328.489595 97.192245 C1325.701153 96.637539 1323.661008 94.092009 1322.821640 91.375657 C1321.982271 88.659305 1322.109603 85.754164 1322.151762 82.911396 C1322.300094 72.909569 1321.295012 62.930557 1320.291144 52.978131 C1319.908637 49.185932 1319.526130 45.393732 1319.143623 41.601533 C1317.989989 30.164321 1327.354373 18.710009 1338.792675 17.567238 C1343.820557 17.064915 1348.898853 18.320733 1353.517034 20.371179 C1360.723821 23.570952 1367.494395 29.540377 1368.389768 37.374573 C1369.196689 44.434845 1365.082356 51.110751 1360.419279 56.473053 C1355.525205 62.100990 1348.296538 67.403327 1341.191475 65.135351 C1339.773115 64.682602 1338.869995 66.620212 1338.649077 68.092598 M1328.997537 36.485945 C1327.425702 41.074973 1331.144597 45.638351 1334.570499 49.072451 C1336.363698 50.869937 1339.332083 51.001714 1341.693157 50.067991 C1344.054230 49.134269 1345.950638 47.335512 1347.783423 45.578410 C1350.591982 42.885830 1353.598041 38.731544 1351.381766 35.533714 C1350.339919 34.030447 1348.462915 33.396402 1346.715997 32.854616 C1343.511002 31.860625 1340.207391 30.855022 1336.863813 31.138739 C1333.520236 31.422456 1330.084883 33.311406 1328.997539 36.485944 z"/><path class="selected"  fill="#000000" opacity="1.000000" stroke="none" 
 	d="
M1445.014371 47.520690 C1447.960089 48.564104 1448.685994 52.394264 1448.467505 55.511672 C1448.152973 59.999439 1446.867312 64.416676 1444.724359 68.372271 C1445.265891 71.994159 1448.642691 74.664205 1452.199539 75.536076 C1455.756387 76.407946 1459.488595 75.851450 1463.107620 75.291105 C1466.384661 74.783708 1469.661702 74.276313 1472.938743 73.768917 C1475.477755 73.375793 1476.470164 69.926272 1475.401834 67.589651 C1474.333505 65.253030 1472.016223 63.793964 1469.886995 62.356079 C1467.757766 60.918194 1465.557258 59.161945 1464.979485 56.658486 C1464.401711 54.155028 1466.532223 51.029819 1469.021351 51.666507 C1478.053507 53.976821 1484.216130 62.581145 1487.058174 71.460345 C1487.816824 73.830544 1488.396862 76.393399 1487.712136 78.786001 C1486.554041 82.832661 1482.262351 85.045849 1478.276404 86.398202 C1468.097979 89.851539 1457.062042 90.744971 1446.460667 88.973896 C1444.577326 88.659263 1442.696304 88.258738 1440.925672 87.544014 C1434.171492 84.817659 1429.846470 77.552236 1429.580475 70.273416 C1429.314481 62.994596 1432.670036 55.888721 1437.660649 50.583463 C1439.589872 48.532607 1442.360298 46.580581 1445.014371 47.520690 z"/><path class="selected"  fill="#000000" opacity="1.000000" stroke="none" 
 	d="
M1661.967196 72.019283 C1656.926830 68.129213 1651.868835 64.227195 1646.368801 61.019773 C1641.946635 58.440926 1637.228652 56.303616 1633.222533 53.116609 C1629.216413 49.929603 1625.898437 45.407494 1625.639558 40.294865 C1625.380679 35.182235 1629.076450 29.738683 1634.183424 29.385391 C1636.125908 29.251013 1638.818761 29.323631 1639.174424 27.409264 C1641.073674 30.095631 1645.092389 29.540728 1648.371663 29.275987 C1651.966580 28.985765 1655.618156 29.415496 1659.047482 30.532357 C1661.753332 31.413597 1664.454571 32.841353 1665.917836 35.282063 C1667.381101 37.722772 1667.118578 41.348408 1664.749512 42.925030 C1662.499844 44.422194 1659.477139 43.593508 1657.001749 42.509555 C1654.586975 41.452146 1651.952499 40.165592 1649.436147 40.951227 C1646.919795 41.736862 1645.807882 45.930311 1648.272921 46.864566 C1661.200942 51.764314 1672.769056 60.199442 1681.386877 71.010289 C1682.336638 72.201740 1683.263138 73.442295 1683.808955 74.864857 C1684.407523 76.424900 1684.518489 78.146330 1684.287877 79.801273 C1683.591010 84.802190 1679.819665 89.011452 1675.284414 91.230974 C1670.749163 93.450497 1665.542500 93.918263 1660.499088 93.675822 C1658.075991 93.559343 1655.557089 93.252526 1653.525602 91.926621 C1651.494115 90.600717 1650.119964 87.982836 1650.934443 85.697757 C1652.001750 82.703350 1655.770263 81.960068 1658.841752 81.140575 C1661.913241 80.321082 1665.437248 77.747529 1664.376850 74.750669 C1663.965880 73.589198 1662.942533 72.772031 1661.967197 72.019283 z"/><path class="selected"  fill="#000000" opacity="1.000000" stroke="none" 
 	d="
M1330.821197 1112.109911 C1320.810920 1123.206219 1303.567133 1127.052140 1289.790431 1121.261097 C1287.440065 1120.273119 1285.172634 1119.021332 1283.290440 1117.301545 C1281.746682 1115.890991 1280.491317 1114.193178 1279.365554 1112.430932 C1274.235682 1104.400735 1271.657735 1094.641155 1272.827903 1085.184393 C1273.620807 1078.776500 1276.072115 1072.669485 1279.169153 1067.003963 C1280.846906 1063.934792 1282.856832 1060.839457 1285.938612 1059.184978 C1290.172097 1056.912197 1295.528616 1057.924304 1299.684777 1060.335580 C1301.461982 1061.366660 1303.270808 1063.621643 1301.983257 1065.222828 C1295.226238 1073.625788 1291.532912 1084.439380 1291.737826 1095.220152 C1291.836564 1100.414877 1293.954150 1106.765703 1299.107762 1107.425402 C1301.329309 1107.709775 1304.334829 1107.179579 1305.162216 1109.260819 C1313.317049 1105.257658 1323.743167 1106.415340 1330.821197 1112.109911 z"/><path class="selected"  fill="#000000" opacity="1.000000" stroke="none" 
 	d="
M1034.901985 29.101197 C1033.868420 29.677552 1032.586036 29.332175 1031.458064 28.974234 C1027.436803 27.698157 1023.415542 26.422080 1019.394281 25.146004 C1016.743797 24.304920 1014.032458 23.432574 1011.833264 21.730801 C1007.742995 18.565682 1006.183409 13.198404 1004.859495 8.198852 C1004.327230 6.188830 1003.822868 3.931467 1004.857524 2.127866 C1006.349160 -0.472336 1010.303871 -0.532764 1012.818249 1.099390 C1015.332628 2.731544 1016.847137 5.475527 1018.574434 7.925521 C1020.301731 10.375515 1022.625801 12.776005 1025.610553 13.054002 C1035.367475 13.962752 1044.991631 16.284947 1054.089376 19.925607 C1053.742081 23.703328 1049.684261 25.998595 1045.957062 26.705542 C1042.229863 27.412488 1038.215299 27.253566 1034.901985 29.101197 z"/><path class="selected"  fill="#000000" opacity="1.000000" stroke="none" 
 	d="
M832.992558 1826.317140 C834.850912 1825.002019 837.435722 1824.238312 838.147475 1822.075806 C838.502870 1820.996013 838.274889 1819.799651 838.568316 1818.701398 C839.486639 1815.264248 844.410988 1815.075880 847.676914 1816.486923 C852.131310 1818.411445 855.877879 1821.928568 858.079695 1826.252621 C858.738709 1827.546832 860.598425 1827.321518 862.047767 1827.228312 C866.699175 1826.929177 870.824269 1829.976542 874.479806 1832.868276 C876.196274 1834.226098 878.064507 1835.869622 878.137833 1838.056987 C878.238603 1841.063014 874.998692 1842.964921 872.166417 1843.977128 C862.337902 1847.489668 851.671374 1848.631711 841.322009 1847.279575 C838.629892 1846.927852 835.850496 1846.363547 833.690627 1844.718503 C831.953830 1843.395690 830.756436 1841.462177 829.999726 1839.414328 C828.330063 1834.895793 829.060436 1829.099826 832.992558 1826.317141 z"/><path class="selected"  fill="#000000" opacity="1.000000" stroke="none" 
 	d="
M954.079609 1826.576038 C953.722013 1823.493433 955.838493 1820.527756 958.556897 1819.030889 C961.275300 1817.534021 964.481701 1817.234859 967.584457 1817.178021 C971.892306 1817.099110 976.207535 1817.428276 980.453569 1818.159680 C984.169031 1818.799689 987.984692 1819.825565 990.812621 1822.318973 C993.640551 1824.812382 995.160362 1829.135453 993.428280 1832.484208 C991.312648 1836.574506 985.875682 1837.302442 981.275887 1837.522248 C972.406425 1837.946083 962.237035 1837.851908 956.370648 1831.186137 C955.219202 1829.877793 954.280442 1828.307298 954.079608 1826.576039 z"/><path class="selected"  fill="#000000" opacity="1.000000" stroke="none" 
 	d="
M494.351658 1698.447788 C496.261802 1701.266947 500.306218 1702.396330 503.400593 1700.974658 C509.492733 1698.175700 517.543430 1704.272075 516.500956 1710.894883 C515.518623 1717.135617 508.643794 1720.675204 502.375046 1721.459124 C497.088220 1722.120254 491.650096 1721.539312 486.622238 1719.776291 C482.384482 1718.290320 479.646808 1724.332238 475.695165 1726.465592 C471.961075 1728.481501 467.067918 1726.549410 464.445319 1723.213350 C461.822720 1719.877290 460.946897 1715.525890 460.287824 1711.333881 C458.883304 1702.400484 458.104534 1693.368764 457.959110 1684.326801 C457.846830 1677.345579 462.077730 1670.754301 467.856246 1666.835267 C473.634762 1662.916232 480.759716 1661.394881 487.739774 1661.224967 C489.881057 1661.172843 492.043082 1661.241987 494.126728 1661.738198 C500.050440 1663.148901 504.919965 1668.262084 506.039990 1674.247566 C507.762873 1683.454761 501.245093 1692.105762 494.351658 1698.447788 M474.258937 1686.489182 C477.942312 1687.730915 481.769356 1682.565792 479.508963 1679.403551 C477.060703 1681.113647 475.098474 1683.511701 473.906788 1686.250006 z"/><path class="selected"  fill="#000000" opacity="1.000000" stroke="none" 
 	d="
M540.916692 1704.444274 C540.545808 1703.288814 540.179176 1702.045555 540.527213 1700.883009 C541.088748 1699.007315 543.395308 1697.246220 542.319524 1695.610300 C539.056372 1690.648114 540.676042 1682.297064 535.246347 1679.890845 C534.021248 1679.347931 532.650966 1679.268352 531.326639 1679.063945 C526.956500 1678.389422 522.699889 1676.113300 520.336845 1672.375770 C517.973801 1668.638241 517.873008 1663.384834 520.672556 1659.962023 C523.472104 1656.539212 529.229114 1655.768155 532.435393 1658.813296 C540.206306 1657.229707 547.977219 1655.646119 555.748132 1654.062531 C560.011188 1653.193787 564.566431 1652.347436 568.603803 1653.968540 C572.641176 1655.589645 575.549444 1660.741944 573.239983 1664.429049 C570.797853 1668.327961 567.801322 1672.606557 563.251340 1673.287120 C560.184118 1673.745900 558.125833 1676.929912 557.873214 1680.020948 C557.620595 1683.111985 558.736624 1686.131106 559.804920 1689.042647 C561.906574 1694.770505 563.917446 1700.938999 562.477581 1706.867919 C561.037716 1712.796840 554.690690 1717.929255 548.972484 1715.801479 C544.461674 1714.122983 542.387660 1709.026960 540.916692 1704.444275 z"/><path class="selected"  fill="#000000" opacity="1.000000" stroke="none" 
 	d="
M653.233580 1683.680549 C651.891404 1687.444013 649.755723 1691.357685 646.014950 1692.761861 C644.258345 1693.421239 642.336793 1693.444799 640.460574 1693.460330 C632.881817 1693.523061 625.303061 1693.585793 617.724304 1693.648524 C619.792676 1696.724545 623.878593 1697.723935 627.585328 1697.737285 C631.292064 1697.750636 635.037684 1697.033855 638.679627 1697.724009 C642.321571 1698.414163 645.997216 1701.104704 646.148913 1704.808358 C646.349620 1709.708600 642.568784 1714.086547 638.075060 1716.051007 C633.581335 1718.015467 628.504664 1718.045555 623.604030 1717.854640 C619.829569 1717.707598 615.931377 1717.414545 612.585559 1715.661350 C610.758981 1714.704230 609.172166 1713.346732 607.702699 1711.899965 C599.752085 1704.072168 594.831530 1692.795931 596.133550 1681.714803 C597.335296 1671.487074 603.617573 1662.377332 611.540150 1655.798320 C614.693106 1653.180063 618.390384 1650.806644 622.488505 1650.764052 C626.586625 1650.721460 630.923587 1653.912692 630.737557 1658.006810 C630.649646 1659.941556 629.622311 1661.693732 628.588606 1663.331541 C626.587023 1666.502866 624.451850 1669.589871 622.190648 1672.581626 C624.522973 1675.685297 629.238829 1675.440712 632.973345 1674.379632 C636.874198 1673.271290 640.708315 1671.598657 644.763529 1671.580657 C648.818742 1671.562657 653.293998 1673.843935 654.079469 1677.822392 C654.466441 1679.782431 653.904686 1681.798764 653.233580 1683.680549 z"/><path class="selected"  fill="#000000" opacity="1.000000" stroke="none" 
 	d="
M450.371891 1724.397360 C446.442174 1727.249191 440.560070 1725.433951 437.377247 1721.767174 C434.194425 1718.100397 433.029535 1713.150309 431.968545 1708.412175 C431.575363 1706.656318 429.010242 1708.004862 427.442056 1708.887142 C423.472321 1711.120560 417.661540 1707.506793 414.225034 1710.496337 C411.066170 1713.244350 413.023596 1719.044468 410.142150 1722.082109 C405.712080 1726.752320 397.132583 1719.237467 391.695826 1722.683925 C386.449935 1726.009389 379.619480 1726.090785 373.728250 1724.123172 C367.837020 1722.155558 362.737294 1718.355639 358.065871 1714.262242 C354.218967 1710.891341 350.498966 1707.159744 348.425632 1702.483963 C343.988599 1692.477568 348.275629 1680.381275 355.724679 1672.360872 C359.238440 1668.577600 363.578998 1665.342138 368.613679 1664.196862 C373.648359 1663.051586 379.434743 1664.338626 382.758119 1668.290188 C384.708649 1670.609407 384.707309 1675.349865 381.681833 1675.522616 C375.847254 1675.855758 370.104720 1678.870404 366.965661 1683.799863 C363.826602 1688.729322 363.613246 1695.518267 366.878739 1700.364896 C371.692427 1707.509350 381.595161 1708.581036 390.201480 1708.963257 C391.386488 1709.015886 392.690027 1709.031536 393.609379 1708.282000 C394.528731 1707.532463 394.539893 1705.720924 393.397477 1705.401709 C386.862432 1703.575686 384.676245 1693.566655 389.854774 1689.182137 C391.405287 1687.869360 393.350927 1687.083148 394.875674 1685.740531 C400.544879 1680.748509 397.990193 1671.026454 402.071915 1664.670378 C405.066904 1660.006567 411.262359 1658.144005 416.731781 1659.042063 C422.201203 1659.940121 427.028410 1663.133278 431.212351 1666.768622 C444.278520 1678.121559 452.674520 1694.696676 454.097349 1711.947458 C454.470191 1716.467912 454.042886 1721.733284 450.371890 1724.397359 M415.376767 1677.788699 C412.773841 1679.846659 412.054358 1683.926245 413.796252 1686.750466 C415.538146 1689.574687 419.506633 1690.762874 422.513964 1689.360598 C423.956216 1688.688098 425.113253 1687.540824 426.238859 1686.415942 C423.820276 1683.936298 421.401694 1681.456655 418.983112 1678.977013 C418.009398 1677.978715 416.470694 1676.923804 415.376767 1677.788699 z"/></svg>